<svg xmlns="http://www.w3.org/2000/svg" viewBox="0 0 50.473 32.081"><defs><style>.a{fill:#c8c9cd;}.b{fill:#1b1c1d;}.c{fill:#fff;}.d{fill:#dedfe0;}.e{fill:#b1b3b7;}.f{fill:#e52828;}</style></defs><g transform="translate(0 0)"><path class="a" d="M46.88,32.081H3.593A3.587,3.587,0,0,1,0,28.487V3.593A3.587,3.587,0,0,1,3.593,0H46.88a3.587,3.587,0,0,1,3.593,3.593V28.487A3.587,3.587,0,0,1,46.88,32.081Z"/><rect class="b" width="50.473" height="8.287" transform="translate(0 5.668)"/><path class="c" d="M167.792,154.256H138.428a2.127,2.127,0,0,1-2.128-2.128h0A2.127,2.127,0,0,1,138.428,150H167.8a2.127,2.127,0,0,1,2.128,2.128h0A2.143,2.143,0,0,1,167.792,154.256Z" transform="translate(-121.725 -133.96)"/><g transform="translate(36.743 17.398)"><path d="M343.6,164.557v-.16c.588-.46.92-.738.92-1.016a.3.3,0,0,0-.342-.3.577.577,0,0,0-.449.2l-.128-.128a.7.7,0,0,1,.567-.257.5.5,0,0,1,.556.481c0,.332-.342.642-.8,1.005h.8v.182l-1.123-.011Z" transform="translate(-343.6 -162.879)"/><path d="M357.2,164.557v-.16c.588-.46.92-.738.92-1.016a.3.3,0,0,0-.342-.3.577.577,0,0,0-.449.2l-.128-.128a.7.7,0,0,1,.567-.257.5.5,0,0,1,.556.481c0,.332-.342.642-.8,1.005h.8v.182l-1.123-.011Z" transform="translate(-355.746 -162.879)"/><path d="M370.7,163.645c0-.449.2-.845.674-.845a.54.54,0,0,1,.449.192l-.107.15a.435.435,0,0,0-.353-.171c-.321,0-.46.321-.46.642v.064a.591.591,0,0,1,.471-.257.491.491,0,0,1,.535.524.535.535,0,0,1-.577.535C370.871,164.5,370.7,164.094,370.7,163.645Zm.995.321a.337.337,0,0,0-.374-.353.514.514,0,0,0-.417.246c.021.2.128.46.417.46A.36.36,0,0,0,371.695,163.966Z" transform="translate(-367.802 -162.789)"/><path d="M384.3,164.051a.476.476,0,0,1,.4-.428.431.431,0,0,1-.364-.4c0-.3.289-.428.567-.428s.567.128.567.428a.442.442,0,0,1-.364.4.5.5,0,0,1,.4.428c0,.278-.267.449-.588.449C384.567,164.5,384.3,164.329,384.3,164.051Zm.973-.021c0-.214-.278-.31-.385-.321-.1.011-.385.107-.385.321,0,.182.182.289.385.289S385.273,164.2,385.273,164.03Zm-.021-.781c0-.171-.16-.267-.353-.267s-.353.1-.353.267c0,.2.257.267.353.289C385,163.516,385.252,163.452,385.252,163.249Z" transform="translate(-379.948 -162.789)"/><path d="M403.385,164.647v-1.379l-.267.278-.118-.118.417-.428h.182v1.647Z" transform="translate(-396.648 -162.968)"/><path d="M411.6,164.557v-.16c.588-.46.92-.738.92-1.016a.3.3,0,0,0-.342-.3.577.577,0,0,0-.449.2l-.128-.128a.7.7,0,0,1,.567-.257.5.5,0,0,1,.556.481c0,.332-.342.642-.8,1.005h.8v.182l-1.123-.011Z" transform="translate(-404.328 -162.879)"/><path d="M424.5,164.133l.118-.128a.575.575,0,0,0,.46.214c.235,0,.385-.118.385-.31s-.171-.289-.406-.289h-.171v-.192h.171c.2,0,.385-.086.385-.267s-.171-.278-.364-.278a.552.552,0,0,0-.438.2l-.118-.128a.7.7,0,0,1,.567-.257c.321,0,.556.16.556.438a.412.412,0,0,1-.353.385.416.416,0,0,1,.385.406c0,.278-.225.471-.588.471A.676.676,0,0,1,424.5,164.133Z" transform="translate(-415.849 -162.7)"/></g><g transform="translate(3.646 25.151)"><path class="d" d="M418.9,238.3v-.331h1.454c-.823-.652-1.444-1.208-1.444-1.807a.9.9,0,0,1,.994-.866,1.241,1.241,0,0,1,1.027.47l-.225.235a.981.981,0,0,0-.8-.374.553.553,0,0,0-.62.545c0,.513.577,1.005,1.647,1.839v.3L418.9,238.3Z" transform="translate(-377.751 -235.289)"/><path class="d" d="M394.237,238.269a.979.979,0,0,1-1.037-.973.894.894,0,0,1,.973-.941,1.089,1.089,0,0,1,.845.46V236.7c0-.577-.257-1.166-.834-1.166a.766.766,0,0,0-.631.3l-.182-.278a1,1,0,0,1,.813-.353c.834,0,1.208.727,1.208,1.529S395.061,238.269,394.237,238.269Zm.011-.332c.513,0,.706-.46.738-.823a.911.911,0,0,0-.738-.438.617.617,0,0,0-.684.642A.657.657,0,0,0,394.248,237.938Z" transform="translate(-354.8 -235.2)"/><path class="d" d="M369.859,238.8a.973.973,0,0,1-1.059-.973.9.9,0,0,1,.941-.941,1.034,1.034,0,0,1,.7.267v-1.027h-1.444V235.8h1.818v1.593l-.267.1a.953.953,0,0,0-.684-.278.638.638,0,1,0,0,1.273.948.948,0,0,0,.813-.4l.225.246A1.221,1.221,0,0,1,369.859,238.8Z" transform="translate(-333.009 -235.736)"/><path class="d" d="M345.217,238.662v-.749H344.8v-.321h.417V235.7h.5l1.273,1.9v.31h-1.412v.749Zm.364-1.069h1.037l-1.037-1.551Z" transform="translate(-311.575 -235.647)"/><path class="d" d="M311.759,238.358c-.577,0-1.059-.3-1.059-.8a.894.894,0,0,1,.706-.781.783.783,0,0,1-.663-.706c0-.535.524-.77,1.016-.77s1.016.235,1.016.77a.783.783,0,0,1-.663.706.883.883,0,0,1,.706.781C312.817,238.059,312.347,238.358,311.759,238.358Zm0-.331c.364,0,.684-.192.684-.513,0-.385-.5-.556-.684-.577-.182.021-.684.182-.684.577C311.074,237.834,311.4,238.027,311.759,238.027Zm0-1.4c.182-.032.642-.15.642-.513,0-.31-.278-.492-.642-.492s-.642.182-.642.492C311.117,236.476,311.577,236.594,311.759,236.626Z" transform="translate(-281.122 -235.289)"/><path class="d" d="M289.608,238.662l-1.208-2.705V235.7h2.021v.331h-1.593l1.2,2.631Z" transform="translate(-261.206 -235.647)"/><path class="d" d="M265.808,238.358c-.834,0-1.208-.727-1.208-1.529s.321-1.529,1.144-1.529a.973.973,0,0,1,1.037.973.9.9,0,0,1-.973.952,1.067,1.067,0,0,1-.834-.46v.118c0,.567.235,1.166.834,1.166a.766.766,0,0,0,.631-.3l.182.278A1.066,1.066,0,0,1,265.808,238.358Zm-.075-1.465a.612.612,0,0,0,.684-.642.644.644,0,0,0-.684-.631c-.513,0-.706.46-.749.823A.9.9,0,0,0,265.734,236.893Z" transform="translate(-239.951 -235.289)"/><path class="d" d="M241.659,238.358c-.577,0-1.059-.3-1.059-.8a.894.894,0,0,1,.706-.781.783.783,0,0,1-.663-.706c0-.535.524-.77,1.016-.77s1.016.235,1.016.77a.772.772,0,0,1-.652.706.883.883,0,0,1,.706.781C242.717,238.059,242.236,238.358,241.659,238.358Zm0-.331c.364,0,.684-.192.684-.513,0-.385-.5-.556-.684-.577-.182.021-.684.182-.684.577C240.964,237.834,241.284,238.027,241.659,238.027Zm0-1.4c.182-.032.642-.15.642-.513,0-.31-.278-.492-.642-.492s-.642.182-.642.492C241.006,236.476,241.477,236.594,241.659,236.626Z" transform="translate(-218.518 -235.289)"/><path class="d" d="M206.659,238.358c-.577,0-1.059-.3-1.059-.8a.894.894,0,0,1,.706-.781.783.783,0,0,1-.663-.706c0-.535.524-.77,1.016-.77s1.016.235,1.016.77a.783.783,0,0,1-.652.706.883.883,0,0,1,.706.781C207.717,238.059,207.247,238.358,206.659,238.358Zm0-.331c.364,0,.684-.192.684-.513,0-.385-.5-.556-.684-.577-.182.021-.684.182-.684.577C205.974,237.834,206.3,238.027,206.659,238.027Zm0-1.4c.182-.032.642-.15.642-.513,0-.31-.278-.492-.642-.492s-.642.182-.642.492C206.017,236.476,206.477,236.594,206.659,236.626Z" transform="translate(-187.261 -235.289)"/><path class="d" d="M182.108,238.358c-.834,0-1.208-.727-1.208-1.529s.321-1.529,1.144-1.529a.973.973,0,0,1,1.037.973.9.9,0,0,1-.973.952,1.067,1.067,0,0,1-.834-.46v.118c0,.567.235,1.166.834,1.166a.766.766,0,0,0,.631-.3l.182.278A1.066,1.066,0,0,1,182.108,238.358Zm-.075-1.465a.612.612,0,0,0,.684-.642.644.644,0,0,0-.684-.631c-.513,0-.706.46-.749.823A.9.9,0,0,0,182.033,236.893Z" transform="translate(-165.202 -235.289)"/><path class="d" d="M157.608,238.358c-.834,0-1.208-.727-1.208-1.529s.321-1.529,1.144-1.529a.973.973,0,0,1,1.037.973.9.9,0,0,1-.973.952,1.067,1.067,0,0,1-.834-.46v.118c0,.567.235,1.166.834,1.166a.766.766,0,0,0,.631-.3l.182.278A1.1,1.1,0,0,1,157.608,238.358Zm-.086-1.465a.612.612,0,0,0,.684-.642.644.644,0,0,0-.684-.631c-.513,0-.706.46-.749.823A.93.93,0,0,0,157.523,236.893Z" transform="translate(-143.322 -235.289)"/><path class="d" d="M133,238.3v-.331h1.454c-.823-.652-1.444-1.208-1.444-1.807a.9.9,0,0,1,.994-.866,1.241,1.241,0,0,1,1.027.47l-.225.235a.981.981,0,0,0-.8-.374.553.553,0,0,0-.62.545c0,.513.577,1.005,1.647,1.839v.3L133,238.3Z" transform="translate(-122.424 -235.289)"/><path class="d" d="M108.3,238.662V235.7h.321l.738.759-.225.225-.471-.5v2.481Z" transform="translate(-100.365 -235.647)"/><path class="d" d="M83.7,238.3v-.331h1.454c-.823-.652-1.444-1.208-1.444-1.807a.9.9,0,0,1,.994-.866,1.241,1.241,0,0,1,1.027.47l-.225.235a.981.981,0,0,0-.8-.374.553.553,0,0,0-.62.545c0,.513.577,1.005,1.647,1.839v.3L83.7,238.3Z" transform="translate(-78.396 -235.289)"/><path class="d" d="M59.259,238.8a.973.973,0,0,1-1.059-.973.906.906,0,0,1,.952-.941,1.034,1.034,0,0,1,.7.267v-1.027H58.392V235.8H60.21v1.593l-.267.1a.953.953,0,0,0-.684-.278.638.638,0,1,0,0,1.273.947.947,0,0,0,.813-.4l.225.246A1.208,1.208,0,0,1,59.259,238.8Z" transform="translate(-55.623 -235.736)"/><path class="d" d="M35.159,238.358c-.577,0-1.059-.3-1.059-.8a.894.894,0,0,1,.706-.781.783.783,0,0,1-.663-.706c0-.535.524-.77,1.016-.77s1.016.235,1.016.77a.783.783,0,0,1-.652.706.883.883,0,0,1,.706.781C36.217,238.059,35.747,238.358,35.159,238.358Zm0-.331c.364,0,.684-.192.684-.513,0-.385-.5-.556-.684-.577-.182.021-.684.182-.684.577C34.464,237.834,34.8,238.027,35.159,238.027Zm0-1.4c.182-.032.642-.15.642-.513,0-.31-.278-.492-.642-.492s-.642.182-.642.492C34.506,236.476,34.977,236.594,35.159,236.626Z" transform="translate(-34.1 -235.289)"/></g><g transform="translate(3.753 25.044)"><path class="e" d="M419.9,237.3v-.331h1.454c-.823-.652-1.444-1.208-1.444-1.807a.9.9,0,0,1,.995-.866,1.241,1.241,0,0,1,1.027.471l-.225.235a.981.981,0,0,0-.8-.374.553.553,0,0,0-.62.545c0,.513.577,1.005,1.647,1.839v.3L419.9,237.3Z" transform="translate(-378.751 -234.289)"/><path class="e" d="M395.237,237.269a.979.979,0,0,1-1.037-.973.9.9,0,0,1,.973-.941,1.089,1.089,0,0,1,.845.46V235.7c0-.577-.257-1.166-.834-1.166a.766.766,0,0,0-.631.3l-.182-.278a1,1,0,0,1,.813-.353c.834,0,1.208.727,1.208,1.529S396.061,237.269,395.237,237.269Zm.011-.332c.513,0,.706-.46.738-.823a.911.911,0,0,0-.738-.438.617.617,0,0,0-.684.642A.657.657,0,0,0,395.248,236.938Z" transform="translate(-355.8 -234.2)"/><path class="e" d="M370.859,237.8a.973.973,0,0,1-1.059-.973.9.9,0,0,1,.941-.941,1.034,1.034,0,0,1,.7.267v-1.027h-1.444V234.8h1.818v1.593l-.267.1a.953.953,0,0,0-.684-.278.638.638,0,1,0,0,1.273.947.947,0,0,0,.813-.4l.225.246A1.221,1.221,0,0,1,370.859,237.8Z" transform="translate(-334.009 -234.736)"/><path class="e" d="M346.217,237.662v-.749H345.8v-.321h.417V234.7h.5l1.273,1.9v.31h-1.412v.749Zm.364-1.069h1.037l-1.037-1.551Z" transform="translate(-312.575 -234.647)"/><path class="e" d="M312.759,237.358c-.577,0-1.059-.3-1.059-.8a.894.894,0,0,1,.706-.781.783.783,0,0,1-.663-.706c0-.535.524-.77,1.016-.77s1.016.235,1.016.77a.783.783,0,0,1-.663.706.883.883,0,0,1,.706.781C313.817,237.059,313.347,237.358,312.759,237.358Zm0-.331c.364,0,.684-.192.684-.513,0-.385-.5-.556-.684-.577-.182.021-.684.182-.684.577C312.074,236.834,312.4,237.027,312.759,237.027Zm0-1.4c.182-.032.642-.15.642-.513,0-.31-.278-.492-.642-.492s-.642.182-.642.492C312.117,235.476,312.577,235.594,312.759,235.626Z" transform="translate(-282.122 -234.289)"/><path class="e" d="M290.608,237.662l-1.208-2.705V234.7h2.021v.331h-1.593l1.2,2.631Z" transform="translate(-262.206 -234.647)"/><path class="e" d="M266.808,237.358c-.834,0-1.208-.727-1.208-1.529s.321-1.529,1.144-1.529a.973.973,0,0,1,1.037.973.9.9,0,0,1-.973.952,1.067,1.067,0,0,1-.834-.46v.118c0,.567.235,1.166.834,1.166a.766.766,0,0,0,.631-.3l.182.278A1.066,1.066,0,0,1,266.808,237.358Zm-.075-1.465a.612.612,0,0,0,.684-.642.644.644,0,0,0-.684-.631c-.513,0-.706.46-.749.823A.9.9,0,0,0,266.734,235.893Z" transform="translate(-240.951 -234.289)"/><path class="e" d="M242.659,237.358c-.577,0-1.059-.3-1.059-.8a.894.894,0,0,1,.706-.781.783.783,0,0,1-.663-.706c0-.535.524-.77,1.016-.77s1.016.235,1.016.77a.772.772,0,0,1-.652.706.883.883,0,0,1,.706.781C243.717,237.059,243.236,237.358,242.659,237.358Zm0-.331c.364,0,.684-.192.684-.513,0-.385-.5-.556-.684-.577-.182.021-.684.182-.684.577C241.964,236.834,242.284,237.027,242.659,237.027Zm0-1.4c.182-.032.642-.15.642-.513,0-.31-.278-.492-.642-.492s-.642.182-.642.492C242.006,235.476,242.477,235.594,242.659,235.626Z" transform="translate(-219.518 -234.289)"/><path class="e" d="M207.659,237.358c-.577,0-1.059-.3-1.059-.8a.894.894,0,0,1,.706-.781.783.783,0,0,1-.663-.706c0-.535.524-.77,1.016-.77s1.016.235,1.016.77a.783.783,0,0,1-.652.706.883.883,0,0,1,.706.781C208.717,237.059,208.247,237.358,207.659,237.358Zm0-.331c.364,0,.684-.192.684-.513,0-.385-.5-.556-.684-.577-.182.021-.684.182-.684.577C206.974,236.834,207.3,237.027,207.659,237.027Zm0-1.4c.182-.032.642-.15.642-.513,0-.31-.278-.492-.642-.492s-.642.182-.642.492C207.017,235.476,207.477,235.594,207.659,235.626Z" transform="translate(-188.261 -234.289)"/><path class="e" d="M183.108,237.358c-.834,0-1.208-.727-1.208-1.529s.321-1.529,1.144-1.529a.973.973,0,0,1,1.037.973.9.9,0,0,1-.973.952,1.067,1.067,0,0,1-.834-.46v.118c0,.567.235,1.166.834,1.166a.766.766,0,0,0,.631-.3l.182.278A1.066,1.066,0,0,1,183.108,237.358Zm-.075-1.465a.612.612,0,0,0,.684-.642.644.644,0,0,0-.684-.631c-.513,0-.706.46-.749.823A.9.9,0,0,0,183.034,235.893Z" transform="translate(-166.202 -234.289)"/><path class="e" d="M158.608,237.358c-.834,0-1.208-.727-1.208-1.529s.321-1.529,1.144-1.529a.973.973,0,0,1,1.037.973.9.9,0,0,1-.973.952,1.067,1.067,0,0,1-.834-.46v.118c0,.567.235,1.166.834,1.166a.766.766,0,0,0,.631-.3l.182.278A1.1,1.1,0,0,1,158.608,237.358Zm-.086-1.465a.612.612,0,0,0,.684-.642.644.644,0,0,0-.684-.631c-.513,0-.706.46-.749.823A.93.93,0,0,0,158.523,235.893Z" transform="translate(-144.322 -234.289)"/><path class="e" d="M134,237.3v-.331h1.454c-.823-.652-1.444-1.208-1.444-1.807a.9.9,0,0,1,.994-.866,1.241,1.241,0,0,1,1.027.471l-.225.235a.981.981,0,0,0-.8-.374.553.553,0,0,0-.62.545c0,.513.577,1.005,1.647,1.839v.3L134,237.3Z" transform="translate(-123.424 -234.289)"/><path class="e" d="M109.3,237.662V234.7h.321l.738.759-.225.225-.471-.5v2.481Z" transform="translate(-101.365 -234.647)"/><path class="e" d="M84.7,237.3v-.331h1.454c-.823-.652-1.444-1.208-1.444-1.807a.9.9,0,0,1,.994-.866,1.241,1.241,0,0,1,1.027.471l-.225.235a.981.981,0,0,0-.8-.374.553.553,0,0,0-.62.545c0,.513.577,1.005,1.647,1.839v.3L84.7,237.3Z" transform="translate(-79.396 -234.289)"/><path class="e" d="M60.259,237.8a.973.973,0,0,1-1.059-.973.906.906,0,0,1,.952-.941,1.034,1.034,0,0,1,.7.267v-1.027H59.392V234.8H61.21v1.593l-.267.1a.953.953,0,0,0-.684-.278.638.638,0,1,0,0,1.273.947.947,0,0,0,.813-.4l.225.246A1.208,1.208,0,0,1,60.259,237.8Z" transform="translate(-56.623 -234.736)"/><path class="e" d="M36.159,237.358c-.577,0-1.059-.3-1.059-.8a.894.894,0,0,1,.706-.781.783.783,0,0,1-.663-.706c0-.535.524-.77,1.016-.77s1.016.235,1.016.77a.783.783,0,0,1-.652.706.883.883,0,0,1,.706.781C37.217,237.059,36.747,237.358,36.159,237.358Zm0-.331c.364,0,.684-.192.684-.513,0-.385-.5-.556-.684-.577-.182.021-.684.182-.684.577C35.464,236.834,35.8,237.027,36.159,237.027Zm0-1.4c.182-.032.642-.15.642-.513,0-.31-.278-.492-.642-.492s-.642.182-.642.492C35.506,235.476,35.977,235.594,36.159,235.626Z" transform="translate(-35.1 -234.289)"/></g><g transform="translate(41.844 14.896)"><path class="f" d="M394.572,145.844a3.272,3.272,0,1,1,3.272-3.272A3.272,3.272,0,0,1,394.572,145.844Zm0-6.01a2.738,2.738,0,1,0,2.738,2.738A2.743,2.743,0,0,0,394.572,139.835Z" transform="translate(-391.3 -139.3)"/></g></g></svg>