<svg id="_002-rgb" data-name="002-rgb" xmlns="http://www.w3.org/2000/svg" width="77.707" height="73.4" viewBox="0 0 77.707 73.4">
  <path id="Path_415" data-name="Path 415" d="M22.764,179.024l-9.241-3.169a25.445,25.445,0,1,0,25.33,44.106l2.489-18.807Z" transform="translate(0 -150.379)" fill="#65af2c"/>
  <path id="Path_416" data-name="Path 416" d="M268.267,176.615s-21.6,13.546-21.686,13.8-4.721,25.88-4.721,25.88l.853,4.307a25.446,25.446,0,1,0,25.553-43.986Z" transform="translate(-203.861 -151.019)" fill="#20599d"/>
  <g id="XMLID_736_" transform="translate(13.523 0)">
    <g id="Group_392" data-name="Group 392">
      <path id="Path_417" data-name="Path 417" d="M136.954,39.147a25.442,25.442,0,1,0-50.884,0v.035l.024-.012,8.132,7.445,39.407-2.641,3.243-4.713.078.041Z" transform="translate(-86.07 -13.705)" fill="#ee4853"/>
      <path id="Path_418" data-name="Path 418" d="M97.989,157.015a25.316,25.316,0,0,0-11.919,2.96A25.437,25.437,0,0,0,99.37,182.3l4.084-.441,7.946-11.1v-9.927a25.334,25.334,0,0,0-13.411-3.818Z" transform="translate(-86.07 -134.499)" fill="#fedf30"/>
      <path id="Path_419" data-name="Path 419" d="M253.845,157.015a25.333,25.333,0,0,0-13.411,3.818l-1.278,6.575,8.107,15.018h5.2a25.443,25.443,0,0,0,13.523-22.331A25.318,25.318,0,0,0,253.845,157.015Z" transform="translate(-215.104 -134.499)" fill="#feaee1"/>
      <path id="Path_420" data-name="Path 420" d="M194.781,202.907a25.482,25.482,0,0,1-24.061-.121,25.427,25.427,0,0,1,12.03-21.472A25.427,25.427,0,0,1,194.781,202.907Z" transform="translate(-157.42 -154.981)" fill="#f9f7f8"/>
      <path id="Path_421" data-name="Path 421" d="M182.862,321.055a25.333,25.333,0,0,0,11.919-2.958v.031a25.425,25.425,0,0,1-12.03,21.624,25.425,25.425,0,0,1-12.03-21.624v-.152A25.321,25.321,0,0,0,182.862,321.055Z" transform="translate(-157.42 -270.169)" fill="#99e6fc"/>
    </g>
  </g>
</svg>
