<svg xmlns="http://www.w3.org/2000/svg" xmlns:xlink="http://www.w3.org/1999/xlink" width="152" height="152" viewBox="0 0 152 152">
  <defs>
    <linearGradient id="linear-gradient" x1="0.5" x2="0.5" y2="1" gradientUnits="objectBoundingBox">
      <stop offset="0" stop-color="#279857"/>
      <stop offset="1" stop-color="#45b2e2"/>
    </linearGradient>
    <clipPath id="clip-favicon-mio-curriculum">
      <rect width="152" height="152"/>
    </clipPath>
  </defs>
  <g id="favicon-mio-curriculum" clip-path="url(#clip-favicon-mio-curriculum)">
    <g id="Group_541" data-name="Group 541" transform="translate(-518.181 -360.144)">
      <path id="Path_591" data-name="Path 591" d="M627.278,510.948c-32.03-7.346-51-11.7-83.469-19.14a5.963,5.963,0,0,1-4.476-7.167,422.723,422.723,0,0,0,9.547-112.829,6.338,6.338,0,0,1,5.964-6.69c26.176-1.5,41.227-2.369,69.291-3.979,10.094,11.732,14.985,17.884,24.374,30.725a508.258,508.258,0,0,1-12.043,113.367A7.651,7.651,0,0,1,627.278,510.948Z" transform="translate(0 0)" fill="url(#linear-gradient)"/>
      <path id="Path_592" data-name="Path 592" d="M569.922,396.482l-21.773-.807a3.49,3.49,0,0,1-3.347-3.6c.281-8.561.31-14.154.1-22.727a3.51,3.51,0,0,1,3.4-3.575c8.182-.228,13.563-.375,21.741-.6a3.512,3.512,0,0,1,3.6,3.412c.22,9.278.2,15.259-.115,24.521A3.494,3.494,0,0,1,569.922,396.482Z" transform="translate(17.287 12.367)" fill="#fff"/>
      <path id="Path_593" data-name="Path 593" d="M617.356,388.092l-72.906-6.135c.183-2.152.269-3.225.424-5.377l72.972,5.279C617.666,384.354,617.568,385.6,617.356,388.092Z" transform="translate(16.212 47.491)" fill="#fff"/>
      <path id="Path_594" data-name="Path 594" d="M575.279,388.786l-31.154-3.547c.241-2.144.359-3.217.575-5.365,12.479,1.276,18.72,1.912,31.194,3.184C575.662,385.349,575.539,386.5,575.279,388.786Z" transform="translate(15.212 57.625)" fill="#fff"/>
      <path id="Path_595" data-name="Path 595" d="M605.772,397.432c-24.826-3.571-37.244-5.357-62.07-8.932.305-2.136.452-3.2.737-5.34l62.173,8.194C606.29,393.788,606.124,395,605.772,397.432Z" transform="translate(13.911 67.735)" fill="#fff"/>
      <path id="Path_596" data-name="Path 596" d="M558.358,395.921c-6.164-1.15-9.246-1.72-15.409-2.87.4-2.124.587-3.188.954-5.312,6.18,1.072,9.271,1.61,15.446,2.686C558.965,392.627,558.769,393.723,558.358,395.921Z" transform="translate(11.591 81.823)" fill="#fff"/>
      <path id="Path_597" data-name="Path 597" d="M564.663,397.322c-6.168-1.145-9.25-1.72-15.414-2.87.416-2.242.62-3.367,1.011-5.614,6.18,1.076,9.266,1.61,15.446,2.687C565.3,393.848,565.095,395.006,564.663,397.322Z" transform="translate(30.977 85.204)" fill="#fff"/>
      <path id="Path_598" data-name="Path 598" d="M561.049,361.144c10.094,11.732,14.986,17.884,24.375,30.725-8.794-2.173-13.894-3.387-21.533-5.112a5.408,5.408,0,0,1-4.182-5.744C560.34,374.079,560.654,369.305,561.049,361.144Z" transform="translate(63.086 0)" fill="#6cde9d"/>
    </g>
  </g>
</svg>
