<svg xmlns="http://www.w3.org/2000/svg" xmlns:xlink="http://www.w3.org/1999/xlink" width="245.695" height="48.048" viewBox="0 0 245.695 48.048">
  <defs>
    <linearGradient id="linear-gradient" x1="0.5" x2="0.5" y2="1" gradientUnits="objectBoundingBox">
      <stop offset="0" stop-color="#279857"/>
      <stop offset="1" stop-color="#45b2e2"/>
    </linearGradient>
  </defs>
  <g id="logo-mio-curriculum" transform="translate(-461.797 -20.331)">
    <path id="Path_600" data-name="Path 600" d="M16.772-12.824h-.084L15.26-9.968,11.452-3.052,7.728-9.94,6.244-13.02H6.16V0h-4V-19.544H6.664l4.788,9.156h.056l4.732-9.156h4.536V0h-4Zm10.164-3.444a2.511,2.511,0,0,1-1.834-.574,1.99,1.99,0,0,1-.574-1.47v-.616A1.99,1.99,0,0,1,25.1-20.4a2.511,2.511,0,0,1,1.834-.574,2.511,2.511,0,0,1,1.834.574,1.99,1.99,0,0,1,.574,1.47v.616a1.99,1.99,0,0,1-.574,1.47A2.511,2.511,0,0,1,26.936-16.268ZM24.864-14.7h4.144V0H24.864ZM38.836.336a7.462,7.462,0,0,1-2.9-.532,5.782,5.782,0,0,1-2.156-1.54,7.019,7.019,0,0,1-1.358-2.436,10.057,10.057,0,0,1-.476-3.192,10.057,10.057,0,0,1,.476-3.192,6.87,6.87,0,0,1,1.358-2.422A5.855,5.855,0,0,1,35.938-14.5a7.462,7.462,0,0,1,2.9-.532,7.462,7.462,0,0,1,2.9.532,5.855,5.855,0,0,1,2.156,1.526,6.87,6.87,0,0,1,1.358,2.422,10.057,10.057,0,0,1,.476,3.192,10.057,10.057,0,0,1-.476,3.192A7.019,7.019,0,0,1,43.89-1.736,5.782,5.782,0,0,1,41.734-.2,7.462,7.462,0,0,1,38.836.336Zm0-3.276a2.414,2.414,0,0,0,1.9-.756,3.14,3.14,0,0,0,.672-2.156v-3A3.14,3.14,0,0,0,40.74-11a2.414,2.414,0,0,0-1.9-.756,2.414,2.414,0,0,0-1.9.756,3.141,3.141,0,0,0-.672,2.156v3A3.141,3.141,0,0,0,36.932-3.7,2.414,2.414,0,0,0,38.836-2.94ZM63.392.336a9.691,9.691,0,0,1-3.584-.63A7.105,7.105,0,0,1,57.092-2.17a8.637,8.637,0,0,1-1.736-3.108,13.884,13.884,0,0,1-.616-4.354,14.321,14.321,0,0,1,.616-4.382,9.168,9.168,0,0,1,1.736-3.22,7.238,7.238,0,0,1,2.716-1.974,9.154,9.154,0,0,1,3.584-.672,8.3,8.3,0,0,1,4.48,1.106A7.625,7.625,0,0,1,70.7-15.288l-3.668,1.9a4.364,4.364,0,0,0-1.218-1.974,3.515,3.515,0,0,0-2.422-.742,3.917,3.917,0,0,0-3.01,1.218,5.016,5.016,0,0,0-1.134,3.542V-8.2a5.016,5.016,0,0,0,1.134,3.542,3.917,3.917,0,0,0,3.01,1.218A3.579,3.579,0,0,0,65.9-4.3a5.189,5.189,0,0,0,1.386-2.058L70.756-4.34a8.688,8.688,0,0,1-2.87,3.458A7.777,7.777,0,0,1,63.392.336Zm18.788-2.8h-.14A5.1,5.1,0,0,1,81.522-1.4a3.566,3.566,0,0,1-.826.9,3.881,3.881,0,0,1-1.19.616,5.1,5.1,0,0,1-1.582.224,4.075,4.075,0,0,1-3.43-1.5,6.891,6.891,0,0,1-1.162-4.3V-14.7h4.144v8.876a3.782,3.782,0,0,0,.476,2.072,1.792,1.792,0,0,0,1.624.728,3.359,3.359,0,0,0,.952-.14,2.7,2.7,0,0,0,.84-.406,2.091,2.091,0,0,0,.588-.658,1.831,1.831,0,0,0,.224-.924V-14.7h4.144V0H82.18ZM90.188,0V-14.7h4.144v3.192h.14a4.566,4.566,0,0,1,.392-1.19,3.631,3.631,0,0,1,.742-1.022,3.474,3.474,0,0,1,1.106-.714,3.943,3.943,0,0,1,1.512-.266h.728v3.864H97.916a5.9,5.9,0,0,0-2.7.476A1.822,1.822,0,0,0,94.332-8.6V0ZM101.5,0V-14.7h4.144v3.192h.14a4.566,4.566,0,0,1,.392-1.19,3.631,3.631,0,0,1,.742-1.022,3.474,3.474,0,0,1,1.106-.714,3.943,3.943,0,0,1,1.512-.266h.728v3.864h-1.036a5.9,5.9,0,0,0-2.7.476,1.822,1.822,0,0,0-.882,1.764V0Zm13.384-16.268a2.511,2.511,0,0,1-1.834-.574,1.99,1.99,0,0,1-.574-1.47v-.616a1.99,1.99,0,0,1,.574-1.47,2.511,2.511,0,0,1,1.834-.574,2.511,2.511,0,0,1,1.834.574,1.99,1.99,0,0,1,.574,1.47v.616a1.99,1.99,0,0,1-.574,1.47A2.511,2.511,0,0,1,114.884-16.268ZM112.812-14.7h4.144V0h-4.144ZM126.756.336a7.473,7.473,0,0,1-2.94-.546,5.841,5.841,0,0,1-2.156-1.54,6.658,6.658,0,0,1-1.316-2.422,10.637,10.637,0,0,1-.448-3.192,10.5,10.5,0,0,1,.448-3.178,6.814,6.814,0,0,1,1.316-2.422,5.637,5.637,0,0,1,2.156-1.54,7.646,7.646,0,0,1,2.94-.532,6.55,6.55,0,0,1,3.738,1.008,5.518,5.518,0,0,1,2.142,2.828l-3.36,1.456a2.817,2.817,0,0,0-.812-1.428,2.373,2.373,0,0,0-1.708-.588,2.267,2.267,0,0,0-1.9.826,3.527,3.527,0,0,0-.644,2.226v2.744a3.466,3.466,0,0,0,.644,2.212,2.284,2.284,0,0,0,1.9.812,2.533,2.533,0,0,0,1.778-.6,3.523,3.523,0,0,0,.966-1.582l3.22,1.4a5.726,5.726,0,0,1-2.254,3.08A6.723,6.723,0,0,1,126.756.336Zm17.22-2.8h-.14a5.1,5.1,0,0,1-.518,1.064,3.566,3.566,0,0,1-.826.9,3.881,3.881,0,0,1-1.19.616,5.1,5.1,0,0,1-1.582.224,4.075,4.075,0,0,1-3.43-1.5,6.891,6.891,0,0,1-1.162-4.3V-14.7h4.144v8.876a3.782,3.782,0,0,0,.476,2.072,1.792,1.792,0,0,0,1.624.728,3.359,3.359,0,0,0,.952-.14,2.7,2.7,0,0,0,.84-.406,2.091,2.091,0,0,0,.588-.658,1.831,1.831,0,0,0,.224-.924V-14.7h4.144V0h-4.144ZM156.1,0a4.155,4.155,0,0,1-3.122-1.036,4.161,4.161,0,0,1-.994-3V-20.72h4.144v17.5h1.848V0Zm13.048-2.464h-.14A5.1,5.1,0,0,1,168.49-1.4a3.566,3.566,0,0,1-.826.9,3.881,3.881,0,0,1-1.19.616,5.1,5.1,0,0,1-1.582.224,4.075,4.075,0,0,1-3.43-1.5,6.891,6.891,0,0,1-1.162-4.3V-14.7h4.144v8.876a3.782,3.782,0,0,0,.476,2.072,1.792,1.792,0,0,0,1.624.728,3.359,3.359,0,0,0,.952-.14,2.7,2.7,0,0,0,.84-.406,2.091,2.091,0,0,0,.588-.658,1.831,1.831,0,0,0,.224-.924V-14.7h4.144V0h-4.144ZM177.156,0V-14.7H181.3v2.492h.168a4.487,4.487,0,0,1,1.344-2,3.84,3.84,0,0,1,2.6-.826,4.332,4.332,0,0,1,2.576.756,4.218,4.218,0,0,1,1.54,2.212h.084a3.943,3.943,0,0,1,.6-1.162,3.971,3.971,0,0,1,.994-.938,5.362,5.362,0,0,1,1.316-.63,5.017,5.017,0,0,1,1.568-.238,3.831,3.831,0,0,1,3.262,1.512,7.08,7.08,0,0,1,1.134,4.312V0h-4.144V-8.876q0-2.8-2.016-2.8a2.853,2.853,0,0,0-1.68.532A1.852,1.852,0,0,0,189.9-9.52V0h-4.144V-8.876q0-2.8-2.016-2.8a3.148,3.148,0,0,0-.882.126,2.244,2.244,0,0,0-.784.406,2.108,2.108,0,0,0-.56.686,2.013,2.013,0,0,0-.21.938V0Z" transform="translate(509 55)"/>
    <g id="Group_535" data-name="Group 535" transform="translate(-77.384 -340.813)">
      <path id="Path_591" data-name="Path 591" d="M567.4,409.129,540.663,403a1.91,1.91,0,0,1-1.434-2.3,135.405,135.405,0,0,0,3.058-36.141,2.03,2.03,0,0,1,1.91-2.143l22.195-1.274c3.233,3.758,4.8,5.729,7.807,9.842a162.8,162.8,0,0,1-3.857,36.313A2.451,2.451,0,0,1,567.4,409.129Z" transform="translate(0 0)" fill="url(#linear-gradient)"/>
      <path id="Path_592" data-name="Path 592" d="M552.847,375.2l-6.974-.259a1.118,1.118,0,0,1-1.072-1.154c.09-2.742.1-4.534.033-7.28a1.124,1.124,0,0,1,1.089-1.145l6.964-.193a1.125,1.125,0,0,1,1.152,1.093c.07,2.972.063,4.888-.037,7.854A1.119,1.119,0,0,1,552.847,375.2Z" transform="translate(1.718 1.229)" fill="#fff"/>
      <path id="Path_593" data-name="Path 593" d="M567.8,380.268,544.45,378.3c.059-.689.086-1.033.136-1.722l23.374,1.691C567.9,379.07,567.871,379.47,567.8,380.268Z" transform="translate(1.611 4.721)" fill="#fff"/>
      <path id="Path_594" data-name="Path 594" d="M554.1,382.729l-9.979-1.136c.077-.687.115-1.03.184-1.719l9.992,1.02C554.227,381.628,554.188,382,554.1,382.729Z" transform="translate(1.512 5.728)" fill="#fff"/>
      <path id="Path_595" data-name="Path 595" d="M563.584,387.732,543.7,384.871c.1-.684.145-1.026.236-1.711l19.915,2.625C563.75,386.564,563.7,386.953,563.584,387.732Z" transform="translate(1.383 6.733)" fill="#fff"/>
      <path id="Path_596" data-name="Path 596" d="M547.884,390.36l-4.936-.919c.127-.68.188-1.021.306-1.7l4.948.861C548.079,389.3,548.016,389.656,547.884,390.36Z" transform="translate(1.152 8.133)" fill="#fff"/>
      <path id="Path_597" data-name="Path 597" d="M554.186,391.555l-4.937-.919c.133-.718.2-1.079.324-1.8l4.948.861C554.391,390.443,554.325,390.814,554.186,391.555Z" transform="translate(3.079 8.469)" fill="#fff"/>
      <path id="Path_598" data-name="Path 598" d="M560.122,361.144c3.233,3.758,4.8,5.729,7.808,9.842-2.817-.7-4.45-1.085-6.9-1.637a1.732,1.732,0,0,1-1.34-1.84C559.9,365.287,560,363.758,560.122,361.144Z" transform="translate(6.271 0)" fill="#6cde9d"/>
    </g>
  </g>
</svg>
