<?xml version="1.0" encoding="utf-8"?>
<!-- Generator: Adobe Illustrator 25.2.3, SVG Export Plug-In . SVG Version: 6.00 Build 0)  -->
<svg version="1.1" id="Layer_1" xmlns="http://www.w3.org/2000/svg" xmlns:xlink="http://www.w3.org/1999/xlink" x="0px" y="0px"
	 width="160px" height="50.8px" viewBox="0 0 160 50.8" style="enable-background:new 0 0 160 50.8;" xml:space="preserve">
<style type="text/css">
	.st0{enable-background:new    ;}
	.st1{fill:#65AF2C;}
	.st2{fill:#2176C4;}
	.st3{fill:#EE4853;}
</style>
<g id="Group_530" transform="translate(-142 -17.621)">
	<g class="st0">
		<path d="M219,56.4h-2.3c-1.3,0-2.2-0.3-2.8-0.9c-0.6-0.6-0.9-1.5-0.9-2.6v-0.7c-1.8-0.3-3.2-1.2-4.3-2.6c-1-1.4-1.6-3.4-1.6-5.9
			c0-1.4,0.2-2.7,0.5-3.8c0.4-1.1,0.8-2,1.5-2.7c0.6-0.7,1.4-1.3,2.3-1.6c0.9-0.4,1.9-0.6,3-0.6s2.1,0.2,3,0.6
			c0.9,0.4,1.7,0.9,2.3,1.6c0.6,0.7,1.1,1.6,1.5,2.7c0.4,1.1,0.5,2.3,0.5,3.8c0,2.4-0.5,4.4-1.5,5.8s-2.3,2.3-4,2.7v1.3h2.6V56.4z
			 M214.6,49c1.1,0,2-0.4,2.6-1.1c0.6-0.7,0.9-1.8,0.9-3.1v-2.5c0-1.3-0.3-2.4-0.9-3.1c-0.6-0.7-1.5-1.1-2.6-1.1s-2,0.4-2.6,1.1
			c-0.6,0.7-0.9,1.8-0.9,3.1v2.5c0,1.3,0.3,2.4,0.9,3.1C212.6,48.7,213.5,49,214.6,49z"/>
		<path d="M232.2,49.9h-0.1c-0.1,0.3-0.3,0.6-0.4,0.9c-0.2,0.3-0.4,0.5-0.7,0.8c-0.3,0.2-0.6,0.4-1,0.5s-0.8,0.2-1.4,0.2
			c-1.3,0-2.3-0.4-2.9-1.3c-0.7-0.9-1-2.1-1-3.7v-7.9h3.6V47c0,0.8,0.1,1.4,0.4,1.8s0.7,0.6,1.4,0.6c0.3,0,0.5,0,0.8-0.1
			c0.3-0.1,0.5-0.2,0.7-0.3c0.2-0.2,0.4-0.3,0.5-0.6c0.1-0.2,0.2-0.5,0.2-0.8v-8.2h3.6V52h-3.6V49.9z"/>
		<path d="M240.9,38.1c-0.7,0-1.2-0.2-1.6-0.5s-0.5-0.7-0.5-1.3v-0.5c0-0.5,0.2-0.9,0.5-1.3c0.3-0.3,0.9-0.5,1.6-0.5
			c0.7,0,1.2,0.2,1.6,0.5c0.3,0.3,0.5,0.7,0.5,1.3v0.5c0,0.5-0.2,0.9-0.5,1.3S241.6,38.1,240.9,38.1z M239.1,39.4h3.6V52h-3.6V39.4z
			"/>
		<path d="M251,52.3c-0.9,0-1.8-0.2-2.5-0.5c-0.7-0.3-1.4-0.8-1.8-1.3c-0.5-0.6-0.9-1.3-1.1-2.1c-0.3-0.8-0.4-1.7-0.4-2.7
			c0-1,0.1-1.9,0.4-2.7c0.3-0.8,0.6-1.5,1.1-2.1s1.1-1,1.8-1.3s1.6-0.5,2.5-0.5c1.3,0,2.3,0.3,3.2,0.9c0.9,0.6,1.5,1.4,1.8,2.4
			l-2.9,1.2c-0.1-0.5-0.3-0.9-0.7-1.2s-0.8-0.5-1.5-0.5c-0.7,0-1.3,0.2-1.6,0.7c-0.4,0.5-0.6,1.1-0.6,1.9v2.4c0,0.8,0.2,1.4,0.6,1.9
			c0.4,0.5,0.9,0.7,1.6,0.7c0.6,0,1.1-0.2,1.5-0.5c0.4-0.3,0.7-0.8,0.8-1.4l2.8,1.2c-0.4,1.2-1.1,2.1-1.9,2.6
			C253.4,52,252.3,52.3,251,52.3z"/>
		<path d="M258.4,34.2h3.6v10.5h0.1l1.6-2.3l2.5-3h3.9l-4.2,4.8l4.7,7.8h-4.2l-2.8-5.3l-1.6,1.8V52h-3.6V34.2z"/>
		<path d="M278.9,52.3c-1.1,0-2.2-0.2-3.1-0.5s-1.7-0.9-2.3-1.6c-0.6-0.7-1.1-1.6-1.5-2.7c-0.4-1.1-0.5-2.3-0.5-3.7
			c0-1.4,0.2-2.7,0.5-3.8c0.4-1.1,0.8-2,1.5-2.8c0.6-0.7,1.4-1.3,2.3-1.7s1.9-0.6,3.1-0.6c1.6,0,2.8,0.3,3.8,0.9s1.8,1.6,2.4,3
			l-3.1,1.6c-0.2-0.7-0.6-1.3-1-1.7c-0.5-0.4-1.2-0.6-2.1-0.6c-1.1,0-1.9,0.3-2.6,1c-0.6,0.7-1,1.7-1,3V45c0,1.3,0.3,2.3,1,3
			c0.6,0.7,1.5,1,2.6,1c0.9,0,1.6-0.2,2.1-0.7c0.5-0.5,0.9-1.1,1.2-1.8l3,1.7c-0.6,1.3-1.4,2.3-2.5,3
			C281.7,51.9,280.4,52.3,278.9,52.3z"/>
		<path d="M291.6,52l-5.4-16.8h3.7l2.5,8l1.3,5.3h0.1l1.3-5.3l2.5-8h3.6L295.7,52H291.6z"/>
	</g>
	<g id="Group_423" transform="translate(1.299 -2)">
		<g id="Group_414" transform="translate(-429.289 -339.622)">
			<path id="Path_441" class="st1" d="M576.8,401.2L576.8,401.2c-1.1-0.1-2-0.9-2.4-2l0,0c-0.3-0.9-0.1-1.9,0.5-2.6l3.5-4.2l4.5-5.3
				l5.2-1.9l-1,5.5l-4.5,5.3l-3.5,4.2C578.7,401,577.8,401.3,576.8,401.2z"/>
		</g>
		<g id="Group_415" transform="translate(-429.289 -339.622)">
			<path id="Path_442" class="st2" d="M570.8,385.3L570.8,385.3c-0.8-0.8-1-2-0.5-3l0,0c0.4-0.9,1.1-1.5,2.1-1.6l5.4-0.9l6.8-1.2
				l5.2,1.9l-4.2,3.6l-6.8,1.2l-5.4,1C572.3,386.3,571.4,385.9,570.8,385.3z"/>
		</g>
		<g id="Group_416" transform="translate(-429.289 -339.622)">
			<path id="Path_443" class="st3" d="M576.4,369.1L576.4,369.1c-0.1-1.1,0.5-2.2,1.5-2.7l0,0c0.8-0.4,1.8-0.4,2.6,0.1l4.7,2.7
				l6,3.5l2.8,4.8l-5.5,0l-6-3.5l-4.7-2.7C576.9,370.9,576.4,370.1,576.4,369.1z"/>
		</g>
		<g id="Group_417" transform="translate(-429.289 -339.622)">
			<path id="Path_444" class="st1" d="M591,360.4L591,360.4c0.7-0.9,1.8-1.3,2.9-1.1l0,0c0.9,0.2,1.6,0.9,2,1.8l1.9,5.1l2.4,6.5
				l-1,5.5l-4.3-3.6l-2.4-6.5l-1.9-5.1C590.3,362.1,590.5,361.1,591,360.4z"/>
		</g>
		<g id="Group_418" transform="translate(-429.289 -339.622)">
			<path id="Path_445" class="st2" d="M607.9,363.1L607.9,363.1c1.1-0.3,2.2,0.2,2.9,1.1l0,0c0.6,0.7,0.7,1.7,0.4,2.6l-1.9,5.1
				l-2.4,6.5l-4.3,3.6l-1-5.5l2.4-6.5l1.9-5.1C606.2,364,607,363.3,607.9,363.1z"/>
		</g>
		<g id="Group_419" transform="translate(-429.289 -339.622)">
			<path id="Path_446" class="st3" d="M619,376L619,376c1,0.5,1.6,1.6,1.5,2.7l0,0c-0.1,0.9-0.6,1.8-1.4,2.2l-4.7,2.7l-6,3.5l-5.5,0
				l2.8-4.8l6-3.5l4.7-2.7C617.2,375.6,618.2,375.6,619,376z"/>
		</g>
		<g id="Group_420" transform="translate(-429.289 -339.622)">
			<path id="Path_447" class="st1" d="M619.3,393.1L619.3,393.1c0.5,1,0.2,2.2-0.5,3l0,0c-0.6,0.7-1.6,1-2.5,0.8l-5.4-1l-6.8-1.2
				l-4.2-3.6l5.2-1.9l6.8,1.2l5.4,1C618.2,391.6,618.9,392.2,619.3,393.1z"/>
		</g>
		<g id="Group_421" transform="translate(-429.289 -339.622)">
			<path id="Path_448" class="st2" d="M608.5,406.3L608.5,406.3c-0.3,1.1-1.2,1.9-2.4,2l0,0c-0.9,0.1-1.8-0.3-2.4-1l-3.5-4.2
				l-4.5-5.3l-1-5.5l5.2,1.9l4.5,5.3l3.5,4.2C608.6,404.5,608.8,405.4,608.5,406.3z"/>
		</g>
		<g id="Group_422" transform="translate(-429.289 -339.622)">
			<path id="Path_449" class="st3" d="M591.8,409.5L591.8,409.5c-0.9,0.6-2.2,0.6-3.1,0l0,0c-0.8-0.5-1.2-1.4-1.2-2.3v-12.4l2.8-4.8
				l2.8,4.8v12.4C593,408.2,592.5,409,591.8,409.5z"/>
		</g>
	</g>
</g>
</svg>
