<svg xmlns="http://www.w3.org/2000/svg" xmlns:xlink="http://www.w3.org/1999/xlink" width="218.703" height="48.048" viewBox="0 0 218.703 48.048">
  <defs>
    <linearGradient id="linear-gradient" x1="0.5" x2="0.5" y2="1" gradientUnits="objectBoundingBox">
      <stop offset="0" stop-color="#279857"/>
      <stop offset="1" stop-color="#45b2e2"/>
    </linearGradient>
  </defs>
  <g id="Group_542" data-name="Group 542" transform="translate(-601.797 -197.976)">
    <path id="Path_605" data-name="Path 605" d="M10.052.336a9.691,9.691,0,0,1-3.584-.63A7.105,7.105,0,0,1,3.752-2.17,8.637,8.637,0,0,1,2.016-5.278,13.884,13.884,0,0,1,1.4-9.632a14.32,14.32,0,0,1,.616-4.382,9.168,9.168,0,0,1,1.736-3.22,7.238,7.238,0,0,1,2.716-1.974,9.153,9.153,0,0,1,3.584-.672,8.3,8.3,0,0,1,4.48,1.106,7.625,7.625,0,0,1,2.828,3.486l-3.668,1.9a4.364,4.364,0,0,0-1.218-1.974,3.515,3.515,0,0,0-2.422-.742,3.917,3.917,0,0,0-3.01,1.218A5.016,5.016,0,0,0,5.908-11.34V-8.2A5.016,5.016,0,0,0,7.042-4.662a3.917,3.917,0,0,0,3.01,1.218A3.579,3.579,0,0,0,12.558-4.3a5.189,5.189,0,0,0,1.386-2.058L17.416-4.34a8.688,8.688,0,0,1-2.87,3.458A7.777,7.777,0,0,1,10.052.336ZM24.92,0l-6.3-19.544h4.312l2.912,9.38,1.54,6.132h.084l1.484-6.132,2.912-9.38h4.172L29.68,0ZM44.436,0V-3.388h2.52V-16.156h-2.52v-3.388h9.3v3.388h-2.52V-3.388h2.52V0ZM57.064,0V-14.7h4.144v2.492h.168a4.487,4.487,0,0,1,1.344-2,3.84,3.84,0,0,1,2.6-.826,4.332,4.332,0,0,1,2.576.756,4.218,4.218,0,0,1,1.54,2.212h.084a3.943,3.943,0,0,1,.6-1.162,3.971,3.971,0,0,1,.994-.938,5.362,5.362,0,0,1,1.316-.63A5.017,5.017,0,0,1,74-15.036a3.831,3.831,0,0,1,3.262,1.512A7.08,7.08,0,0,1,78.4-9.212V0H74.256V-8.876q0-2.8-2.016-2.8a2.853,2.853,0,0,0-1.68.532A1.852,1.852,0,0,0,69.8-9.52V0H65.66V-8.876q0-2.8-2.016-2.8a3.148,3.148,0,0,0-.882.126,2.244,2.244,0,0,0-.784.406,2.108,2.108,0,0,0-.56.686,2.013,2.013,0,0,0-.21.938V0ZM82.1,0V-14.7H86.24v2.492h.168a4.487,4.487,0,0,1,1.344-2,3.84,3.84,0,0,1,2.6-.826,4.332,4.332,0,0,1,2.576.756,4.218,4.218,0,0,1,1.54,2.212h.084a3.943,3.943,0,0,1,.6-1.162,3.971,3.971,0,0,1,.994-.938,5.362,5.362,0,0,1,1.316-.63,5.017,5.017,0,0,1,1.568-.238,3.831,3.831,0,0,1,3.262,1.512,7.08,7.08,0,0,1,1.134,4.312V0H99.288V-8.876q0-2.8-2.016-2.8a2.853,2.853,0,0,0-1.68.532,1.852,1.852,0,0,0-.756,1.624V0H90.692V-8.876q0-2.8-2.016-2.8a3.148,3.148,0,0,0-.882.126,2.244,2.244,0,0,0-.784.406,2.108,2.108,0,0,0-.56.686,2.013,2.013,0,0,0-.21.938V0ZM113.26.336a7.759,7.759,0,0,1-3-.546,6.185,6.185,0,0,1-2.226-1.54,6.488,6.488,0,0,1-1.372-2.422,10.338,10.338,0,0,1-.462-3.192,10.4,10.4,0,0,1,.448-3.15,6.7,6.7,0,0,1,1.33-2.422,5.9,5.9,0,0,1,2.17-1.554,7.473,7.473,0,0,1,2.94-.546,7.248,7.248,0,0,1,3.122.616,5.894,5.894,0,0,1,2.128,1.652,6.655,6.655,0,0,1,1.2,2.394,10.55,10.55,0,0,1,.378,2.842V-6.3h-9.436v.224a3.284,3.284,0,0,0,.784,2.31,3.194,3.194,0,0,0,2.464.854,3.847,3.847,0,0,0,2.1-.518,8.255,8.255,0,0,0,1.512-1.246L119.42-2.1a6.536,6.536,0,0,1-2.562,1.792A9.475,9.475,0,0,1,113.26.336Zm-.084-12.32a2.471,2.471,0,0,0-1.974.826,3.244,3.244,0,0,0-.714,2.2v.224h5.152v-.252a3.6,3.6,0,0,0-.6-2.17A2.15,2.15,0,0,0,113.176-11.984Zm18.7,9.52h-.14a3.665,3.665,0,0,1-.532,1.106,3.827,3.827,0,0,1-.882.9,4.086,4.086,0,0,1-1.176.588,4.439,4.439,0,0,1-1.358.21,4.884,4.884,0,0,1-4.228-1.974,9.692,9.692,0,0,1-1.428-5.726,9.624,9.624,0,0,1,1.428-5.712,4.9,4.9,0,0,1,4.228-1.96,4.272,4.272,0,0,1,2.534.784,3.442,3.442,0,0,1,1.414,2.016h.14V-20.72h4.144V0H131.88Zm-2.716-.56A3.167,3.167,0,0,0,131.11-3.6a1.864,1.864,0,0,0,.77-1.582V-9.52a1.864,1.864,0,0,0-.77-1.582,3.167,3.167,0,0,0-1.946-.574,2.546,2.546,0,0,0-1.946.826,3.134,3.134,0,0,0-.77,2.226v2.548a3.134,3.134,0,0,0,.77,2.226A2.546,2.546,0,0,0,129.164-3.024Zm12.8-13.244a2.511,2.511,0,0,1-1.834-.574,1.99,1.99,0,0,1-.574-1.47v-.616a1.99,1.99,0,0,1,.574-1.47,2.511,2.511,0,0,1,1.834-.574,2.511,2.511,0,0,1,1.834.574,1.99,1.99,0,0,1,.574,1.47v.616a1.99,1.99,0,0,1-.574,1.47A2.511,2.511,0,0,1,141.96-16.268ZM139.888-14.7h4.144V0h-4.144ZM158.76,0A2.607,2.607,0,0,1,156.9-.7a3.219,3.219,0,0,1-.938-1.876h-.168a3.4,3.4,0,0,1-1.484,2.17,5.1,5.1,0,0,1-2.828.742A4.586,4.586,0,0,1,148.092-.84a4.2,4.2,0,0,1-1.176-3.108,3.876,3.876,0,0,1,1.694-3.458,8.183,8.183,0,0,1,4.606-1.134h2.324v-.924a2.457,2.457,0,0,0-.56-1.694,2.4,2.4,0,0,0-1.876-.63,3.254,3.254,0,0,0-1.96.532,5.262,5.262,0,0,0-1.2,1.2l-2.464-2.184a6.425,6.425,0,0,1,2.254-2.058,7.712,7.712,0,0,1,3.682-.742,6.972,6.972,0,0,1,4.7,1.372,5.035,5.035,0,0,1,1.568,4v6.44h1.372V0Zm-5.74-2.548A3.376,3.376,0,0,0,154.8-3a1.57,1.57,0,0,0,.742-1.456V-6.188h-2.016q-2.436,0-2.436,1.652v.42a1.39,1.39,0,0,0,.5,1.19A2.342,2.342,0,0,0,153.02-2.548ZM168.812,0a4.458,4.458,0,0,1-3.262-1.092,4.292,4.292,0,0,1-1.106-3.192v-7.2h-2.072V-14.7h1.036a1.367,1.367,0,0,0,1.148-.406,1.893,1.893,0,0,0,.308-1.162v-2.408h3.724V-14.7H171.5v3.22h-2.912v8.26h2.688V0Z" transform="translate(649 232.645)"/>
    <g id="Group_535" data-name="Group 535" transform="translate(62.616 -163.168)">
      <path id="Path_591" data-name="Path 591" d="M567.4,409.129,540.663,403a1.91,1.91,0,0,1-1.434-2.3,135.405,135.405,0,0,0,3.058-36.141,2.03,2.03,0,0,1,1.91-2.143l22.195-1.274c3.233,3.758,4.8,5.729,7.807,9.842a162.8,162.8,0,0,1-3.857,36.313A2.451,2.451,0,0,1,567.4,409.129Z" transform="translate(0 0)" fill="url(#linear-gradient)"/>
      <path id="Path_592" data-name="Path 592" d="M552.847,375.2l-6.974-.259a1.118,1.118,0,0,1-1.072-1.154c.09-2.742.1-4.534.033-7.28a1.124,1.124,0,0,1,1.089-1.145l6.964-.193a1.125,1.125,0,0,1,1.152,1.093c.07,2.972.063,4.888-.037,7.854A1.119,1.119,0,0,1,552.847,375.2Z" transform="translate(1.718 1.229)" fill="#fff"/>
      <path id="Path_593" data-name="Path 593" d="M567.8,380.268,544.45,378.3c.059-.689.086-1.033.136-1.722l23.374,1.691C567.9,379.07,567.871,379.47,567.8,380.268Z" transform="translate(1.611 4.721)" fill="#fff"/>
      <path id="Path_594" data-name="Path 594" d="M554.1,382.729l-9.979-1.136c.077-.687.115-1.03.184-1.719l9.992,1.02C554.227,381.628,554.188,382,554.1,382.729Z" transform="translate(1.512 5.728)" fill="#fff"/>
      <path id="Path_595" data-name="Path 595" d="M563.584,387.732,543.7,384.871c.1-.684.145-1.026.236-1.711l19.915,2.625C563.75,386.564,563.7,386.953,563.584,387.732Z" transform="translate(1.383 6.733)" fill="#fff"/>
      <path id="Path_596" data-name="Path 596" d="M547.884,390.36l-4.936-.919c.127-.68.188-1.021.306-1.7l4.948.861C548.079,389.3,548.016,389.656,547.884,390.36Z" transform="translate(1.152 8.133)" fill="#fff"/>
      <path id="Path_597" data-name="Path 597" d="M554.186,391.555l-4.937-.919c.133-.718.2-1.079.324-1.8l4.948.861C554.391,390.443,554.325,390.814,554.186,391.555Z" transform="translate(3.079 8.469)" fill="#fff"/>
      <path id="Path_598" data-name="Path 598" d="M560.122,361.144c3.233,3.758,4.8,5.729,7.808,9.842-2.817-.7-4.45-1.085-6.9-1.637a1.732,1.732,0,0,1-1.34-1.84C559.9,365.287,560,363.758,560.122,361.144Z" transform="translate(6.271 0)" fill="#6cde9d"/>
    </g>
  </g>
</svg>
