<svg xmlns="http://www.w3.org/2000/svg" width="196.344" height="50.757" viewBox="0 0 196.344 50.757">
  <g id="Group_543" data-name="Group 543" transform="translate(-142 -17.621)">
    <path id="Path_606" data-name="Path 606" d="M10.052.336a9.691,9.691,0,0,1-3.584-.63A7.105,7.105,0,0,1,3.752-2.17,8.637,8.637,0,0,1,2.016-5.278,13.884,13.884,0,0,1,1.4-9.632a14.32,14.32,0,0,1,.616-4.382,9.168,9.168,0,0,1,1.736-3.22,7.238,7.238,0,0,1,2.716-1.974,9.153,9.153,0,0,1,3.584-.672,8.3,8.3,0,0,1,4.48,1.106,7.625,7.625,0,0,1,2.828,3.486l-3.668,1.9a4.364,4.364,0,0,0-1.218-1.974,3.515,3.515,0,0,0-2.422-.742,3.917,3.917,0,0,0-3.01,1.218A5.016,5.016,0,0,0,5.908-11.34V-8.2A5.016,5.016,0,0,0,7.042-4.662a3.917,3.917,0,0,0,3.01,1.218A3.579,3.579,0,0,0,12.558-4.3a5.189,5.189,0,0,0,1.386-2.058L17.416-4.34a8.688,8.688,0,0,1-2.87,3.458A7.777,7.777,0,0,1,10.052.336ZM24.92,0l-6.3-19.544h4.312l2.912,9.38,1.54,6.132h.084l1.484-6.132,2.912-9.38h4.172L29.68,0ZM49.448,0H45.192V-19.544H54.46A6.363,6.363,0,0,1,56.9-19.1a5.215,5.215,0,0,1,1.862,1.274,5.756,5.756,0,0,1,1.19,1.974,7.37,7.37,0,0,1,.42,2.548,6.668,6.668,0,0,1-.882,3.472,5.049,5.049,0,0,1-2.674,2.156L60.648,0H55.916L52.5-7.168H49.448Zm4.48-10.752a2.162,2.162,0,0,0,1.5-.49,1.838,1.838,0,0,0,.546-1.442v-1.232a1.838,1.838,0,0,0-.546-1.442,2.162,2.162,0,0,0-1.5-.49h-4.48v5.1ZM74.424,0a2.607,2.607,0,0,1-1.862-.7,3.219,3.219,0,0,1-.938-1.876h-.168a3.4,3.4,0,0,1-1.484,2.17,5.1,5.1,0,0,1-2.828.742A4.586,4.586,0,0,1,63.756-.84,4.2,4.2,0,0,1,62.58-3.948a3.876,3.876,0,0,1,1.694-3.458A8.183,8.183,0,0,1,68.88-8.54H71.2v-.924a2.457,2.457,0,0,0-.56-1.694,2.4,2.4,0,0,0-1.876-.63,3.254,3.254,0,0,0-1.96.532,5.262,5.262,0,0,0-1.2,1.2L63.14-12.236a6.425,6.425,0,0,1,2.254-2.058,7.712,7.712,0,0,1,3.682-.742,6.972,6.972,0,0,1,4.7,1.372,5.035,5.035,0,0,1,1.568,4v6.44H76.72V0Zm-5.74-2.548A3.376,3.376,0,0,0,70.462-3,1.57,1.57,0,0,0,71.2-4.452V-6.188H69.188q-2.436,0-2.436,1.652v.42a1.39,1.39,0,0,0,.5,1.19A2.342,2.342,0,0,0,68.684-2.548ZM79.492-14.7h4.144v2.464h.14a3.442,3.442,0,0,1,1.414-2.016,4.272,4.272,0,0,1,2.534-.784,4.9,4.9,0,0,1,4.228,1.96A9.624,9.624,0,0,1,93.38-7.364a9.692,9.692,0,0,1-1.428,5.726A4.884,4.884,0,0,1,87.724.336a4.4,4.4,0,0,1-1.372-.21A4.126,4.126,0,0,1,85.19-.462a3.827,3.827,0,0,1-.882-.9,3.664,3.664,0,0,1-.532-1.106h-.14V5.6H79.492Zm6.86,11.676A2.546,2.546,0,0,0,88.3-3.85a3.134,3.134,0,0,0,.77-2.226V-8.624a3.134,3.134,0,0,0-.77-2.226,2.546,2.546,0,0,0-1.946-.826,3.167,3.167,0,0,0-1.946.574,1.864,1.864,0,0,0-.77,1.582v4.34a1.864,1.864,0,0,0,.77,1.582A3.167,3.167,0,0,0,86.352-3.024ZM98.588-16.268a2.511,2.511,0,0,1-1.834-.574,1.99,1.99,0,0,1-.574-1.47v-.616a1.99,1.99,0,0,1,.574-1.47,2.511,2.511,0,0,1,1.834-.574,2.511,2.511,0,0,1,1.834.574,1.99,1.99,0,0,1,.574,1.47v.616a1.99,1.99,0,0,1-.574,1.47A2.511,2.511,0,0,1,98.588-16.268ZM96.516-14.7h4.144V0H96.516ZM113.54-2.464h-.14a3.664,3.664,0,0,1-.532,1.106,3.827,3.827,0,0,1-.882.9,4.086,4.086,0,0,1-1.176.588,4.44,4.44,0,0,1-1.358.21,4.884,4.884,0,0,1-4.228-1.974A9.692,9.692,0,0,1,103.8-7.364a9.624,9.624,0,0,1,1.428-5.712,4.9,4.9,0,0,1,4.228-1.96,4.272,4.272,0,0,1,2.534.784,3.442,3.442,0,0,1,1.414,2.016h.14V-20.72h4.144V0H113.54Zm-2.716-.56A3.167,3.167,0,0,0,112.77-3.6a1.864,1.864,0,0,0,.77-1.582V-9.52a1.864,1.864,0,0,0-.77-1.582,3.167,3.167,0,0,0-1.946-.574,2.546,2.546,0,0,0-1.946.826,3.134,3.134,0,0,0-.77,2.226v2.548a3.134,3.134,0,0,0,.77,2.226A2.546,2.546,0,0,0,110.824-3.024ZM127.68.336a7.759,7.759,0,0,1-3-.546,6.185,6.185,0,0,1-2.226-1.54,6.488,6.488,0,0,1-1.372-2.422,10.338,10.338,0,0,1-.462-3.192,10.4,10.4,0,0,1,.448-3.15,6.7,6.7,0,0,1,1.33-2.422,5.9,5.9,0,0,1,2.17-1.554,7.473,7.473,0,0,1,2.94-.546,7.248,7.248,0,0,1,3.122.616,5.894,5.894,0,0,1,2.128,1.652,6.655,6.655,0,0,1,1.2,2.394,10.55,10.55,0,0,1,.378,2.842V-6.3h-9.436v.224a3.284,3.284,0,0,0,.784,2.31,3.194,3.194,0,0,0,2.464.854,3.847,3.847,0,0,0,2.1-.518,8.255,8.255,0,0,0,1.512-1.246L133.84-2.1a6.536,6.536,0,0,1-2.562,1.792A9.475,9.475,0,0,1,127.68.336Zm-.084-12.32a2.471,2.471,0,0,0-1.974.826,3.244,3.244,0,0,0-.714,2.2v.224h5.152v-.252a3.6,3.6,0,0,0-.6-2.17A2.15,2.15,0,0,0,127.6-11.984Z" transform="translate(204 54)"/>
    <g id="Group_423" data-name="Group 423" transform="translate(1.299 -2)">
      <g id="Group_414" data-name="Group 414" transform="translate(-429.289 -339.622)">
        <path id="Path_441" data-name="Path 441" d="M576.846,401.224h0a2.782,2.782,0,0,1-2.364-1.984h0a2.783,2.783,0,0,1,.538-2.57l3.514-4.188,4.471-5.328,5.214-1.885-.951,5.462-4.471,5.328-3.514,4.188A2.784,2.784,0,0,1,576.846,401.224Z" fill="#65af2c"/>
      </g>
      <g id="Group_415" data-name="Group 415" transform="translate(-429.289 -339.622)">
        <path id="Path_442" data-name="Path 442" d="M570.761,385.272h0a2.783,2.783,0,0,1-.536-3.04h0a2.782,2.782,0,0,1,2.065-1.622l5.383-.949,6.85-1.208,5.206,1.907-4.239,3.573-6.85,1.207-5.384.95A2.786,2.786,0,0,1,570.761,385.272Z" fill="#2176c4"/>
      </g>
      <g id="Group_416" data-name="Group 416" transform="translate(-429.289 -339.622)">
        <path id="Path_443" data-name="Path 443" d="M576.354,369.14h0a2.782,2.782,0,0,1,1.543-2.673h0a2.783,2.783,0,0,1,2.624.085l4.735,2.733,6.023,3.478,2.762,4.807-5.544.012-6.024-3.478-4.734-2.733A2.783,2.783,0,0,1,576.354,369.14Z" fill="#ee4853"/>
      </g>
      <g id="Group_417" data-name="Group 417" transform="translate(-429.289 -339.622)">
        <path id="Path_444" data-name="Path 444" d="M591.007,360.378h0a2.783,2.783,0,0,1,2.9-1.056h0a2.786,2.786,0,0,1,1.956,1.752l1.869,5.137,2.379,6.536-.974,5.458-4.255-3.555-2.379-6.536-1.869-5.137A2.782,2.782,0,0,1,591.007,360.378Z" fill="#65af2c"/>
      </g>
      <g id="Group_418" data-name="Group 418" transform="translate(-429.289 -339.622)">
        <path id="Path_445" data-name="Path 445" d="M607.865,363.085h0a2.781,2.781,0,0,1,2.9,1.055h0a2.78,2.78,0,0,1,.372,2.6l-1.869,5.137-2.379,6.536-4.255,3.555-.974-5.458,2.379-6.536,1.87-5.137A2.781,2.781,0,0,1,607.865,363.085Z" fill="#2176c4"/>
      </g>
      <g id="Group_419" data-name="Group 419" transform="translate(-429.289 -339.622)">
        <path id="Path_446" data-name="Path 446" d="M619.038,375.994h0a2.782,2.782,0,0,1,1.544,2.673h0a2.782,2.782,0,0,1-1.386,2.23l-4.734,2.733-6.024,3.478-5.544-.012,2.762-4.807,6.024-3.478,4.734-2.733A2.78,2.78,0,0,1,619.038,375.994Z" fill="#ee4853"/>
      </g>
      <g id="Group_420" data-name="Group 420" transform="translate(-429.289 -339.622)">
        <path id="Path_447" data-name="Path 447" d="M619.3,393.065h0a2.783,2.783,0,0,1-.536,3.04h0a2.785,2.785,0,0,1-2.495.818l-5.383-.95-6.85-1.207-4.24-3.573L605,389.286l6.85,1.207,5.384.95A2.78,2.78,0,0,1,619.3,393.065Z" fill="#65af2c"/>
      </g>
      <g id="Group_421" data-name="Group 421" transform="translate(-429.289 -339.622)">
        <path id="Path_448" data-name="Path 448" d="M608.528,406.31h0a2.784,2.784,0,0,1-2.365,1.983h0a2.784,2.784,0,0,1-2.437-.977l-3.514-4.188-4.471-5.328-.951-5.462L600,394.225l4.471,5.328,3.514,4.188A2.782,2.782,0,0,1,608.528,406.31Z" fill="#2176c4"/>
      </g>
      <g id="Group_422" data-name="Group 422" transform="translate(-429.289 -339.622)">
        <path id="Path_449" data-name="Path 449" d="M591.761,409.533h0a2.781,2.781,0,0,1-3.086,0h0a2.782,2.782,0,0,1-1.238-2.315V394.8l2.782-4.8L593,394.8v12.422A2.783,2.783,0,0,1,591.761,409.533Z" fill="#ee4853"/>
      </g>
    </g>
  </g>
</svg>
