<svg xmlns="http://www.w3.org/2000/svg" width="225.856" height="50.757" viewBox="0 0 225.856 50.757">
  <g id="logo-cv-semplice" transform="translate(-142 -17.621)">
    <path id="Path_599" data-name="Path 599" d="M10.052.336a9.691,9.691,0,0,1-3.584-.63A7.105,7.105,0,0,1,3.752-2.17,8.637,8.637,0,0,1,2.016-5.278,13.884,13.884,0,0,1,1.4-9.632a14.32,14.32,0,0,1,.616-4.382,9.168,9.168,0,0,1,1.736-3.22,7.238,7.238,0,0,1,2.716-1.974,9.153,9.153,0,0,1,3.584-.672,8.3,8.3,0,0,1,4.48,1.106,7.625,7.625,0,0,1,2.828,3.486l-3.668,1.9a4.364,4.364,0,0,0-1.218-1.974,3.515,3.515,0,0,0-2.422-.742,3.917,3.917,0,0,0-3.01,1.218A5.016,5.016,0,0,0,5.908-11.34V-8.2A5.016,5.016,0,0,0,7.042-4.662a3.917,3.917,0,0,0,3.01,1.218A3.579,3.579,0,0,0,12.558-4.3a5.189,5.189,0,0,0,1.386-2.058L17.416-4.34a8.688,8.688,0,0,1-2.87,3.458A7.777,7.777,0,0,1,10.052.336ZM24.92,0l-6.3-19.544h4.312l2.912,9.38,1.54,6.132h.084l1.484-6.132,2.912-9.38h4.172L29.68,0Zm26.6.336a9.822,9.822,0,0,1-4.368-.882A9.99,9.99,0,0,1,44.1-2.828l2.8-2.828a6.3,6.3,0,0,0,4.9,2.24,3.525,3.525,0,0,0,2.324-.644,2.132,2.132,0,0,0,.756-1.708,2.07,2.07,0,0,0-.448-1.358,2.863,2.863,0,0,0-1.82-.742L50.68-8.12A7.479,7.479,0,0,1,46.13-10a5.423,5.423,0,0,1-1.442-3.948,5.677,5.677,0,0,1,.5-2.408,5.33,5.33,0,0,1,1.442-1.876,6.728,6.728,0,0,1,2.3-1.218,10.154,10.154,0,0,1,3.094-.434,10.057,10.057,0,0,1,3.892.7A7.9,7.9,0,0,1,58.8-17.136L55.972-14.28a5.669,5.669,0,0,0-1.694-1.33,5.393,5.393,0,0,0-2.506-.518,3.652,3.652,0,0,0-2.128.5,1.629,1.629,0,0,0-.7,1.4,1.779,1.779,0,0,0,.546,1.456,3.778,3.778,0,0,0,1.778.644l1.932.308a8.241,8.241,0,0,1,4.48,1.862A5.173,5.173,0,0,1,59.136-6.02a6.471,6.471,0,0,1-.5,2.576,5.52,5.52,0,0,1-1.47,2.016,6.775,6.775,0,0,1-2.394,1.3A10.537,10.537,0,0,1,51.52.336Zm17.052,0a7.759,7.759,0,0,1-3-.546A6.185,6.185,0,0,1,63.35-1.75a6.488,6.488,0,0,1-1.372-2.422,10.338,10.338,0,0,1-.462-3.192,10.4,10.4,0,0,1,.448-3.15,6.7,6.7,0,0,1,1.33-2.422,5.9,5.9,0,0,1,2.17-1.554,7.473,7.473,0,0,1,2.94-.546,7.248,7.248,0,0,1,3.122.616,5.894,5.894,0,0,1,2.128,1.652,6.656,6.656,0,0,1,1.2,2.394,10.55,10.55,0,0,1,.378,2.842V-6.3H65.8v.224a3.284,3.284,0,0,0,.784,2.31,3.194,3.194,0,0,0,2.464.854,3.847,3.847,0,0,0,2.1-.518A8.255,8.255,0,0,0,72.66-4.676L74.732-2.1A6.536,6.536,0,0,1,72.17-.308,9.475,9.475,0,0,1,68.572.336Zm-.084-12.32a2.471,2.471,0,0,0-1.974.826,3.244,3.244,0,0,0-.714,2.2v.224h5.152v-.252a3.6,3.6,0,0,0-.6-2.17A2.15,2.15,0,0,0,68.488-11.984ZM78.176,0V-14.7H82.32v2.492h.168a4.487,4.487,0,0,1,1.344-2,3.84,3.84,0,0,1,2.6-.826,4.332,4.332,0,0,1,2.576.756,4.218,4.218,0,0,1,1.54,2.212h.084a3.943,3.943,0,0,1,.6-1.162,3.971,3.971,0,0,1,.994-.938,5.362,5.362,0,0,1,1.316-.63,5.017,5.017,0,0,1,1.568-.238,3.831,3.831,0,0,1,3.262,1.512,7.08,7.08,0,0,1,1.134,4.312V0H95.368V-8.876q0-2.8-2.016-2.8a2.853,2.853,0,0,0-1.68.532,1.852,1.852,0,0,0-.756,1.624V0H86.772V-8.876q0-2.8-2.016-2.8a3.148,3.148,0,0,0-.882.126,2.244,2.244,0,0,0-.784.406,2.108,2.108,0,0,0-.56.686,2.013,2.013,0,0,0-.21.938V0Zm25.032-14.7h4.144v2.464h.14a3.442,3.442,0,0,1,1.414-2.016,4.272,4.272,0,0,1,2.534-.784,4.9,4.9,0,0,1,4.228,1.96A9.624,9.624,0,0,1,117.1-7.364a9.692,9.692,0,0,1-1.428,5.726A4.884,4.884,0,0,1,111.44.336a4.4,4.4,0,0,1-1.372-.21,4.126,4.126,0,0,1-1.162-.588,3.827,3.827,0,0,1-.882-.9,3.664,3.664,0,0,1-.532-1.106h-.14V5.6h-4.144Zm6.86,11.676a2.546,2.546,0,0,0,1.946-.826,3.134,3.134,0,0,0,.77-2.226V-8.624a3.134,3.134,0,0,0-.77-2.226,2.546,2.546,0,0,0-1.946-.826,3.167,3.167,0,0,0-1.946.574,1.864,1.864,0,0,0-.77,1.582v4.34a1.864,1.864,0,0,0,.77,1.582A3.167,3.167,0,0,0,110.068-3.024ZM124.348,0a4.155,4.155,0,0,1-3.122-1.036,4.16,4.16,0,0,1-.994-3V-20.72h4.144v17.5h1.848V0Zm6.44-16.268a2.511,2.511,0,0,1-1.834-.574,1.99,1.99,0,0,1-.574-1.47v-.616a1.99,1.99,0,0,1,.574-1.47,2.511,2.511,0,0,1,1.834-.574,2.511,2.511,0,0,1,1.834.574,1.99,1.99,0,0,1,.574,1.47v.616a1.99,1.99,0,0,1-.574,1.47A2.511,2.511,0,0,1,130.788-16.268ZM128.716-14.7h4.144V0h-4.144ZM142.66.336a7.473,7.473,0,0,1-2.94-.546,5.841,5.841,0,0,1-2.156-1.54,6.658,6.658,0,0,1-1.316-2.422,10.637,10.637,0,0,1-.448-3.192,10.5,10.5,0,0,1,.448-3.178,6.815,6.815,0,0,1,1.316-2.422,5.637,5.637,0,0,1,2.156-1.54,7.646,7.646,0,0,1,2.94-.532,6.55,6.55,0,0,1,3.738,1.008A5.518,5.518,0,0,1,148.54-11.2l-3.36,1.456a2.817,2.817,0,0,0-.812-1.428,2.373,2.373,0,0,0-1.708-.588,2.267,2.267,0,0,0-1.9.826,3.527,3.527,0,0,0-.644,2.226v2.744a3.466,3.466,0,0,0,.644,2.212,2.284,2.284,0,0,0,1.9.812,2.533,2.533,0,0,0,1.778-.6,3.523,3.523,0,0,0,.966-1.582l3.22,1.4a5.726,5.726,0,0,1-2.254,3.08A6.723,6.723,0,0,1,142.66.336Zm14.532,0a7.759,7.759,0,0,1-3-.546,6.185,6.185,0,0,1-2.226-1.54A6.488,6.488,0,0,1,150.6-4.172a10.338,10.338,0,0,1-.462-3.192,10.4,10.4,0,0,1,.448-3.15,6.7,6.7,0,0,1,1.33-2.422,5.9,5.9,0,0,1,2.17-1.554,7.473,7.473,0,0,1,2.94-.546,7.248,7.248,0,0,1,3.122.616,5.894,5.894,0,0,1,2.128,1.652,6.655,6.655,0,0,1,1.2,2.394,10.55,10.55,0,0,1,.378,2.842V-6.3H154.42v.224a3.284,3.284,0,0,0,.784,2.31,3.194,3.194,0,0,0,2.464.854,3.847,3.847,0,0,0,2.1-.518,8.255,8.255,0,0,0,1.512-1.246L163.352-2.1A6.536,6.536,0,0,1,160.79-.308,9.475,9.475,0,0,1,157.192.336Zm-.084-12.32a2.471,2.471,0,0,0-1.974.826,3.244,3.244,0,0,0-.714,2.2v.224h5.152v-.252a3.6,3.6,0,0,0-.6-2.17A2.15,2.15,0,0,0,157.108-11.984Z" transform="translate(204 54)"/>
    <g id="Group_423" data-name="Group 423" transform="translate(1.299 -2)">
      <g id="Group_414" data-name="Group 414" transform="translate(-429.289 -339.622)">
        <path id="Path_441" data-name="Path 441" d="M576.846,401.224h0a2.782,2.782,0,0,1-2.364-1.984h0a2.783,2.783,0,0,1,.538-2.57l3.514-4.188,4.471-5.328,5.214-1.885-.951,5.462-4.471,5.328-3.514,4.188A2.784,2.784,0,0,1,576.846,401.224Z" fill="#65af2c"/>
      </g>
      <g id="Group_415" data-name="Group 415" transform="translate(-429.289 -339.622)">
        <path id="Path_442" data-name="Path 442" d="M570.761,385.272h0a2.783,2.783,0,0,1-.536-3.04h0a2.782,2.782,0,0,1,2.065-1.622l5.383-.949,6.85-1.208,5.206,1.907-4.239,3.573-6.85,1.207-5.384.95A2.786,2.786,0,0,1,570.761,385.272Z" fill="#2176c4"/>
      </g>
      <g id="Group_416" data-name="Group 416" transform="translate(-429.289 -339.622)">
        <path id="Path_443" data-name="Path 443" d="M576.354,369.14h0a2.782,2.782,0,0,1,1.543-2.673h0a2.783,2.783,0,0,1,2.624.085l4.735,2.733,6.023,3.478,2.762,4.807-5.544.012-6.024-3.478-4.734-2.733A2.783,2.783,0,0,1,576.354,369.14Z" fill="#ee4853"/>
      </g>
      <g id="Group_417" data-name="Group 417" transform="translate(-429.289 -339.622)">
        <path id="Path_444" data-name="Path 444" d="M591.007,360.378h0a2.783,2.783,0,0,1,2.9-1.056h0a2.786,2.786,0,0,1,1.956,1.752l1.869,5.137,2.379,6.536-.974,5.458-4.255-3.555-2.379-6.536-1.869-5.137A2.782,2.782,0,0,1,591.007,360.378Z" fill="#65af2c"/>
      </g>
      <g id="Group_418" data-name="Group 418" transform="translate(-429.289 -339.622)">
        <path id="Path_445" data-name="Path 445" d="M607.865,363.085h0a2.781,2.781,0,0,1,2.9,1.055h0a2.78,2.78,0,0,1,.372,2.6l-1.869,5.137-2.379,6.536-4.255,3.555-.974-5.458,2.379-6.536,1.87-5.137A2.781,2.781,0,0,1,607.865,363.085Z" fill="#2176c4"/>
      </g>
      <g id="Group_419" data-name="Group 419" transform="translate(-429.289 -339.622)">
        <path id="Path_446" data-name="Path 446" d="M619.038,375.994h0a2.782,2.782,0,0,1,1.544,2.673h0a2.782,2.782,0,0,1-1.386,2.23l-4.734,2.733-6.024,3.478-5.544-.012,2.762-4.807,6.024-3.478,4.734-2.733A2.78,2.78,0,0,1,619.038,375.994Z" fill="#ee4853"/>
      </g>
      <g id="Group_420" data-name="Group 420" transform="translate(-429.289 -339.622)">
        <path id="Path_447" data-name="Path 447" d="M619.3,393.065h0a2.783,2.783,0,0,1-.536,3.04h0a2.785,2.785,0,0,1-2.495.818l-5.383-.95-6.85-1.207-4.24-3.573L605,389.286l6.85,1.207,5.384.95A2.78,2.78,0,0,1,619.3,393.065Z" fill="#65af2c"/>
      </g>
      <g id="Group_421" data-name="Group 421" transform="translate(-429.289 -339.622)">
        <path id="Path_448" data-name="Path 448" d="M608.528,406.31h0a2.784,2.784,0,0,1-2.365,1.983h0a2.784,2.784,0,0,1-2.437-.977l-3.514-4.188-4.471-5.328-.951-5.462L600,394.225l4.471,5.328,3.514,4.188A2.782,2.782,0,0,1,608.528,406.31Z" fill="#2176c4"/>
      </g>
      <g id="Group_422" data-name="Group 422" transform="translate(-429.289 -339.622)">
        <path id="Path_449" data-name="Path 449" d="M591.761,409.533h0a2.781,2.781,0,0,1-3.086,0h0a2.782,2.782,0,0,1-1.238-2.315V394.8l2.782-4.8L593,394.8v12.422A2.783,2.783,0,0,1,591.761,409.533Z" fill="#ee4853"/>
      </g>
    </g>
  </g>
</svg>
