<svg xmlns="http://www.w3.org/2000/svg" width="160" height="50.757" viewBox="0 0 160 50.757">
  <g id="Group_530" data-name="Group 530" transform="translate(-142 -17.621)">
    <text id="QuickCV" transform="translate(206 52)" font-size="24" font-family="IBMPlexSans-Bold, IBM Plex Sans" font-weight="700"><tspan x="0" y="0">QuickCV</tspan></text>
    <g id="Group_423" data-name="Group 423" transform="translate(1.299 -2)">
      <g id="Group_414" data-name="Group 414" transform="translate(-429.289 -339.622)">
        <path id="Path_441" data-name="Path 441" d="M576.846,401.224h0a2.782,2.782,0,0,1-2.364-1.984h0a2.783,2.783,0,0,1,.538-2.57l3.514-4.188,4.471-5.328,5.214-1.885-.951,5.462-4.471,5.328-3.514,4.188A2.784,2.784,0,0,1,576.846,401.224Z" fill="#65af2c"/>
      </g>
      <g id="Group_415" data-name="Group 415" transform="translate(-429.289 -339.622)">
        <path id="Path_442" data-name="Path 442" d="M570.761,385.272h0a2.783,2.783,0,0,1-.536-3.04h0a2.782,2.782,0,0,1,2.065-1.622l5.383-.949,6.85-1.208,5.206,1.907-4.239,3.573-6.85,1.207-5.384.95A2.786,2.786,0,0,1,570.761,385.272Z" fill="#2176c4"/>
      </g>
      <g id="Group_416" data-name="Group 416" transform="translate(-429.289 -339.622)">
        <path id="Path_443" data-name="Path 443" d="M576.354,369.14h0a2.782,2.782,0,0,1,1.543-2.673h0a2.783,2.783,0,0,1,2.624.085l4.735,2.733,6.023,3.478,2.762,4.807-5.544.012-6.024-3.478-4.734-2.733A2.783,2.783,0,0,1,576.354,369.14Z" fill="#ee4853"/>
      </g>
      <g id="Group_417" data-name="Group 417" transform="translate(-429.289 -339.622)">
        <path id="Path_444" data-name="Path 444" d="M591.007,360.378h0a2.783,2.783,0,0,1,2.9-1.056h0a2.786,2.786,0,0,1,1.956,1.752l1.869,5.137,2.379,6.536-.974,5.458-4.255-3.555-2.379-6.536-1.869-5.137A2.782,2.782,0,0,1,591.007,360.378Z" fill="#65af2c"/>
      </g>
      <g id="Group_418" data-name="Group 418" transform="translate(-429.289 -339.622)">
        <path id="Path_445" data-name="Path 445" d="M607.865,363.085h0a2.781,2.781,0,0,1,2.9,1.055h0a2.78,2.78,0,0,1,.372,2.6l-1.869,5.137-2.379,6.536-4.255,3.555-.974-5.458,2.379-6.536,1.87-5.137A2.781,2.781,0,0,1,607.865,363.085Z" fill="#2176c4"/>
      </g>
      <g id="Group_419" data-name="Group 419" transform="translate(-429.289 -339.622)">
        <path id="Path_446" data-name="Path 446" d="M619.038,375.994h0a2.782,2.782,0,0,1,1.544,2.673h0a2.782,2.782,0,0,1-1.386,2.23l-4.734,2.733-6.024,3.478-5.544-.012,2.762-4.807,6.024-3.478,4.734-2.733A2.78,2.78,0,0,1,619.038,375.994Z" fill="#ee4853"/>
      </g>
      <g id="Group_420" data-name="Group 420" transform="translate(-429.289 -339.622)">
        <path id="Path_447" data-name="Path 447" d="M619.3,393.065h0a2.783,2.783,0,0,1-.536,3.04h0a2.785,2.785,0,0,1-2.495.818l-5.383-.95-6.85-1.207-4.24-3.573L605,389.286l6.85,1.207,5.384.95A2.78,2.78,0,0,1,619.3,393.065Z" fill="#65af2c"/>
      </g>
      <g id="Group_421" data-name="Group 421" transform="translate(-429.289 -339.622)">
        <path id="Path_448" data-name="Path 448" d="M608.528,406.31h0a2.784,2.784,0,0,1-2.365,1.983h0a2.784,2.784,0,0,1-2.437-.977l-3.514-4.188-4.471-5.328-.951-5.462L600,394.225l4.471,5.328,3.514,4.188A2.782,2.782,0,0,1,608.528,406.31Z" fill="#2176c4"/>
      </g>
      <g id="Group_422" data-name="Group 422" transform="translate(-429.289 -339.622)">
        <path id="Path_449" data-name="Path 449" d="M591.761,409.533h0a2.781,2.781,0,0,1-3.086,0h0a2.782,2.782,0,0,1-1.238-2.315V394.8l2.782-4.8L593,394.8v12.422A2.783,2.783,0,0,1,591.761,409.533Z" fill="#ee4853"/>
      </g>
    </g>
  </g>
</svg>
