<svg xmlns="http://www.w3.org/2000/svg" width="367.406" height="33.405" viewBox="0 0 367.406 33.405">
  <g id="cards" transform="translate(-5653.692 -746)">
    <g id="Group_410" data-name="Group 410" transform="translate(5858.458 746)">
      <g id="Group_406" data-name="Group 406" transform="translate(0 16.82)">
        <path id="Path_466" data-name="Path 466" d="M9.044,16.408a3.507,3.507,0,0,0-2.252-.662c-1.06,0-1.987.265-1.987,1.324,0,1.987,3.973,1.324,3.973,5.563,0,3.973-2.516,4.9-4.9,4.9A8.647,8.647,0,0,1,.7,26.739l.662-2.914a3.819,3.819,0,0,0,2.516.795C4.673,24.62,6,24.355,6,22.9c0-2.252-3.973-1.457-3.973-5.43,0-3.708,2.252-4.768,4.5-4.768a5.211,5.211,0,0,1,3.046.662Z" transform="translate(-0.7 -12.7)" fill="#f6a800"/>
        <path id="Path_467" data-name="Path 467" d="M14.684,26.39a9.412,9.412,0,0,1-2.781.4c-2.914,0-4.5-1.722-4.5-5.033C7.4,17.914,9.387,15,12.036,15c2.252,0,3.576,1.589,3.576,4.106a27.315,27.315,0,0,1-.265,2.781h-5.3v.4q0,1.987,2.384,1.987a7.118,7.118,0,0,0,2.781-.662Zm-1.457-6.755v-.53c0-.927-.53-1.457-1.192-1.457-.795,0-1.457.795-1.722,1.987Z" transform="translate(1.474 -11.954)" fill="#f6a800"/>
        <path id="Path_468" data-name="Path 468" d="M20.292,26.39a5.534,5.534,0,0,1-2.384.4c-2.384,0-3.708-2.384-3.708-5.165C14.2,17.914,16.319,15,19.365,15a5.044,5.044,0,0,1,2.516.795l-.53,2.649a3.118,3.118,0,0,0-1.722-.662c-1.457,0-2.384,1.324-2.384,3.576A2.14,2.14,0,0,0,19.1,23.741a2.662,2.662,0,0,0,1.722-.53Z" transform="translate(3.68 -11.954)" fill="#f6a800"/>
        <path id="Path_469" data-name="Path 469" d="M28.312,23.444c-.132.927-.265,1.987-.4,2.914H25.4l.265-1.854h0c-.795,1.192-1.589,2.119-3.046,2.119-1.589,0-2.516-1.722-2.516-3.841a8.631,8.631,0,0,1,.265-2.384l.662-5.3h2.781l-.795,5.3a7.552,7.552,0,0,0-.132,1.722c0,.662.265,1.324,1.06,1.324,1.192,0,1.854-1.457,1.987-3.046l.795-5.165H29.5Z" transform="translate(5.594 -11.921)" fill="#f6a800"/>
        <path id="Path_470" data-name="Path 470" d="M33.225,15.1H32.96c-.927,0-1.324.53-2.119,1.854l.265-1.722H28.722L27,26.49h2.649c.927-6.887,1.192-8.079,2.516-8.079H32.3a16.742,16.742,0,0,1,.927-3.311Z" transform="translate(7.833 -11.921)" fill="#f6a800"/>
        <path id="Path_471" data-name="Path 471" d="M38.484,26.39a9.412,9.412,0,0,1-2.781.4c-2.914,0-4.5-1.722-4.5-5.033C31.2,17.914,33.187,15,35.836,15c2.252,0,3.576,1.589,3.576,4.106a12.641,12.641,0,0,1-.4,2.781h-5.3v.4q0,1.987,2.384,1.987a7.118,7.118,0,0,0,2.781-.662Zm-1.457-6.755v-.53c0-.927-.53-1.457-1.192-1.457-.795,0-1.457.795-1.722,1.987Z" transform="translate(9.195 -11.954)" fill="#f6a800"/>
        <path id="Path_472" data-name="Path 472" d="M47.141,13.662l-.4,3.046a4.622,4.622,0,0,0-2.384-.795c-1.987,0-3.311,2.119-3.311,5.165,0,2.119.927,3.444,2.516,3.444a5.968,5.968,0,0,0,2.252-.662l-.4,3.179a8.151,8.151,0,0,1-2.384.4c-2.914,0-4.636-2.252-4.636-5.96C38.4,16.444,40.916,13,44.36,13a3.667,3.667,0,0,1,1.192.132l1.06.265C46.744,13.53,46.876,13.53,47.141,13.662Z" transform="translate(11.531 -12.603)" fill="#f6a800"/>
        <path id="Path_473" data-name="Path 473" d="M50.525,20c0,2.516-.795,4.106-1.987,4.106-.927,0-1.457-.927-1.457-2.516,0-1.854.795-3.841,2.119-3.841C50.26,17.749,50.525,18.808,50.525,20Zm2.914.132c0-2.914-1.457-5.033-4.106-5.033-3.046,0-5.033,2.649-5.033,6.755,0,2.914,1.192,5.165,4.106,5.165C51.32,26.888,53.439,24.768,53.439,20.133Z" transform="translate(13.446 -11.921)" fill="#f6a800"/>
        <path id="Path_474" data-name="Path 474" d="M59.879,27.007H57.363l.132-1.06a3.026,3.026,0,0,1-2.516,1.324c-1.987,0-3.179-1.854-3.179-4.768,0-3.708,1.987-7.02,4.371-7.02a2.865,2.865,0,0,1,2.516,1.589l.53-3.973h2.649Zm-3.973-2.649c1.192,0,2.119-1.589,2.119-3.841,0-1.457-.53-2.252-1.457-2.252-1.192,0-2.119,1.589-2.119,3.841C54.581,23.7,54.979,24.358,55.906,24.358Z" transform="translate(15.879 -12.57)" fill="#f6a800"/>
        <path id="Path_475" data-name="Path 475" d="M66.484,26.39a9.412,9.412,0,0,1-2.781.4c-2.914,0-4.5-1.722-4.5-5.033C59.2,17.914,61.187,15,63.836,15c2.252,0,3.576,1.589,3.576,4.106a27.316,27.316,0,0,1-.265,2.781h-5.3v.4q0,1.987,2.384,1.987a7.118,7.118,0,0,0,2.781-.662Zm-1.457-6.755v-.53c0-.927-.53-1.457-1.192-1.457-.795,0-1.457.795-1.722,1.987Z" transform="translate(18.28 -11.954)" fill="#f6a800"/>
        <path id="Path_476" data-name="Path 476" d="M66.96,24.152h-.4V22.3H65.9v-.4h1.722v.4H66.96Zm2.914,0h-.4V22.3h0l-.4,1.854h-.4l-.4-1.854h0v1.854h-.4V21.9h.662l.4,1.854h0l.4-1.854h.662v2.252Z" transform="translate(20.453 -9.715)" fill="#f6a800"/>
      </g>
      <g id="Group_407" data-name="Group 407" transform="translate(0.662 0)">
        <path id="Path_477" data-name="Path 477" d="M12.59,14.239H9.676L11.266,3.511,7.69,14.239H5.7L5.571,3.511,3.849,14.239H1.2L3.319.2H7.425l.132,8.609L10.339.2h4.371Z" transform="translate(-1.2 0.065)" fill="#e2001a"/>
        <path id="Path_478" data-name="Path 478" d="M16.76,8.49H16.1c-1.589,0-2.384.53-2.384,1.722a1.082,1.082,0,0,0,1.06,1.192C15.833,11.4,16.628,10.212,16.76,8.49Zm1.987,5.165H16.363V12.463a3.409,3.409,0,0,1-2.914,1.324A2.765,2.765,0,0,1,10.8,10.741c0-2.781,1.854-4.371,5.033-4.371a4.086,4.086,0,0,1,1.192.132,1.968,1.968,0,0,0,.132-.795c0-.795-.53-1.06-1.854-1.06a13.123,13.123,0,0,0-2.384.265l-.4.132-.132.132.4-2.516A8.165,8.165,0,0,1,16.1,2c2.384,0,3.708,1.192,3.708,3.311a9.36,9.36,0,0,1-.265,2.252l-.53,3.973v.795l-.132.53v.4Z" transform="translate(1.915 0.649)" fill="#e2001a"/>
        <path id="Path_479" data-name="Path 479" d="M18.66,5.841A3.37,3.37,0,0,0,20.779,9.02c1.192.53,1.324.795,1.324,1.192,0,.795-.53,1.06-1.589,1.06a9,9,0,0,1-2.516-.4l-.4,2.649h.132l.53.132a4.683,4.683,0,0,0,.795.132c.662,0,1.192.132,1.589.132,3.046,0,4.371-1.192,4.371-3.841A3.036,3.036,0,0,0,23.03,6.9c-1.192-.53-1.324-.662-1.324-1.192,0-.662.53-.927,1.324-.927a10.707,10.707,0,0,1,1.987.132l.4-2.649A18.1,18.1,0,0,0,22.9,2C19.719,2,18.66,3.722,18.66,5.841Z" transform="translate(4.121 0.649)" fill="#e2001a"/>
        <path id="Path_480" data-name="Path 480" d="M27.838,13.747a5.871,5.871,0,0,1-1.987.4c-1.457,0-2.252-.927-2.252-2.516a3.291,3.291,0,0,1,.132-1.06l.132-1.06L24,8.582,25.189.9H28.1l-.265,1.722H29.3L28.9,5.4H27.441l-.795,4.768v.53c0,.53.265.795.927.795a1.68,1.68,0,0,0,.795-.132Z" transform="translate(6.067 0.292)" fill="#e2001a"/>
        <path id="Path_481" data-name="Path 481" d="M35.482,13.39a10.329,10.329,0,0,1-2.914.4c-3.179,0-4.768-1.722-4.768-5.033C27.8,4.914,29.919,2,32.833,2c2.384,0,3.841,1.589,3.841,4.106a12.642,12.642,0,0,1-.4,2.781h-5.7v.4c0,1.324.795,1.987,2.516,1.987a7.218,7.218,0,0,0,2.914-.662ZM33.892,6.636v-.53a1.291,1.291,0,0,0-1.324-1.457c-.927,0-1.589.662-1.854,1.987Z" transform="translate(7.43 0.649)" fill="#e2001a"/>
        <path id="Path_482" data-name="Path 482" d="M41.322,2.1h-.265c-.927,0-1.457.53-2.384,1.854l.265-1.722H36.422L34.7,13.623h2.914c1.06-6.887,1.324-8.079,2.649-8.079h.265A8.252,8.252,0,0,1,41.322,2.1Z" transform="translate(9.669 0.681)" fill="#e2001a"/>
        <path id="Path_483" data-name="Path 483" d="M49.168.662l-.53,3.046a5.464,5.464,0,0,0-2.516-.795c-2.119,0-3.576,2.119-3.576,5.165,0,2.119,1.06,3.444,2.649,3.444a6.523,6.523,0,0,0,2.384-.662l-.53,3.179a9.783,9.783,0,0,1-2.516.4c-3.046,0-5.033-2.252-5.033-5.96C39.5,3.444,42.149,0,45.857,0a4.083,4.083,0,0,1,1.324.132L48.374.4C48.771.53,48.9.662,49.168.662Z" transform="translate(11.226 0)" fill="#e2001a"/>
        <path id="Path_484" data-name="Path 484" d="M51.928,8.49h-.662c-1.589,0-2.384.53-2.384,1.722a1.082,1.082,0,0,0,1.06,1.192C51,11.4,51.928,10.212,51.928,8.49Zm2.119,5.165H51.663V12.463a3.409,3.409,0,0,1-2.914,1.324A2.765,2.765,0,0,1,46.1,10.741c0-2.781,1.854-4.371,5.033-4.371a4.086,4.086,0,0,1,1.192.132,1.969,1.969,0,0,0,.132-.795c0-.795-.53-1.06-1.854-1.06a13.123,13.123,0,0,0-2.384.265l-.4.132-.265.132.4-2.516A9.191,9.191,0,0,1,51.4,2c2.384,0,3.708,1.192,3.708,3.311a9.36,9.36,0,0,1-.265,2.252l-.662,3.973-.132.662-.132.53v.4Z" transform="translate(13.367 0.649)" fill="#e2001a"/>
        <path id="Path_485" data-name="Path 485" d="M59.755,2.1H59.49c-.927,0-1.457.53-2.384,1.854l.265-1.722H54.854L53,13.623h2.781c1.06-6.887,1.324-8.079,2.649-8.079H58.7A15.232,15.232,0,0,1,59.755,2.1Z" transform="translate(15.606 0.681)" fill="#e2001a"/>
        <path id="Path_486" data-name="Path 486" d="M66.009,14.239H63.36l.132-1.192a3.257,3.257,0,0,1-2.649,1.324c-2.119,0-3.444-1.854-3.444-4.768,0-3.708,2.119-7.02,4.636-7.02a3.437,3.437,0,0,1,2.781,1.589L65.479.2H68.26Zm-4.238-2.781c1.324,0,2.252-1.589,2.252-3.841,0-1.457-.53-2.252-1.457-2.252-1.324,0-2.252,1.589-2.252,3.841C60.314,10.8,60.844,11.458,61.771,11.458Z" transform="translate(17.033 0.065)" fill="#e2001a"/>
        <path id="Path_487" data-name="Path 487" d="M65.1,9.922a1.722,1.722,0,1,1,1.722,1.722A1.6,1.6,0,0,1,65.1,9.922Zm1.722,1.324a1.424,1.424,0,0,0,1.324-1.324A1.251,1.251,0,0,0,66.822,8.6,1.424,1.424,0,0,0,65.5,9.922,1.327,1.327,0,0,0,66.822,11.246Zm-.265-.53h-.265V9.127h.662a.468.468,0,0,1,.53.53c0,.132-.132.4-.265.4l.265.662h-.4l-.265-.662h-.265v.662Zm0-.927h.4l.132-.132a.13.13,0,0,0-.132-.132h-.4Z" transform="translate(19.532 2.66)" fill="#e2001a"/>
      </g>
    </g>
    <g id="Group_409" data-name="Group 409" transform="translate(5722.654 746.956)">
      <path id="Path_499" data-name="Path 499" d="M48.21,31.787H2.649A2.657,2.657,0,0,1,0,29.138V2.649A2.657,2.657,0,0,1,2.649,0H48.21a2.657,2.657,0,0,1,2.649,2.649V29.138A2.657,2.657,0,0,1,48.21,31.787Z" fill="#005a9b" fill-rule="evenodd"/>
      <path id="Path_500" data-name="Path 500" d="M11.2,15.356a34.335,34.335,0,0,1,21.059-2.119l.132-2.384C22.723,9.794,15.836,12.84,11.2,15.091v.265Z" transform="translate(3.634 3.451)" fill="#faa929" fill-rule="evenodd"/>
      <path id="Path_501" data-name="Path 501" d="M4.5,15.5H9.136v1.457H6.222v1.324H9.136v1.324H6.222V20.93H9.136v1.324H4.5Z" transform="translate(1.46 5.029)" fill="#fff" fill-rule="evenodd"/>
      <path id="Path_502" data-name="Path 502" d="M8.9,15.1h1.722v7.284H8.9Z" transform="translate(2.888 4.899)" fill="#fff" fill-rule="evenodd"/>
      <path id="Path_503" data-name="Path 503" d="M15.8,21.3a3.342,3.342,0,0,1-2.252.795A2.543,2.543,0,0,1,10.9,19.581,2.685,2.685,0,0,1,13.549,16.8c1.854,0,2.516,1.324,2.516,3.046H12.622a1.074,1.074,0,0,0,1.192,1.06,1.7,1.7,0,0,0,1.324-.53l.662.927Zm-1.324-2.516c0-.53-.265-.927-.795-.927a1.283,1.283,0,0,0-1.06.927Z" transform="translate(3.536 5.451)" fill="#fff" fill-rule="evenodd"/>
      <path id="Path_504" data-name="Path 504" d="M19.8,21.568a4.311,4.311,0,0,1-1.854.53A2.4,2.4,0,0,1,15.3,19.581,2.641,2.641,0,0,1,18.081,16.8a3.666,3.666,0,0,1,1.722.4l-.53,1.06a1.68,1.68,0,0,0-.795-.132,1.361,1.361,0,0,0-1.457,1.324,1.223,1.223,0,0,0,1.324,1.192,2.455,2.455,0,0,0,.927-.265l.53,1.192Z" transform="translate(4.964 5.451)" fill="#fff" fill-rule="evenodd"/>
      <path id="Path_505" data-name="Path 505" d="M19.1,17.322h.795V15.6h1.589v1.722h1.457v1.192H21.484v1.854c0,.4.132.662.53.662.265,0,.4-.132.662-.265l.4,1.192a3.756,3.756,0,0,1-1.722.53c-1.324,0-1.457-.927-1.457-1.987V18.646H19.1V17.322Z" transform="translate(6.197 5.061)" fill="#fff" fill-rule="evenodd"/>
      <path id="Path_506" data-name="Path 506" d="M22.665,16.932h1.722v.662h0a1.341,1.341,0,0,1,1.192-.795h.53l-.265,1.722a5.736,5.736,0,0,0-.662-.132,1.85,1.85,0,0,0-1.06.53V21.7H22.4l.265-4.768Z" transform="translate(7.267 5.451)" fill="#fff" fill-rule="evenodd"/>
      <path id="Path_507" data-name="Path 507" d="M28.281,16.8a2.539,2.539,0,0,1,2.781,2.649A2.539,2.539,0,0,1,28.281,22.1,2.539,2.539,0,0,1,25.5,19.449,2.477,2.477,0,0,1,28.281,16.8Zm0,3.973c.795,0,1.06-.662,1.06-1.324s-.265-1.324-1.06-1.324-1.06.662-1.06,1.324c0,.53.265,1.324,1.06,1.324Z" transform="translate(8.273 5.451)" fill="#fff" fill-rule="evenodd"/>
      <path id="Path_508" data-name="Path 508" d="M30.332,16.932h1.722v.53a2.193,2.193,0,0,1,1.589-.662c1.06,0,1.589.53,1.589,1.854v3.179H33.511V18.919c0-.4-.132-.662-.662-.662a2.8,2.8,0,0,0-.927.4v3.179H30.2l.132-4.9Z" transform="translate(9.798 5.451)" fill="#fff" fill-rule="evenodd"/>
      <path id="Path_509" data-name="Path 509" d="M15,11.02,17.119,4h1.987l-2.119,7.02Z" transform="translate(4.867 1.298)" fill="#fff" fill-rule="evenodd"/>
      <path id="Path_510" data-name="Path 510" d="M15.892,4,14.171,7.046a9.1,9.1,0,0,0-.795,1.722h0V6.914L12.979,4H9.8v.132a1.352,1.352,0,0,1,1.457,1.324l.662,5.563h1.987L17.879,4H15.892Z" transform="translate(3.179 1.298)" fill="#fff" fill-rule="evenodd"/>
      <path id="Path_511" data-name="Path 511" d="M26.833,11.02V9.96H24.449l-.53,1.06H21.8L25.508,4h2.516l.662,7.02Zm-.265-4.238V5.06h0c-.132.4-.662,1.457-.795,1.854L25.111,8.5h1.722l-.265-1.722Z" transform="translate(7.073 1.298)" fill="#fff" fill-rule="evenodd"/>
      <path id="Path_512" data-name="Path 512" d="M20.314,11.217a5.465,5.465,0,0,1-2.914-.795L18.327,9.1a4,4,0,0,0,2.119.662.8.8,0,0,0,.795-.4c.265-.4,0-.662-.795-1.192l-.4-.132c-1.06-.795-1.589-1.457-1.06-2.781A2.712,2.712,0,0,1,21.638,3.8a4.363,4.363,0,0,1,2.516.795L23.1,5.787a2.415,2.415,0,0,0-1.457-.662.8.8,0,0,0-.795.4c-.265.4,0,.662.662,1.06l.4.265c1.324.795,1.722,1.722,1.324,2.516a2.736,2.736,0,0,1-2.914,1.854Z" transform="translate(5.645 1.233)" fill="#fff" fill-rule="evenodd"/>
    </g>
    <g id="Group_411" data-name="Group 411" transform="translate(5964.899 746)">
      <path id="Path_513" data-name="Path 513" d="M38.287,16.079c-.132.662-.132,1.192-.265,1.854A4.514,4.514,0,0,0,35.9,17.4c-.53,0-1.192.265-1.192.662,0,.53.795.795,1.324,1.06a2.774,2.774,0,0,1,1.854,2.119,3.035,3.035,0,0,1-.795,1.987c-1.192,1.192-3.841,1.192-5.7.53a8.943,8.943,0,0,0,.265-1.854,5.8,5.8,0,0,0,2.781.53c.53,0,1.06-.4,1.06-.795,0-.662-1.192-.927-1.722-1.324-.662-.4-1.457-.927-1.457-1.854a2.84,2.84,0,0,1,.53-1.589C33.916,15.814,36.3,15.417,38.287,16.079Z" transform="translate(9.79 5.112)" fill="#344f9a" fill-rule="evenodd"/>
      <path id="Path_514" data-name="Path 514" d="M20.657,7.1h2.516l-1.589,9.4H19.2Z" transform="translate(5.832 2.304)" fill="#344f9a" fill-rule="evenodd"/>
      <path id="Path_515" data-name="Path 515" d="M14.324,7.1h3.708c2.384,0,2.914,1.324,2.781,3.046A3.1,3.1,0,0,1,18.3,12.663L20.682,16.5H17.636L15.914,12.8l-.53,3.708H13l1.324-9.4Zm2.119,1.854-.4,2.384h.662a1.552,1.552,0,0,0,1.457-1.192h0a1.014,1.014,0,0,0-1.06-1.192h-.662Z" transform="translate(3.821 2.304)" fill="#344f9a" fill-rule="evenodd"/>
      <path id="Path_516" data-name="Path 516" d="M29.057,7.1h2.384l-1.457,9.4H27.6Z" transform="translate(8.557 2.304)" fill="#344f9a" fill-rule="evenodd"/>
      <path id="Path_517" data-name="Path 517" d="M32.257,7.1h5.3L37.29,9.087H34.376l-.265,1.589h2.781L36.5,12.8H33.846l-.265,1.589H36.5L36.1,16.5H30.8Z" transform="translate(9.596 2.304)" fill="#344f9a" fill-rule="evenodd"/>
      <path id="Path_518" data-name="Path 518" d="M9.257,7.1h5.3L14.29,9.087H11.376l-.265,1.589h2.781L13.5,12.8H10.714l-.265,1.589h2.914L13.1,16.5H7.8Z" transform="translate(2.134 2.304)" fill="#344f9a" fill-rule="evenodd"/>
      <path id="Path_519" data-name="Path 519" d="M23.989,7.1h5.3l-.265,1.987H25.976l-.265,1.589h2.781L28.1,12.8H25.446l-.53,3.708H22.4Z" transform="translate(6.87 2.304)" fill="#344f9a" fill-rule="evenodd"/>
      <path id="Path_520" data-name="Path 520" d="M37.357,7.1h3.179c3.708,0,4.636,2.781,4.371,4.768A5.657,5.657,0,0,1,39.079,16.5H35.9l1.457-9.4Zm2.119,1.987h.53A2.182,2.182,0,0,1,42.39,11.6a3.024,3.024,0,0,1-3.046,2.781h-.662l.795-5.3Z" transform="translate(11.25 2.304)" fill="#344f9a" fill-rule="evenodd"/>
      <path id="Path_521" data-name="Path 521" d="M.3,8.079H4.8l.53,6.887C8.247,9.8,11.293,4.9,14.339,0H15.8c-3.179,6.225-6.357,12.45-9.4,18.807H3.081l-.795-7.549C2.022,9.4,1.757,8.609.3,8.344V8.079Z" transform="translate(-0.3)" fill="#344f9a" fill-rule="evenodd"/>
      <path id="Path_522" data-name="Path 522" d="M1.6,3.265,5.441,4.854l.265,4.238h.4L9.547,3.265V3H1.6Z" transform="translate(0.122 0.973)" fill="#f39900" fill-rule="evenodd"/>
      <path id="Path_523" data-name="Path 523" d="M15.646,20.436a1.07,1.07,0,0,1,.927,1.192,1.4,1.4,0,0,1-1.192,1.192,1.07,1.07,0,0,1-.927-1.192,1.4,1.4,0,0,1,1.192-1.192ZM13.792,15.8h1.589l-.53,3.708a2.444,2.444,0,0,1,1.589-.662c1.324,0,2.119,1.192,1.854,2.649a3.079,3.079,0,0,1-2.649,2.649,1.33,1.33,0,0,1-1.324-.795l-.132.53H12.6L13.792,15.8Z" transform="translate(3.691 5.126)" fill="#344f9a" fill-rule="evenodd"/>
      <path id="Path_524" data-name="Path 524" d="M17.1,18.2h1.854l.795,2.649L21.468,18.2H23.19l-4.768,7.682H16.7L18.687,22.7Z" transform="translate(5.021 5.905)" fill="#344f9a" fill-rule="evenodd"/>
      <path id="Path_525" data-name="Path 525" d="M28.7,24.144,30.024,15.8h2.252l-1.324,8.344Z" transform="translate(8.914 5.126)" fill="#344f9a" fill-rule="evenodd"/>
      <path id="Path_526" data-name="Path 526" d="M28.663,15.8c-.795,1.854-1.457,3.708-2.252,5.563l-.265-1.06h0v.132a8.9,8.9,0,0,0-.795-1.589h0l-.265-.265-.132-.132A6.441,6.441,0,0,0,23.1,16.992l1.987,7.152h2.384c1.192-2.781,2.384-5.43,3.576-8.212A14.4,14.4,0,0,0,28.663,15.8Z" transform="translate(7.097 5.126)" fill="#344f9a" fill-rule="evenodd"/>
      <path id="Path_527" data-name="Path 527" d="M25.008,15.8H21.3v.265a7.932,7.932,0,0,1,5.563,4.5l-.795-3.841A1.1,1.1,0,0,0,25.008,15.8Z" transform="translate(6.513 5.126)" fill="#f39900" fill-rule="evenodd"/>
      <path id="Path_528" data-name="Path 528" d="M44.279,24.112H42.16c-.132-.4-.132-.927-.265-1.324H39.114l-.53,1.324H36.2l3.046-7.02a5.758,5.758,0,0,1,.53-.927c.132-.265.795-.265,1.06-.265h1.722Zm-3.311-5.96L39.776,21.2H41.63Z" transform="translate(11.348 5.159)" fill="#344f9a" fill-rule="evenodd"/>
    </g>
    <g id="Group_115" data-name="Group 115" transform="translate(5653.692 746.293)">
      <rect id="Rectangle_200" data-name="Rectangle 200" width="52.979" height="33.112" rx="2" transform="translate(0)" fill="#f3f3f4"/>
      <path id="Rectangle_201" data-name="Rectangle 201" d="M2,0H50.979a2,2,0,0,1,2,2V6.622a0,0,0,0,1,0,0H0a0,0,0,0,1,0,0V2A2,2,0,0,1,2,0Z" transform="translate(0)" fill="#344f9a"/>
      <path id="Rectangle_202" data-name="Rectangle 202" d="M0,0H52.979a0,0,0,0,1,0,0V4.622a2,2,0,0,1-2,2H2a2,2,0,0,1-2-2V0A0,0,0,0,1,0,0Z" transform="translate(0 26.489)" fill="#ff9e16"/>
      <g id="card-visa" transform="translate(8.336 10.6)">
        <path id="Path_828" d="M12.675,6.087l-2.87,7.749-.287-1.579A8.422,8.422,0,0,0,5.5,7.666l2.583,9.9H11.24L15.832,6.231l-3.157-.144Zm2.44,11.48L16.98,6.087h2.87l-1.866,11.48ZM28.892,6.374A5.824,5.824,0,0,0,26.165,5.8c-2.87,0-4.879,1.579-4.879,3.731,0,1.579,1.579,2.583,2.583,3.157,1.148.574,1.579.861,1.579,1.435,0,.718-.861,1.148-1.722,1.148A5.824,5.824,0,0,1,21,14.7l-.431-.144-.431,2.583a8.42,8.42,0,0,0,3.3.574c3.157,0,5.023-1.579,5.166-3.875,0-1.435-.718-2.3-2.44-3.157-1.148-.574-1.722-.861-1.722-1.435s.574-1,1.579-1a4.544,4.544,0,0,1,2.3.574l.144.144Zm7.462-.287h-2.3a1.547,1.547,0,0,0-1.579.861L28.174,17.28h3.157c.144-.574.431-1.148.574-1.579h3.731c.144.431.431,1.579.431,1.579h2.727Zm-3.731,7.319c.287-.574,1.148-3.157,1.148-3.157a9.556,9.556,0,0,0,.431-1l.144,1s.574,2.727.718,3.3a13.13,13.13,0,0,0-2.44-.144Z" transform="translate(-2.486 -5.8)" fill="#344f9a"/>
        <path id="Path_829" d="M7.992,6H3.4v.287a9.641,9.641,0,0,1,7.032,6.027L9.427,7A1.426,1.426,0,0,0,7.992,6Z" transform="translate(-3.4 -5.713)" fill="#ff9e16"/>
      </g>
    </g>
    <g id="Group_114" data-name="Group 114" transform="translate(5789.495 746.293)">
      <rect id="Rectangle_204" data-name="Rectangle 204" width="52.979" height="33.112" rx="2" fill="#1a305d"/>
      <g id="Group_107" data-name="Group 107" transform="translate(12.805 8.097)">
        <g id="Layer_1-2" transform="translate(0)">
          <g id="_Group_">
            <rect id="Rectangle_198" data-name="Rectangle 198" width="7.379" height="13.261" transform="translate(9.938 1.81)" fill="#ff5f00"/>
            <path id="_Path_" d="M13.68,10.548a8.466,8.466,0,0,1,3.208-6.631A8.451,8.451,0,0,0,6.408,17.179a8.365,8.365,0,0,0,10.481,0A8.466,8.466,0,0,1,13.68,10.548Z" transform="translate(-3.207 -2.107)" fill="#eb001b"/>
            <path id="Path_160" data-name="Path 160" d="M29.689,10.548A8.452,8.452,0,0,1,16,17.179,8.451,8.451,0,0,0,16,3.918a8.448,8.448,0,0,1,13.689,6.631Z" transform="translate(-2.319 -2.107)" fill="#f79e1b"/>
            <path id="Path_161" data-name="Path 161" d="M28.014,14.928v-.321h.107V14.5H27.8v.107h.214v.321Zm.535,0v-.321h-.107l-.107.214-.107-.214h-.107v.321h.107v-.214l.107.214h.107l.107-.214v.214Z" transform="translate(-1.499 -1.246)" fill="#f79e1b"/>
          </g>
        </g>
      </g>
    </g>
  </g>
</svg>
