<svg xmlns="http://www.w3.org/2000/svg" width="694.109" height="467.163" viewBox="0 0 694.109 467.163">
  <g id="Group_530" data-name="Group 530" transform="translate(-541.317 -157.837)">
    <g id="Ellipse_75" data-name="Ellipse 75" transform="translate(595 291)" fill="none" stroke="#144a89" stroke-width="21">
      <circle cx="167" cy="167" r="167" stroke="none"/>
      <circle cx="167" cy="167" r="156.5" fill="none"/>
    </g>
    <g id="Group_453" data-name="Group 453" transform="translate(587.242 -9.272)">
      <g id="Group_445" data-name="Group 445" transform="translate(481.507 535.554)">
        <path id="Path_459" data-name="Path 459" d="M459.547,435.532a4.9,4.9,0,1,1-4.9-4.9A4.9,4.9,0,0,1,459.547,435.532Z" transform="translate(-449.744 -430.629)" fill="#216ebc"/>
        <path id="Path_460" data-name="Path 460" d="M475.04,435.532a4.9,4.9,0,1,1-4.9-4.9A4.9,4.9,0,0,1,475.04,435.532Z" transform="translate(-433.862 -430.629)" fill="#216ebc"/>
        <path id="Path_461" data-name="Path 461" d="M490.533,435.532a4.9,4.9,0,1,1-4.9-4.9A4.9,4.9,0,0,1,490.533,435.532Z" transform="translate(-417.981 -430.629)" fill="#216ebc"/>
        <path id="Path_462" data-name="Path 462" d="M506.028,435.532a4.9,4.9,0,1,1-4.9-4.9A4.9,4.9,0,0,1,506.028,435.532Z" transform="translate(-402.1 -430.629)" fill="#216ebc"/>
      </g>
      <g id="Group_446" data-name="Group 446" transform="translate(450.133 505.941)">
        <path id="Path_463" data-name="Path 463" d="M444.056,420.909a4.9,4.9,0,1,1-4.9-4.9A4.9,4.9,0,0,1,444.056,420.909Z" transform="translate(-434.251 -416.006)" fill="#216ebc"/>
        <path id="Path_464" data-name="Path 464" d="M459.547,420.909a4.9,4.9,0,1,1-4.9-4.9A4.9,4.9,0,0,1,459.547,420.909Z" transform="translate(-418.369 -416.006)" fill="#216ebc"/>
        <path id="Path_465" data-name="Path 465" d="M475.04,420.909a4.9,4.9,0,1,1-4.9-4.9A4.9,4.9,0,0,1,475.04,420.909Z" transform="translate(-402.488 -416.006)" fill="#216ebc"/>
        <path id="Path_466" data-name="Path 466" d="M490.533,420.909a4.9,4.9,0,1,1-4.9-4.9A4.9,4.9,0,0,1,490.533,420.909Z" transform="translate(-386.606 -416.006)" fill="#216ebc"/>
        <path id="Path_467" data-name="Path 467" d="M506.028,420.909a4.9,4.9,0,1,1-4.9-4.9A4.9,4.9,0,0,1,506.028,420.909Z" transform="translate(-370.726 -416.006)" fill="#216ebc"/>
        <path id="Path_468" data-name="Path 468" d="M521.521,420.909a4.9,4.9,0,1,1-4.9-4.9A4.9,4.9,0,0,1,521.521,420.909Z" transform="translate(-354.844 -416.006)" fill="#216ebc"/>
      </g>
      <g id="Group_447" data-name="Group 447" transform="translate(450.133 476.33)">
        <path id="Path_469" data-name="Path 469" d="M444.056,406.287a4.9,4.9,0,1,1-4.9-4.9A4.9,4.9,0,0,1,444.056,406.287Z" transform="translate(-434.251 -401.384)" fill="#216ebc"/>
        <path id="Path_470" data-name="Path 470" d="M459.547,406.287a4.9,4.9,0,1,1-4.9-4.9A4.9,4.9,0,0,1,459.547,406.287Z" transform="translate(-418.369 -401.384)" fill="#216ebc"/>
        <path id="Path_471" data-name="Path 471" d="M475.04,406.287a4.9,4.9,0,1,1-4.9-4.9A4.9,4.9,0,0,1,475.04,406.287Z" transform="translate(-402.488 -401.384)" fill="#216ebc"/>
        <path id="Path_472" data-name="Path 472" d="M490.533,406.287a4.9,4.9,0,1,1-4.9-4.9A4.9,4.9,0,0,1,490.533,406.287Z" transform="translate(-386.606 -401.384)" fill="#216ebc"/>
        <path id="Path_473" data-name="Path 473" d="M506.028,406.287a4.9,4.9,0,1,1-4.9-4.9A4.9,4.9,0,0,1,506.028,406.287Z" transform="translate(-370.726 -401.384)" fill="#216ebc"/>
        <path id="Path_474" data-name="Path 474" d="M521.521,406.287a4.9,4.9,0,1,1-4.9-4.9A4.9,4.9,0,0,1,521.521,406.287Z" transform="translate(-354.844 -401.384)" fill="#216ebc"/>
      </g>
      <g id="Group_448" data-name="Group 448" transform="translate(418.758 446.718)">
        <circle id="Ellipse_83" data-name="Ellipse 83" cx="4.902" cy="4.902" r="4.902" fill="#216ebc"/>
        <path id="Path_475" data-name="Path 475" d="M444.056,391.663a4.9,4.9,0,1,1-4.9-4.9A4.9,4.9,0,0,1,444.056,391.663Z" transform="translate(-402.877 -386.761)" fill="#216ebc"/>
        <path id="Path_476" data-name="Path 476" d="M459.547,391.663a4.9,4.9,0,1,1-4.9-4.9A4.9,4.9,0,0,1,459.547,391.663Z" transform="translate(-386.995 -386.761)" fill="#216ebc"/>
        <path id="Path_477" data-name="Path 477" d="M475.04,391.663a4.9,4.9,0,1,1-4.9-4.9A4.9,4.9,0,0,1,475.04,391.663Z" transform="translate(-371.113 -386.761)" fill="#216ebc"/>
        <path id="Path_478" data-name="Path 478" d="M490.533,391.663a4.9,4.9,0,1,1-4.9-4.9A4.9,4.9,0,0,1,490.533,391.663Z" transform="translate(-355.232 -386.761)" fill="#216ebc"/>
        <circle id="Ellipse_84" data-name="Ellipse 84" cx="4.902" cy="4.902" r="4.902" transform="translate(156.872)" fill="#216ebc"/>
        <path id="Path_479" data-name="Path 479" d="M521.521,391.663a4.9,4.9,0,1,1-4.9-4.9A4.9,4.9,0,0,1,521.521,391.663Z" transform="translate(-323.469 -386.761)" fill="#216ebc"/>
        <path id="Path_480" data-name="Path 480" d="M537.013,391.663a4.9,4.9,0,1,1-4.9-4.9A4.9,4.9,0,0,1,537.013,391.663Z" transform="translate(-307.588 -386.761)" fill="#216ebc"/>
      </g>
      <g id="Group_449" data-name="Group 449" transform="translate(418.758 417.106)">
        <path id="Path_481" data-name="Path 481" d="M428.563,377.042a4.9,4.9,0,1,1-4.9-4.9A4.9,4.9,0,0,1,428.563,377.042Z" transform="translate(-418.758 -372.139)" fill="#216ebc"/>
        <path id="Path_482" data-name="Path 482" d="M444.056,377.042a4.9,4.9,0,1,1-4.9-4.9A4.9,4.9,0,0,1,444.056,377.042Z" transform="translate(-402.876 -372.139)" fill="#216ebc"/>
        <path id="Path_483" data-name="Path 483" d="M459.547,377.042a4.9,4.9,0,1,1-4.9-4.9A4.9,4.9,0,0,1,459.547,377.042Z" transform="translate(-386.995 -372.139)" fill="#216ebc"/>
        <path id="Path_484" data-name="Path 484" d="M475.04,377.042a4.9,4.9,0,1,1-4.9-4.9A4.9,4.9,0,0,1,475.04,377.042Z" transform="translate(-371.113 -372.139)" fill="#216ebc"/>
        <path id="Path_485" data-name="Path 485" d="M490.533,377.042a4.9,4.9,0,1,1-4.9-4.9A4.9,4.9,0,0,1,490.533,377.042Z" transform="translate(-355.231 -372.139)" fill="#216ebc"/>
        <path id="Path_486" data-name="Path 486" d="M506.028,377.042a4.9,4.9,0,1,1-4.9-4.9A4.9,4.9,0,0,1,506.028,377.042Z" transform="translate(-339.351 -372.139)" fill="#216ebc"/>
        <path id="Path_487" data-name="Path 487" d="M521.521,377.042a4.9,4.9,0,1,1-4.9-4.9A4.9,4.9,0,0,1,521.521,377.042Z" transform="translate(-323.469 -372.139)" fill="#216ebc"/>
        <path id="Path_488" data-name="Path 488" d="M537.013,377.042a4.9,4.9,0,1,1-4.9-4.9A4.9,4.9,0,0,1,537.013,377.042Z" transform="translate(-307.588 -372.139)" fill="#216ebc"/>
      </g>
      <g id="Group_450" data-name="Group 450" transform="translate(450.133 387.496)">
        <path id="Path_489" data-name="Path 489" d="M444.056,362.42a4.9,4.9,0,1,1-4.9-4.9A4.9,4.9,0,0,1,444.056,362.42Z" transform="translate(-434.251 -357.517)" fill="#216ebc"/>
        <path id="Path_490" data-name="Path 490" d="M459.547,362.42a4.9,4.9,0,1,1-4.9-4.9A4.9,4.9,0,0,1,459.547,362.42Z" transform="translate(-418.369 -357.517)" fill="#216ebc"/>
        <path id="Path_491" data-name="Path 491" d="M475.04,362.42a4.9,4.9,0,1,1-4.9-4.9A4.9,4.9,0,0,1,475.04,362.42Z" transform="translate(-402.488 -357.517)" fill="#216ebc"/>
        <path id="Path_492" data-name="Path 492" d="M490.533,362.42a4.9,4.9,0,1,1-4.9-4.9A4.9,4.9,0,0,1,490.533,362.42Z" transform="translate(-386.606 -357.517)" fill="#216ebc"/>
        <path id="Path_493" data-name="Path 493" d="M506.028,362.42a4.9,4.9,0,1,1-4.9-4.9A4.9,4.9,0,0,1,506.028,362.42Z" transform="translate(-370.726 -357.517)" fill="#216ebc"/>
        <path id="Path_494" data-name="Path 494" d="M521.521,362.42a4.9,4.9,0,1,1-4.9-4.9A4.9,4.9,0,0,1,521.521,362.42Z" transform="translate(-354.844 -357.517)" fill="#216ebc"/>
      </g>
      <g id="Group_451" data-name="Group 451" transform="translate(450.133 357.885)">
        <path id="Path_495" data-name="Path 495" d="M444.056,347.8a4.9,4.9,0,1,1-4.9-4.9A4.9,4.9,0,0,1,444.056,347.8Z" transform="translate(-434.251 -342.895)" fill="#216ebc"/>
        <path id="Path_496" data-name="Path 496" d="M459.547,347.8a4.9,4.9,0,1,1-4.9-4.9A4.9,4.9,0,0,1,459.547,347.8Z" transform="translate(-418.369 -342.895)" fill="#216ebc"/>
        <path id="Path_497" data-name="Path 497" d="M475.04,347.8a4.9,4.9,0,1,1-4.9-4.9A4.9,4.9,0,0,1,475.04,347.8Z" transform="translate(-402.488 -342.895)" fill="#216ebc"/>
        <path id="Path_498" data-name="Path 498" d="M490.533,347.8a4.9,4.9,0,1,1-4.9-4.9A4.9,4.9,0,0,1,490.533,347.8Z" transform="translate(-386.606 -342.895)" fill="#216ebc"/>
        <path id="Path_499" data-name="Path 499" d="M506.028,347.8a4.9,4.9,0,1,1-4.9-4.9A4.9,4.9,0,0,1,506.028,347.8Z" transform="translate(-370.726 -342.895)" fill="#216ebc"/>
        <path id="Path_500" data-name="Path 500" d="M521.521,347.8a4.9,4.9,0,1,1-4.9-4.9A4.9,4.9,0,0,1,521.521,347.8Z" transform="translate(-354.844 -342.895)" fill="#216ebc"/>
      </g>
      <g id="Group_452" data-name="Group 452" transform="translate(481.507 328.272)">
        <path id="Path_501" data-name="Path 501" d="M459.547,333.175a4.9,4.9,0,1,1-4.9-4.9A4.9,4.9,0,0,1,459.547,333.175Z" transform="translate(-449.744 -328.272)" fill="#216ebc"/>
        <path id="Path_502" data-name="Path 502" d="M475.04,333.175a4.9,4.9,0,1,1-4.9-4.9A4.9,4.9,0,0,1,475.04,333.175Z" transform="translate(-433.862 -328.272)" fill="#216ebc"/>
        <path id="Path_503" data-name="Path 503" d="M490.533,333.175a4.9,4.9,0,1,1-4.9-4.9A4.9,4.9,0,0,1,490.533,333.175Z" transform="translate(-417.981 -328.272)" fill="#216ebc"/>
        <circle id="Ellipse_85" data-name="Ellipse 85" cx="4.902" cy="4.902" r="4.902" transform="translate(94.123 0)" fill="#216ebc"/>
      </g>
    </g>
    <g id="Group_454" data-name="Group 454" transform="translate(1001.132 65.201)" style="isolation: isolate">
      <path id="Path_504" data-name="Path 504" d="M39.8,93.994l23.176,12.754L86.149,93.994l23.177,12.754L132.5,93.994l23.18,12.754,23.18-12.754" transform="translate(0 0)" fill="none" stroke="#144a89" stroke-linecap="round" stroke-linejoin="round" stroke-width="2"/>
      <path id="Path_505" data-name="Path 505" d="M39.8,101.673l23.176,12.754,23.176-12.754,23.177,12.754L132.5,101.673l23.18,12.754,23.18-12.754" transform="translate(0 3.426)" fill="none" stroke="#144a89" stroke-linecap="round" stroke-linejoin="round" stroke-width="2"/>
      <path id="Path_506" data-name="Path 506" d="M39.8,109.352l23.176,12.754,23.176-12.754,23.177,12.754L132.5,109.352l23.18,12.754,23.18-12.754" transform="translate(0 6.851)" fill="none" stroke="#144a89" stroke-linecap="round" stroke-linejoin="round" stroke-width="2"/>
      <path id="Path_507" data-name="Path 507" d="M39.8,117.032l23.176,12.754,23.176-12.754,23.177,12.754L132.5,117.032l23.18,12.754,23.18-12.754" transform="translate(0 10.277)" fill="none" stroke="#144a89" stroke-linecap="round" stroke-linejoin="round" stroke-width="2"/>
    </g>
    <g id="Group_455" data-name="Group 455" transform="translate(343.833 228.001)" opacity="0.658">
      <rect id="Rectangle_273" data-name="Rectangle 273" width="27.08" height="27.08" rx="0.357" transform="translate(250.801 15.702) rotate(45)" fill="none" stroke="#144a89" stroke-miterlimit="10" stroke-width="3"/>
    </g>
    <g id="Group_456" data-name="Group 456" transform="translate(988.539 468.264) rotate(20)" opacity="0.658">
      <rect id="Rectangle_273-2" data-name="Rectangle 273" width="18.848" height="18.848" rx="0.357" transform="translate(244.98 15.702) rotate(45)" fill="none" stroke="#144a89" stroke-miterlimit="10" stroke-width="3"/>
    </g>
    <path id="Path_508" data-name="Path 508" d="M448.233,258.145a14.863,14.863,0,1,1-14.865-14.865A14.866,14.866,0,0,1,448.233,258.145Z" transform="translate(234.767 54.72)" fill="none" stroke="#216ebc" stroke-linecap="round" stroke-linejoin="round" stroke-width="2"/>
    <g id="Group_457" data-name="Group 457" transform="translate(173.457 186.82)">
      <path id="Path_509" data-name="Path 509" d="M367.86,178.638l46.369,26.771L367.86,232.18Z" transform="translate(0 0)" fill="#216ebc"/>
      <path id="Path_510" data-name="Path 510" d="M382.08,178.638l46.37,26.771L382.08,232.18Z" transform="translate(52.79 0)" fill="#216ebc"/>
      <path id="Path_511" data-name="Path 511" d="M396.3,178.638l46.369,26.771L396.3,232.18Z" transform="translate(105.581 0)" fill="#216ebc"/>
    </g>
  </g>
</svg>
