<svg id="_001-letter" data-name="001-letter" xmlns="http://www.w3.org/2000/svg" width="80.444" height="79.858" viewBox="0 0 80.444 79.858">
  <path id="Path_397" data-name="Path 397" d="M79.865,41.795A39.879,39.879,0,0,1,42.7,81.629q-1.369.1-2.764.095t-2.764-.095A39.929,39.929,0,1,1,79.865,41.795Z" transform="translate(-0.006 -1.866)" fill="#ffcc4e"/>
  <path id="Path_398" data-name="Path 398" d="M77.668,54.87A39.964,39.964,0,0,1,22.115,77.54,256.583,256.583,0,0,1,2.444,28.01Q1.229,23.693.166,19.327A5.79,5.79,0,0,1,4.553,12.3q5.757-1.261,11.513-2.526L48.211,2.726l1.4-.308L51.519,2a5.8,5.8,0,0,1,6.863,4.272c.01.039.019.08.031.119q1.036,4.141,2.249,8.227,1.472,4.953,3.2,9.816A196.823,196.823,0,0,0,77.668,54.87Z" transform="translate(0 -1.865)" fill="#f2f2f2"/>
  <g id="Group_391" data-name="Group 391" transform="translate(10.105 0)">
    <path id="Path_399" data-name="Path 399" d="M283.618,14.618,267.9,58.11l-3.387-17.9,8.056-37.79,1.9-.417a5.8,5.8,0,0,1,6.863,4.272c.01.039.019.08.031.119Q282.406,10.532,283.618,14.618Z" transform="translate(-233.061 -1.865)" fill="#d5d4e2"/>
    <path id="Path_400" data-name="Path 400" d="M169.478,322.89a39.964,39.964,0,0,1-55.553,22.67q-2.613-4.992-5-10.093a39.944,39.944,0,0,0,58.884-15.621Q168.629,321.376,169.478,322.89Z" transform="translate(-101.914 -269.886)" fill="#d5d4e2"/>
    <path id="Path_401" data-name="Path 401" d="M66.76,94.429a2.445,2.445,0,0,1-.707-4.785L108.1,76.932a2.445,2.445,0,1,1,1.415,4.68L67.468,94.324A2.448,2.448,0,0,1,66.76,94.429Z" transform="translate(-64.315 -65.049)" fill="#d5d4e2"/>
    <path id="Path_402" data-name="Path 402" d="M106.179,177.292a2.445,2.445,0,0,1-.865-4.732L144.1,157.892a2.445,2.445,0,0,1,1.729,4.573l-38.788,14.668A2.441,2.441,0,0,1,106.179,177.292Z" transform="translate(-97.54 -133.244)" fill="#d5d4e2"/>
    <path id="Path_403" data-name="Path 403" d="M152.338,296.269a2.445,2.445,0,0,1-1.037-4.66l24.039-11.245a2.445,2.445,0,0,1,2.072,4.429l-24.039,11.245A2.437,2.437,0,0,1,152.338,296.269Z" transform="translate(-136.446 -236.413)" fill="#d5d4e2"/>
    <path id="Path_404" data-name="Path 404" d="M301.1,229.963l-8.974,5.866-9.422,6.159-.322-11.252-.306-10.717,4.373.192,11.756.518Z" transform="translate(-247.862 -185.744)" fill="#d5d4e2"/>
  </g>
  <path id="Path_405" data-name="Path 405" d="M282.7,241.989l-.322-11.252-.306-10.717,4.373.192,1.843,4.232Z" transform="translate(-237.757 -185.744)" fill="#cbcbd3"/>
  <path id="Path_406" data-name="Path 406" d="M386.72,16.194l-3.828,7.324-19.024-9.944L367.7,6.251a3.7,3.7,0,0,1,5-1.567L385.153,11.2A3.7,3.7,0,0,1,386.72,16.194Z" transform="translate(-306.699 -3.885)" fill="#d14c54"/>
  <path id="Path_407" data-name="Path 407" d="M417.88,32.481,414.052,39.8,400.836,32.9l3.828-7.324a3.7,3.7,0,0,1,5-1.567l6.65,3.476A3.7,3.7,0,0,1,417.88,32.481Z" transform="translate(-337.858 -20.172)" fill="#ee4853"/>
  <path id="Path_408" data-name="Path 408" d="M313.864,74.546,301.1,98.964a5.367,5.367,0,0,0-7.242,2.27,5.367,5.367,0,1,0-9.512-4.972,5.367,5.367,0,0,0-2.27-7.242L294.84,64.6Z" transform="translate(-237.758 -54.745)" fill="#2176c4"/>
  <path id="Path_409" data-name="Path 409" d="M364.893,101.219,352.13,125.637a5.367,5.367,0,0,0-7.242,2.27,5.367,5.367,0,0,0-2.27-7.242l12.763-24.418Z" transform="translate(-288.787 -81.418)" fill="#72baed"/>
  <path id="Path_410" data-name="Path 410" d="M321.285,85.4l-15.249,29.174a5.367,5.367,0,0,0-9.512-4.972l15.249-29.174Z" transform="translate(-249.935 -68.083)" fill="#55ace5"/>
  <path id="Path_411" data-name="Path 411" d="M375.794,65.289a2.277,2.277,0,0,1-3.076.964l-17.34-9.063a2.279,2.279,0,1,1,2.112-4.04l17.341,9.064A2.279,2.279,0,0,1,375.794,65.289Z" transform="translate(-298.51 -44.872)" fill="#cbcbd3"/>
  <path id="Path_412" data-name="Path 412" d="M403.792,79.922a2.276,2.276,0,0,1-3.076.964l-12.121-6.336a2.279,2.279,0,1,1,2.112-4.04l12.121,6.336A2.279,2.279,0,0,1,403.792,79.922Z" transform="translate(-326.508 -59.506)" fill="#d5d4e2"/>
  <path id="Path_413" data-name="Path 413" d="M293.768,293.294l-9.422,6.159-.322-11.252a11.268,11.268,0,0,1,9.744,5.093Z" transform="translate(-239.399 -243.209)" fill="#454a5b"/>
  <path id="Path_414" data-name="Path 414" d="M284.347,299.454l-.322-11.252a11.164,11.164,0,0,1,3.739.527Z" transform="translate(-239.4 -243.21)" fill="#33384a"/>
</svg>
