<svg id="_003-pdf" data-name="003-pdf" xmlns="http://www.w3.org/2000/svg" width="80.286" height="80.286" viewBox="0 0 80.286 80.286">
  <path id="Path_422" data-name="Path 422" d="M80.286,67.717A12.569,12.569,0,0,1,67.717,80.286H12.569A12.569,12.569,0,0,1,0,67.717V16.34L16.34,0H67.717A12.569,12.569,0,0,1,80.286,12.569Z" fill="#ee4853"/>
  <path id="Path_423" data-name="Path 423" d="M0,112.757V104H8.715Z" transform="translate(0 -87.66)" fill="#5d5d5d" opacity="0.2"/>
  <path id="Path_424" data-name="Path 424" d="M0,16.34H10.893a5.427,5.427,0,0,0,5.447-5.4V0Z" fill="#ff7063"/>
  <path id="Path_425" data-name="Path 425" d="M85.652,202.685V176.4H98.664a8.425,8.425,0,0,1,3.291.605,6.44,6.44,0,0,1,2.383,1.683,7.323,7.323,0,0,1,1.437,2.572,10.555,10.555,0,0,1,.492,3.31,11.88,11.88,0,0,1-.473,3.4,7.953,7.953,0,0,1-1.4,2.742,6.422,6.422,0,0,1-2.364,1.816,7.976,7.976,0,0,1-3.367.662H89.926v9.494H85.652Zm4.274-22.355v8.851h7.263a5.1,5.1,0,0,0,3.65-1.116,4.68,4.68,0,0,0,1.154-3.5,3.929,3.929,0,0,0-1.229-3.253,5.618,5.618,0,0,0-3.574-.983H89.926Z" transform="translate(-72.195 -148.681)" fill="#ff7063"/>
  <path id="Path_426" data-name="Path 426" d="M242.2,174.641l4.123-1.135V195.9a9.727,9.727,0,0,0,.075,1.286q.075.567.189,1.059.151.454.341.965a6.928,6.928,0,0,0,.492,1.04h-4.35a5.735,5.735,0,0,1-.454-1.021q-.152-.681-.227-1.21a10.849,10.849,0,0,1-2.591,1.91,6.547,6.547,0,0,1-3.12.775,8.693,8.693,0,0,1-3.461-.643,7.112,7.112,0,0,1-2.515-1.778,7.417,7.417,0,0,1-1.532-2.7,10.885,10.885,0,0,1-.511-3.386v-1.816q0-4.8,2.534-7.225t7.376-2.421a9.621,9.621,0,0,1,3.631.719v-6.809Zm0,10.629a5.657,5.657,0,0,0-1.91-.681,11.77,11.77,0,0,0-2.024-.189,6.9,6.9,0,0,0-2.553.416,4.378,4.378,0,0,0-1.7,1.173,4.471,4.471,0,0,0-.946,1.816,8.906,8.906,0,0,0-.284,2.307v1.4a13.768,13.768,0,0,0,.151,2.062,4.974,4.974,0,0,0,.586,1.759,3.462,3.462,0,0,0,1.191,1.229,3.659,3.659,0,0,0,1.967.473,4.824,4.824,0,0,0,1.57-.265,7.645,7.645,0,0,0,1.494-.7,10.485,10.485,0,0,0,2.459-2.062V185.27Z" transform="translate(-192.73 -146.245)" fill="#ff7063"/>
  <path id="Path_427" data-name="Path 427" d="M361.768,179.066a7.53,7.53,0,0,1,.284-2.062,5.128,5.128,0,0,1,.889-1.778,4.388,4.388,0,0,1,1.589-1.248,5.369,5.369,0,0,1,2.345-.473,9.181,9.181,0,0,1,1.456.132,10.477,10.477,0,0,1,1.419.322v3.253h-1.513a2.262,2.262,0,0,0-1.759.643,2.54,2.54,0,0,0-.586,1.778v1.551h3.669l-1.1,3.4h-2.572v15.66h-4.123v-15.66h-2.383v-3.4h2.383v-2.118Z" transform="translate(-302.92 -146.245)" fill="#ff7063"/>
  <path id="Path_428" data-name="Path 428" d="M85.652,196.685V170.4H98.664a8.425,8.425,0,0,1,3.291.605,6.44,6.44,0,0,1,2.383,1.683,7.323,7.323,0,0,1,1.437,2.572,10.555,10.555,0,0,1,.492,3.31,11.88,11.88,0,0,1-.473,3.4,7.953,7.953,0,0,1-1.4,2.742,6.421,6.421,0,0,1-2.364,1.816,7.975,7.975,0,0,1-3.367.662H89.926v9.494H85.652Zm4.274-22.355v8.851h7.263a5.1,5.1,0,0,0,3.65-1.116,4.68,4.68,0,0,0,1.154-3.5,3.929,3.929,0,0,0-1.229-3.253,5.618,5.618,0,0,0-3.574-.983H89.926Z" transform="translate(-72.195 -143.624)" fill="#fff"/>
  <path id="Path_429" data-name="Path 429" d="M242.2,168.641l4.123-1.135V189.9a9.727,9.727,0,0,0,.075,1.286q.075.567.189,1.059.151.454.341.965a6.927,6.927,0,0,0,.492,1.04h-4.35a5.734,5.734,0,0,1-.454-1.021q-.152-.681-.227-1.21a10.848,10.848,0,0,1-2.591,1.91,6.547,6.547,0,0,1-3.12.775,8.693,8.693,0,0,1-3.461-.643,7.112,7.112,0,0,1-2.515-1.778,7.417,7.417,0,0,1-1.532-2.7,10.885,10.885,0,0,1-.511-3.386v-1.816q0-4.8,2.534-7.225t7.376-2.421a9.619,9.619,0,0,1,3.631.719v-6.809Zm0,10.629a5.657,5.657,0,0,0-1.91-.681,11.77,11.77,0,0,0-2.024-.189,6.9,6.9,0,0,0-2.553.416,4.378,4.378,0,0,0-1.7,1.173,4.471,4.471,0,0,0-.946,1.816,8.906,8.906,0,0,0-.284,2.307v1.4a13.768,13.768,0,0,0,.151,2.062,4.974,4.974,0,0,0,.586,1.759,3.462,3.462,0,0,0,1.191,1.229,3.659,3.659,0,0,0,1.967.473,4.824,4.824,0,0,0,1.57-.265,7.645,7.645,0,0,0,1.494-.7,10.484,10.484,0,0,0,2.459-2.062V179.27Z" transform="translate(-192.73 -141.188)" fill="#fff"/>
  <path id="Path_430" data-name="Path 430" d="M361.768,173.066a7.53,7.53,0,0,1,.284-2.062,5.128,5.128,0,0,1,.889-1.778,4.389,4.389,0,0,1,1.589-1.248,5.369,5.369,0,0,1,2.345-.473,9.181,9.181,0,0,1,1.456.132,10.482,10.482,0,0,1,1.419.322v3.253h-1.513a2.262,2.262,0,0,0-1.759.643,2.54,2.54,0,0,0-.586,1.778v1.551h3.669l-1.1,3.4h-2.572v15.66h-4.123v-15.66h-2.383v-3.4h2.383v-2.118Z" transform="translate(-302.92 -141.188)" fill="#fff"/>
</svg>
