<svg xmlns="http://www.w3.org/2000/svg" xmlns:xlink="http://www.w3.org/1999/xlink" width="1366" height="303" viewBox="0 0 1366 303">
  <defs>
    <clipPath id="clip-path">
      <rect id="Rectangle_275" data-name="Rectangle 275" width="1366" height="303" transform="translate(0 86)" fill="#20599d"/>
    </clipPath>
  </defs>
  <g id="Group_532" data-name="Group 532" transform="translate(0 -86)">
    <g id="Group_455" data-name="Group 455" transform="translate(93.347 116.589)" opacity="0.658">
      <rect id="Rectangle_273" data-name="Rectangle 273" width="27.08" height="27.08" rx="0.357" transform="translate(250.801 15.702) rotate(45)" fill="none" stroke="#144a89" stroke-miterlimit="10" stroke-width="3"/>
    </g>
    <g id="Group_470" data-name="Group 470" transform="translate(562.847 144.15)" opacity="0.658">
      <rect id="Rectangle_273-2" data-name="Rectangle 273" width="88.158" height="88.158" rx="0.357" transform="translate(293.99 15.702) rotate(45)" fill="none" stroke="#144a89" stroke-miterlimit="10" stroke-width="3"/>
    </g>
    <g id="Group_456" data-name="Group 456" transform="translate(591.304 151.015) rotate(20)" opacity="0.658">
      <rect id="Rectangle_273-3" data-name="Rectangle 273" width="18.848" height="18.848" rx="0.357" transform="translate(244.98 15.702) rotate(45)" fill="none" stroke="#144a89" stroke-miterlimit="10" stroke-width="3"/>
    </g>
    <path id="Path_508" data-name="Path 508" d="M448.233,258.145a14.863,14.863,0,1,1-14.865-14.865A14.866,14.866,0,0,1,448.233,258.145Z" transform="translate(556.907 -102.424)" fill="none" stroke="#216ebc" stroke-linecap="round" stroke-linejoin="round" stroke-width="2"/>
    <g id="Mask_Group_10" data-name="Mask Group 10" clip-path="url(#clip-path)">
      <g id="Group_467" data-name="Group 467" transform="translate(322.309 -237.891) rotate(30)">
        <g id="Group_466" data-name="Group 466" transform="translate(28.627 368.284)">
          <g id="Group_458" data-name="Group 458" transform="translate(0 221.91)">
            <path id="Path_512" data-name="Path 512" d="M39.125,412.445a5.249,5.249,0,1,1-5.246-5.246A5.247,5.247,0,0,1,39.125,412.445Z" transform="translate(-28.627 -407.199)" fill="#144a89"/>
            <path id="Path_513" data-name="Path 513" d="M45.015,412.445a5.249,5.249,0,1,1-5.246-5.246A5.247,5.247,0,0,1,45.015,412.445Z" transform="translate(-0.93 -407.199)" fill="#144a89"/>
            <path id="Path_514" data-name="Path 514" d="M50.9,412.445a5.246,5.246,0,1,1-5.246-5.246A5.247,5.247,0,0,1,50.9,412.445Z" transform="translate(26.772 -407.199)" fill="#144a89"/>
            <path id="Path_515" data-name="Path 515" d="M56.79,412.445a5.246,5.246,0,1,1-5.246-5.246A5.247,5.247,0,0,1,56.79,412.445Z" transform="translate(54.47 -407.199)" fill="#144a89"/>
            <path id="Path_516" data-name="Path 516" d="M62.686,412.445a5.249,5.249,0,1,1-5.252-5.246A5.248,5.248,0,0,1,62.686,412.445Z" transform="translate(82.167 -407.199)" fill="#144a89"/>
            <path id="Path_517" data-name="Path 517" d="M68.576,412.445A5.249,5.249,0,1,1,63.33,407.2,5.247,5.247,0,0,1,68.576,412.445Z" transform="translate(109.864 -407.199)" fill="#144a89"/>
            <path id="Path_518" data-name="Path 518" d="M74.466,412.445A5.249,5.249,0,1,1,69.22,407.2,5.247,5.247,0,0,1,74.466,412.445Z" transform="translate(137.562 -407.199)" fill="#144a89"/>
            <path id="Path_519" data-name="Path 519" d="M80.351,412.445a5.246,5.246,0,1,1-5.246-5.246A5.247,5.247,0,0,1,80.351,412.445Z" transform="translate(165.264 -407.199)" fill="#144a89"/>
          </g>
          <g id="Group_459" data-name="Group 459" transform="translate(0 190.205)">
            <path id="Path_520" data-name="Path 520" d="M39.125,406.891a5.249,5.249,0,1,1-5.246-5.252A5.247,5.247,0,0,1,39.125,406.891Z" transform="translate(-28.627 -401.639)" fill="#144a89"/>
            <path id="Path_521" data-name="Path 521" d="M45.015,406.891a5.249,5.249,0,1,1-5.246-5.252A5.247,5.247,0,0,1,45.015,406.891Z" transform="translate(-0.93 -401.639)" fill="#144a89"/>
            <path id="Path_522" data-name="Path 522" d="M50.9,406.891a5.246,5.246,0,1,1-5.246-5.252A5.247,5.247,0,0,1,50.9,406.891Z" transform="translate(26.772 -401.639)" fill="#144a89"/>
            <path id="Path_523" data-name="Path 523" d="M56.79,406.891a5.246,5.246,0,1,1-5.246-5.252A5.247,5.247,0,0,1,56.79,406.891Z" transform="translate(54.47 -401.639)" fill="#144a89"/>
            <path id="Path_524" data-name="Path 524" d="M62.686,406.891a5.249,5.249,0,1,1-5.252-5.252A5.248,5.248,0,0,1,62.686,406.891Z" transform="translate(82.167 -401.639)" fill="#144a89"/>
            <path id="Path_525" data-name="Path 525" d="M68.576,406.891a5.249,5.249,0,1,1-5.246-5.252A5.247,5.247,0,0,1,68.576,406.891Z" transform="translate(109.864 -401.639)" fill="#144a89"/>
            <path id="Path_526" data-name="Path 526" d="M74.466,406.891a5.249,5.249,0,1,1-5.246-5.252A5.247,5.247,0,0,1,74.466,406.891Z" transform="translate(137.562 -401.639)" fill="#144a89"/>
            <path id="Path_527" data-name="Path 527" d="M80.351,406.891a5.246,5.246,0,1,1-5.246-5.252A5.247,5.247,0,0,1,80.351,406.891Z" transform="translate(165.264 -401.639)" fill="#144a89"/>
          </g>
          <g id="Group_460" data-name="Group 460" transform="translate(0 158.505)">
            <path id="Path_528" data-name="Path 528" d="M39.125,401.332a5.249,5.249,0,1,1-5.246-5.252A5.247,5.247,0,0,1,39.125,401.332Z" transform="translate(-28.627 -396.08)" fill="#144a89"/>
            <path id="Path_529" data-name="Path 529" d="M45.015,401.332a5.249,5.249,0,1,1-5.246-5.252A5.247,5.247,0,0,1,45.015,401.332Z" transform="translate(-0.93 -396.08)" fill="#144a89"/>
            <path id="Path_530" data-name="Path 530" d="M50.9,401.332a5.246,5.246,0,1,1-5.246-5.252A5.247,5.247,0,0,1,50.9,401.332Z" transform="translate(26.772 -396.08)" fill="#144a89"/>
            <path id="Path_531" data-name="Path 531" d="M56.79,401.332a5.246,5.246,0,1,1-5.246-5.252A5.247,5.247,0,0,1,56.79,401.332Z" transform="translate(54.47 -396.08)" fill="#144a89"/>
            <path id="Path_532" data-name="Path 532" d="M62.686,401.332a5.249,5.249,0,1,1-5.252-5.252A5.248,5.248,0,0,1,62.686,401.332Z" transform="translate(82.167 -396.08)" fill="#144a89"/>
            <path id="Path_533" data-name="Path 533" d="M68.576,401.332a5.249,5.249,0,1,1-5.246-5.252A5.247,5.247,0,0,1,68.576,401.332Z" transform="translate(109.864 -396.08)" fill="#144a89"/>
            <path id="Path_534" data-name="Path 534" d="M74.466,401.332a5.249,5.249,0,1,1-5.246-5.252A5.247,5.247,0,0,1,74.466,401.332Z" transform="translate(137.562 -396.08)" fill="#144a89"/>
            <path id="Path_535" data-name="Path 535" d="M80.351,401.332a5.246,5.246,0,1,1-5.246-5.252A5.247,5.247,0,0,1,80.351,401.332Z" transform="translate(165.264 -396.08)" fill="#144a89"/>
          </g>
          <g id="Group_461" data-name="Group 461" transform="translate(0 126.805)">
            <path id="Path_536" data-name="Path 536" d="M39.125,395.767a5.249,5.249,0,1,1-5.246-5.246A5.248,5.248,0,0,1,39.125,395.767Z" transform="translate(-28.627 -390.521)" fill="#144a89"/>
            <path id="Path_537" data-name="Path 537" d="M45.015,395.767a5.249,5.249,0,1,1-5.246-5.246A5.248,5.248,0,0,1,45.015,395.767Z" transform="translate(-0.93 -390.521)" fill="#144a89"/>
            <path id="Path_538" data-name="Path 538" d="M50.9,395.767a5.246,5.246,0,1,1-5.246-5.246A5.248,5.248,0,0,1,50.9,395.767Z" transform="translate(26.772 -390.521)" fill="#144a89"/>
            <path id="Path_539" data-name="Path 539" d="M56.79,395.767a5.246,5.246,0,1,1-5.246-5.246A5.248,5.248,0,0,1,56.79,395.767Z" transform="translate(54.47 -390.521)" fill="#144a89"/>
            <path id="Path_540" data-name="Path 540" d="M62.686,395.767a5.249,5.249,0,1,1-5.252-5.246A5.249,5.249,0,0,1,62.686,395.767Z" transform="translate(82.167 -390.521)" fill="#144a89"/>
            <path id="Path_541" data-name="Path 541" d="M68.576,395.767a5.249,5.249,0,1,1-5.246-5.246A5.248,5.248,0,0,1,68.576,395.767Z" transform="translate(109.864 -390.521)" fill="#144a89"/>
            <path id="Path_542" data-name="Path 542" d="M74.466,395.767a5.249,5.249,0,1,1-5.246-5.246A5.248,5.248,0,0,1,74.466,395.767Z" transform="translate(137.562 -390.521)" fill="#144a89"/>
            <path id="Path_543" data-name="Path 543" d="M80.351,395.767a5.246,5.246,0,1,1-5.246-5.246A5.248,5.248,0,0,1,80.351,395.767Z" transform="translate(165.264 -390.521)" fill="#144a89"/>
          </g>
          <g id="Group_462" data-name="Group 462" transform="translate(0 95.105)">
            <path id="Path_544" data-name="Path 544" d="M39.125,390.208a5.249,5.249,0,1,1-5.246-5.246A5.247,5.247,0,0,1,39.125,390.208Z" transform="translate(-28.627 -384.962)" fill="#144a89"/>
            <path id="Path_545" data-name="Path 545" d="M45.015,390.208a5.249,5.249,0,1,1-5.246-5.246A5.247,5.247,0,0,1,45.015,390.208Z" transform="translate(-0.93 -384.962)" fill="#144a89"/>
            <path id="Path_546" data-name="Path 546" d="M50.9,390.208a5.246,5.246,0,1,1-5.246-5.246A5.247,5.247,0,0,1,50.9,390.208Z" transform="translate(26.772 -384.962)" fill="#144a89"/>
            <path id="Path_547" data-name="Path 547" d="M56.79,390.208a5.246,5.246,0,1,1-5.246-5.246A5.247,5.247,0,0,1,56.79,390.208Z" transform="translate(54.47 -384.962)" fill="#144a89"/>
            <path id="Path_548" data-name="Path 548" d="M62.686,390.208a5.249,5.249,0,1,1-5.252-5.246A5.248,5.248,0,0,1,62.686,390.208Z" transform="translate(82.167 -384.962)" fill="#144a89"/>
            <path id="Path_549" data-name="Path 549" d="M68.576,390.208a5.249,5.249,0,1,1-5.246-5.246A5.247,5.247,0,0,1,68.576,390.208Z" transform="translate(109.864 -384.962)" fill="#144a89"/>
            <path id="Path_550" data-name="Path 550" d="M74.466,390.208a5.249,5.249,0,1,1-5.246-5.246A5.247,5.247,0,0,1,74.466,390.208Z" transform="translate(137.562 -384.962)" fill="#144a89"/>
            <path id="Path_551" data-name="Path 551" d="M80.351,390.208a5.246,5.246,0,1,1-5.246-5.246A5.247,5.247,0,0,1,80.351,390.208Z" transform="translate(165.264 -384.962)" fill="#144a89"/>
          </g>
          <g id="Group_463" data-name="Group 463" transform="translate(0 63.405)">
            <path id="Path_552" data-name="Path 552" d="M39.125,384.649a5.249,5.249,0,1,1-5.246-5.246A5.247,5.247,0,0,1,39.125,384.649Z" transform="translate(-28.627 -379.403)" fill="#144a89"/>
            <path id="Path_553" data-name="Path 553" d="M45.015,384.649a5.249,5.249,0,1,1-5.246-5.246A5.247,5.247,0,0,1,45.015,384.649Z" transform="translate(-0.93 -379.403)" fill="#144a89"/>
            <path id="Path_554" data-name="Path 554" d="M50.9,384.649a5.246,5.246,0,1,1-5.246-5.246A5.247,5.247,0,0,1,50.9,384.649Z" transform="translate(26.772 -379.403)" fill="#144a89"/>
            <path id="Path_555" data-name="Path 555" d="M56.79,384.649a5.246,5.246,0,1,1-5.246-5.246A5.247,5.247,0,0,1,56.79,384.649Z" transform="translate(54.47 -379.403)" fill="#144a89"/>
            <path id="Path_556" data-name="Path 556" d="M62.686,384.649a5.249,5.249,0,1,1-5.252-5.246A5.248,5.248,0,0,1,62.686,384.649Z" transform="translate(82.167 -379.403)" fill="#144a89"/>
            <path id="Path_557" data-name="Path 557" d="M68.576,384.649A5.249,5.249,0,1,1,63.33,379.4,5.247,5.247,0,0,1,68.576,384.649Z" transform="translate(109.864 -379.403)" fill="#144a89"/>
            <path id="Path_558" data-name="Path 558" d="M74.466,384.649A5.249,5.249,0,1,1,69.22,379.4,5.247,5.247,0,0,1,74.466,384.649Z" transform="translate(137.562 -379.403)" fill="#144a89"/>
            <path id="Path_559" data-name="Path 559" d="M80.351,384.649a5.246,5.246,0,1,1-5.246-5.246A5.247,5.247,0,0,1,80.351,384.649Z" transform="translate(165.264 -379.403)" fill="#144a89"/>
          </g>
          <g id="Group_464" data-name="Group 464" transform="translate(0 31.7)">
            <path id="Path_560" data-name="Path 560" d="M39.125,379.1a5.249,5.249,0,1,1-5.246-5.252A5.247,5.247,0,0,1,39.125,379.1Z" transform="translate(-28.627 -373.843)" fill="#144a89"/>
            <path id="Path_561" data-name="Path 561" d="M45.015,379.1a5.249,5.249,0,1,1-5.246-5.252A5.247,5.247,0,0,1,45.015,379.1Z" transform="translate(-0.93 -373.843)" fill="#144a89"/>
            <path id="Path_562" data-name="Path 562" d="M50.9,379.1a5.246,5.246,0,1,1-5.246-5.252A5.247,5.247,0,0,1,50.9,379.1Z" transform="translate(26.772 -373.843)" fill="#144a89"/>
            <path id="Path_563" data-name="Path 563" d="M56.79,379.1a5.246,5.246,0,1,1-5.246-5.252A5.247,5.247,0,0,1,56.79,379.1Z" transform="translate(54.47 -373.843)" fill="#144a89"/>
            <path id="Path_564" data-name="Path 564" d="M62.686,379.1a5.249,5.249,0,1,1-5.252-5.252A5.248,5.248,0,0,1,62.686,379.1Z" transform="translate(82.167 -373.843)" fill="#144a89"/>
            <path id="Path_565" data-name="Path 565" d="M68.576,379.1a5.249,5.249,0,1,1-5.246-5.252A5.247,5.247,0,0,1,68.576,379.1Z" transform="translate(109.864 -373.843)" fill="#144a89"/>
            <path id="Path_566" data-name="Path 566" d="M74.466,379.1a5.249,5.249,0,1,1-5.246-5.252A5.247,5.247,0,0,1,74.466,379.1Z" transform="translate(137.562 -373.843)" fill="#144a89"/>
            <path id="Path_567" data-name="Path 567" d="M80.351,379.1a5.246,5.246,0,1,1-5.246-5.252A5.247,5.247,0,0,1,80.351,379.1Z" transform="translate(165.264 -373.843)" fill="#144a89"/>
          </g>
          <g id="Group_465" data-name="Group 465">
            <path id="Path_568" data-name="Path 568" d="M39.125,373.53a5.249,5.249,0,1,1-5.246-5.246A5.248,5.248,0,0,1,39.125,373.53Z" transform="translate(-28.627 -368.284)" fill="#144a89"/>
            <path id="Path_569" data-name="Path 569" d="M45.015,373.53a5.249,5.249,0,1,1-5.246-5.246A5.248,5.248,0,0,1,45.015,373.53Z" transform="translate(-0.93 -368.284)" fill="#144a89"/>
            <path id="Path_570" data-name="Path 570" d="M50.9,373.53a5.246,5.246,0,1,1-5.246-5.246A5.248,5.248,0,0,1,50.9,373.53Z" transform="translate(26.772 -368.284)" fill="#144a89"/>
            <path id="Path_571" data-name="Path 571" d="M56.79,373.53a5.246,5.246,0,1,1-5.246-5.246A5.248,5.248,0,0,1,56.79,373.53Z" transform="translate(54.47 -368.284)" fill="#144a89"/>
            <path id="Path_572" data-name="Path 572" d="M62.686,373.53a5.249,5.249,0,1,1-5.252-5.246A5.249,5.249,0,0,1,62.686,373.53Z" transform="translate(82.167 -368.284)" fill="#144a89"/>
            <path id="Path_573" data-name="Path 573" d="M68.576,373.53a5.249,5.249,0,1,1-5.246-5.246A5.248,5.248,0,0,1,68.576,373.53Z" transform="translate(109.864 -368.284)" fill="#144a89"/>
            <path id="Path_574" data-name="Path 574" d="M74.466,373.53a5.249,5.249,0,1,1-5.246-5.246A5.248,5.248,0,0,1,74.466,373.53Z" transform="translate(137.562 -368.284)" fill="#144a89"/>
            <path id="Path_575" data-name="Path 575" d="M80.351,373.53a5.246,5.246,0,1,1-5.246-5.246A5.248,5.248,0,0,1,80.351,373.53Z" transform="translate(165.264 -368.284)" fill="#144a89"/>
          </g>
        </g>
        <rect id="Rectangle_274" data-name="Rectangle 274" width="233.201" height="233.201" rx="1.633" transform="translate(146.279 478.999)" fill="#144a89"/>
      </g>
      <g id="Group_469" data-name="Group 469" transform="matrix(-0.259, 0.966, -0.966, -0.259, 1720.551, 35.09)">
        <g id="Group_466-2" data-name="Group 466" transform="translate(28.627 368.284)">
          <g id="Group_458-2" data-name="Group 458" transform="translate(0 221.91)">
            <path id="Path_512-2" data-name="Path 512" d="M39.125,412.445a5.249,5.249,0,1,1-5.246-5.246A5.247,5.247,0,0,1,39.125,412.445Z" transform="translate(-28.627 -407.199)" fill="#144a89"/>
            <path id="Path_513-2" data-name="Path 513" d="M45.015,412.445a5.249,5.249,0,1,1-5.246-5.246A5.247,5.247,0,0,1,45.015,412.445Z" transform="translate(-0.93 -407.199)" fill="#144a89"/>
            <path id="Path_514-2" data-name="Path 514" d="M50.9,412.445a5.246,5.246,0,1,1-5.246-5.246A5.247,5.247,0,0,1,50.9,412.445Z" transform="translate(26.772 -407.199)" fill="#144a89"/>
            <path id="Path_515-2" data-name="Path 515" d="M56.79,412.445a5.246,5.246,0,1,1-5.246-5.246A5.247,5.247,0,0,1,56.79,412.445Z" transform="translate(54.47 -407.199)" fill="#144a89"/>
            <path id="Path_516-2" data-name="Path 516" d="M62.686,412.445a5.249,5.249,0,1,1-5.252-5.246A5.248,5.248,0,0,1,62.686,412.445Z" transform="translate(82.167 -407.199)" fill="#144a89"/>
            <path id="Path_517-2" data-name="Path 517" d="M68.576,412.445A5.249,5.249,0,1,1,63.33,407.2,5.247,5.247,0,0,1,68.576,412.445Z" transform="translate(109.864 -407.199)" fill="#144a89"/>
            <path id="Path_518-2" data-name="Path 518" d="M74.466,412.445A5.249,5.249,0,1,1,69.22,407.2,5.247,5.247,0,0,1,74.466,412.445Z" transform="translate(137.562 -407.199)" fill="#144a89"/>
            <path id="Path_519-2" data-name="Path 519" d="M80.351,412.445a5.246,5.246,0,1,1-5.246-5.246A5.247,5.247,0,0,1,80.351,412.445Z" transform="translate(165.264 -407.199)" fill="#144a89"/>
          </g>
          <g id="Group_459-2" data-name="Group 459" transform="translate(0 190.205)">
            <path id="Path_520-2" data-name="Path 520" d="M39.125,406.891a5.249,5.249,0,1,1-5.246-5.252A5.247,5.247,0,0,1,39.125,406.891Z" transform="translate(-28.627 -401.639)" fill="#144a89"/>
            <path id="Path_521-2" data-name="Path 521" d="M45.015,406.891a5.249,5.249,0,1,1-5.246-5.252A5.247,5.247,0,0,1,45.015,406.891Z" transform="translate(-0.93 -401.639)" fill="#144a89"/>
            <path id="Path_522-2" data-name="Path 522" d="M50.9,406.891a5.246,5.246,0,1,1-5.246-5.252A5.247,5.247,0,0,1,50.9,406.891Z" transform="translate(26.772 -401.639)" fill="#144a89"/>
            <path id="Path_523-2" data-name="Path 523" d="M56.79,406.891a5.246,5.246,0,1,1-5.246-5.252A5.247,5.247,0,0,1,56.79,406.891Z" transform="translate(54.47 -401.639)" fill="#144a89"/>
            <path id="Path_524-2" data-name="Path 524" d="M62.686,406.891a5.249,5.249,0,1,1-5.252-5.252A5.248,5.248,0,0,1,62.686,406.891Z" transform="translate(82.167 -401.639)" fill="#144a89"/>
            <path id="Path_525-2" data-name="Path 525" d="M68.576,406.891a5.249,5.249,0,1,1-5.246-5.252A5.247,5.247,0,0,1,68.576,406.891Z" transform="translate(109.864 -401.639)" fill="#144a89"/>
            <path id="Path_526-2" data-name="Path 526" d="M74.466,406.891a5.249,5.249,0,1,1-5.246-5.252A5.247,5.247,0,0,1,74.466,406.891Z" transform="translate(137.562 -401.639)" fill="#144a89"/>
            <path id="Path_527-2" data-name="Path 527" d="M80.351,406.891a5.246,5.246,0,1,1-5.246-5.252A5.247,5.247,0,0,1,80.351,406.891Z" transform="translate(165.264 -401.639)" fill="#144a89"/>
          </g>
          <g id="Group_460-2" data-name="Group 460" transform="translate(0 158.505)">
            <path id="Path_528-2" data-name="Path 528" d="M39.125,401.332a5.249,5.249,0,1,1-5.246-5.252A5.247,5.247,0,0,1,39.125,401.332Z" transform="translate(-28.627 -396.08)" fill="#144a89"/>
            <path id="Path_529-2" data-name="Path 529" d="M45.015,401.332a5.249,5.249,0,1,1-5.246-5.252A5.247,5.247,0,0,1,45.015,401.332Z" transform="translate(-0.93 -396.08)" fill="#144a89"/>
            <path id="Path_530-2" data-name="Path 530" d="M50.9,401.332a5.246,5.246,0,1,1-5.246-5.252A5.247,5.247,0,0,1,50.9,401.332Z" transform="translate(26.772 -396.08)" fill="#144a89"/>
            <path id="Path_531-2" data-name="Path 531" d="M56.79,401.332a5.246,5.246,0,1,1-5.246-5.252A5.247,5.247,0,0,1,56.79,401.332Z" transform="translate(54.47 -396.08)" fill="#144a89"/>
            <path id="Path_532-2" data-name="Path 532" d="M62.686,401.332a5.249,5.249,0,1,1-5.252-5.252A5.248,5.248,0,0,1,62.686,401.332Z" transform="translate(82.167 -396.08)" fill="#144a89"/>
            <path id="Path_533-2" data-name="Path 533" d="M68.576,401.332a5.249,5.249,0,1,1-5.246-5.252A5.247,5.247,0,0,1,68.576,401.332Z" transform="translate(109.864 -396.08)" fill="#144a89"/>
            <path id="Path_534-2" data-name="Path 534" d="M74.466,401.332a5.249,5.249,0,1,1-5.246-5.252A5.247,5.247,0,0,1,74.466,401.332Z" transform="translate(137.562 -396.08)" fill="#144a89"/>
            <path id="Path_535-2" data-name="Path 535" d="M80.351,401.332a5.246,5.246,0,1,1-5.246-5.252A5.247,5.247,0,0,1,80.351,401.332Z" transform="translate(165.264 -396.08)" fill="#144a89"/>
          </g>
          <g id="Group_461-2" data-name="Group 461" transform="translate(0 126.805)">
            <path id="Path_536-2" data-name="Path 536" d="M39.125,395.767a5.249,5.249,0,1,1-5.246-5.246A5.248,5.248,0,0,1,39.125,395.767Z" transform="translate(-28.627 -390.521)" fill="#144a89"/>
            <path id="Path_537-2" data-name="Path 537" d="M45.015,395.767a5.249,5.249,0,1,1-5.246-5.246A5.248,5.248,0,0,1,45.015,395.767Z" transform="translate(-0.93 -390.521)" fill="#144a89"/>
            <path id="Path_538-2" data-name="Path 538" d="M50.9,395.767a5.246,5.246,0,1,1-5.246-5.246A5.248,5.248,0,0,1,50.9,395.767Z" transform="translate(26.772 -390.521)" fill="#144a89"/>
            <path id="Path_539-2" data-name="Path 539" d="M56.79,395.767a5.246,5.246,0,1,1-5.246-5.246A5.248,5.248,0,0,1,56.79,395.767Z" transform="translate(54.47 -390.521)" fill="#144a89"/>
            <path id="Path_540-2" data-name="Path 540" d="M62.686,395.767a5.249,5.249,0,1,1-5.252-5.246A5.249,5.249,0,0,1,62.686,395.767Z" transform="translate(82.167 -390.521)" fill="#144a89"/>
            <path id="Path_541-2" data-name="Path 541" d="M68.576,395.767a5.249,5.249,0,1,1-5.246-5.246A5.248,5.248,0,0,1,68.576,395.767Z" transform="translate(109.864 -390.521)" fill="#144a89"/>
            <path id="Path_542-2" data-name="Path 542" d="M74.466,395.767a5.249,5.249,0,1,1-5.246-5.246A5.248,5.248,0,0,1,74.466,395.767Z" transform="translate(137.562 -390.521)" fill="#144a89"/>
            <path id="Path_543-2" data-name="Path 543" d="M80.351,395.767a5.246,5.246,0,1,1-5.246-5.246A5.248,5.248,0,0,1,80.351,395.767Z" transform="translate(165.264 -390.521)" fill="#144a89"/>
          </g>
          <g id="Group_462-2" data-name="Group 462" transform="translate(0 95.105)">
            <path id="Path_544-2" data-name="Path 544" d="M39.125,390.208a5.249,5.249,0,1,1-5.246-5.246A5.247,5.247,0,0,1,39.125,390.208Z" transform="translate(-28.627 -384.962)" fill="#144a89"/>
            <path id="Path_545-2" data-name="Path 545" d="M45.015,390.208a5.249,5.249,0,1,1-5.246-5.246A5.247,5.247,0,0,1,45.015,390.208Z" transform="translate(-0.93 -384.962)" fill="#144a89"/>
            <path id="Path_546-2" data-name="Path 546" d="M50.9,390.208a5.246,5.246,0,1,1-5.246-5.246A5.247,5.247,0,0,1,50.9,390.208Z" transform="translate(26.772 -384.962)" fill="#144a89"/>
            <path id="Path_547-2" data-name="Path 547" d="M56.79,390.208a5.246,5.246,0,1,1-5.246-5.246A5.247,5.247,0,0,1,56.79,390.208Z" transform="translate(54.47 -384.962)" fill="#144a89"/>
            <path id="Path_548-2" data-name="Path 548" d="M62.686,390.208a5.249,5.249,0,1,1-5.252-5.246A5.248,5.248,0,0,1,62.686,390.208Z" transform="translate(82.167 -384.962)" fill="#144a89"/>
            <path id="Path_549-2" data-name="Path 549" d="M68.576,390.208a5.249,5.249,0,1,1-5.246-5.246A5.247,5.247,0,0,1,68.576,390.208Z" transform="translate(109.864 -384.962)" fill="#144a89"/>
            <path id="Path_550-2" data-name="Path 550" d="M74.466,390.208a5.249,5.249,0,1,1-5.246-5.246A5.247,5.247,0,0,1,74.466,390.208Z" transform="translate(137.562 -384.962)" fill="#144a89"/>
            <path id="Path_551-2" data-name="Path 551" d="M80.351,390.208a5.246,5.246,0,1,1-5.246-5.246A5.247,5.247,0,0,1,80.351,390.208Z" transform="translate(165.264 -384.962)" fill="#144a89"/>
          </g>
          <g id="Group_463-2" data-name="Group 463" transform="translate(0 63.405)">
            <path id="Path_552-2" data-name="Path 552" d="M39.125,384.649a5.249,5.249,0,1,1-5.246-5.246A5.247,5.247,0,0,1,39.125,384.649Z" transform="translate(-28.627 -379.403)" fill="#144a89"/>
            <path id="Path_553-2" data-name="Path 553" d="M45.015,384.649a5.249,5.249,0,1,1-5.246-5.246A5.247,5.247,0,0,1,45.015,384.649Z" transform="translate(-0.93 -379.403)" fill="#144a89"/>
            <path id="Path_554-2" data-name="Path 554" d="M50.9,384.649a5.246,5.246,0,1,1-5.246-5.246A5.247,5.247,0,0,1,50.9,384.649Z" transform="translate(26.772 -379.403)" fill="#144a89"/>
            <path id="Path_555-2" data-name="Path 555" d="M56.79,384.649a5.246,5.246,0,1,1-5.246-5.246A5.247,5.247,0,0,1,56.79,384.649Z" transform="translate(54.47 -379.403)" fill="#144a89"/>
            <path id="Path_556-2" data-name="Path 556" d="M62.686,384.649a5.249,5.249,0,1,1-5.252-5.246A5.248,5.248,0,0,1,62.686,384.649Z" transform="translate(82.167 -379.403)" fill="#144a89"/>
            <path id="Path_557-2" data-name="Path 557" d="M68.576,384.649A5.249,5.249,0,1,1,63.33,379.4,5.247,5.247,0,0,1,68.576,384.649Z" transform="translate(109.864 -379.403)" fill="#144a89"/>
            <path id="Path_558-2" data-name="Path 558" d="M74.466,384.649A5.249,5.249,0,1,1,69.22,379.4,5.247,5.247,0,0,1,74.466,384.649Z" transform="translate(137.562 -379.403)" fill="#144a89"/>
            <path id="Path_559-2" data-name="Path 559" d="M80.351,384.649a5.246,5.246,0,1,1-5.246-5.246A5.247,5.247,0,0,1,80.351,384.649Z" transform="translate(165.264 -379.403)" fill="#144a89"/>
          </g>
          <g id="Group_464-2" data-name="Group 464" transform="translate(0 31.7)">
            <path id="Path_560-2" data-name="Path 560" d="M39.125,379.1a5.249,5.249,0,1,1-5.246-5.252A5.247,5.247,0,0,1,39.125,379.1Z" transform="translate(-28.627 -373.843)" fill="#144a89"/>
            <path id="Path_561-2" data-name="Path 561" d="M45.015,379.1a5.249,5.249,0,1,1-5.246-5.252A5.247,5.247,0,0,1,45.015,379.1Z" transform="translate(-0.93 -373.843)" fill="#144a89"/>
            <path id="Path_562-2" data-name="Path 562" d="M50.9,379.1a5.246,5.246,0,1,1-5.246-5.252A5.247,5.247,0,0,1,50.9,379.1Z" transform="translate(26.772 -373.843)" fill="#144a89"/>
            <path id="Path_563-2" data-name="Path 563" d="M56.79,379.1a5.246,5.246,0,1,1-5.246-5.252A5.247,5.247,0,0,1,56.79,379.1Z" transform="translate(54.47 -373.843)" fill="#144a89"/>
            <path id="Path_564-2" data-name="Path 564" d="M62.686,379.1a5.249,5.249,0,1,1-5.252-5.252A5.248,5.248,0,0,1,62.686,379.1Z" transform="translate(82.167 -373.843)" fill="#144a89"/>
            <path id="Path_565-2" data-name="Path 565" d="M68.576,379.1a5.249,5.249,0,1,1-5.246-5.252A5.247,5.247,0,0,1,68.576,379.1Z" transform="translate(109.864 -373.843)" fill="#144a89"/>
            <path id="Path_566-2" data-name="Path 566" d="M74.466,379.1a5.249,5.249,0,1,1-5.246-5.252A5.247,5.247,0,0,1,74.466,379.1Z" transform="translate(137.562 -373.843)" fill="#144a89"/>
            <path id="Path_567-2" data-name="Path 567" d="M80.351,379.1a5.246,5.246,0,1,1-5.246-5.252A5.247,5.247,0,0,1,80.351,379.1Z" transform="translate(165.264 -373.843)" fill="#144a89"/>
          </g>
          <g id="Group_465-2" data-name="Group 465">
            <path id="Path_568-2" data-name="Path 568" d="M39.125,373.53a5.249,5.249,0,1,1-5.246-5.246A5.248,5.248,0,0,1,39.125,373.53Z" transform="translate(-28.627 -368.284)" fill="#144a89"/>
            <path id="Path_569-2" data-name="Path 569" d="M45.015,373.53a5.249,5.249,0,1,1-5.246-5.246A5.248,5.248,0,0,1,45.015,373.53Z" transform="translate(-0.93 -368.284)" fill="#144a89"/>
            <path id="Path_570-2" data-name="Path 570" d="M50.9,373.53a5.246,5.246,0,1,1-5.246-5.246A5.248,5.248,0,0,1,50.9,373.53Z" transform="translate(26.772 -368.284)" fill="#144a89"/>
            <path id="Path_571-2" data-name="Path 571" d="M56.79,373.53a5.246,5.246,0,1,1-5.246-5.246A5.248,5.248,0,0,1,56.79,373.53Z" transform="translate(54.47 -368.284)" fill="#144a89"/>
            <path id="Path_572-2" data-name="Path 572" d="M62.686,373.53a5.249,5.249,0,1,1-5.252-5.246A5.249,5.249,0,0,1,62.686,373.53Z" transform="translate(82.167 -368.284)" fill="#144a89"/>
            <path id="Path_573-2" data-name="Path 573" d="M68.576,373.53a5.249,5.249,0,1,1-5.246-5.246A5.248,5.248,0,0,1,68.576,373.53Z" transform="translate(109.864 -368.284)" fill="#144a89"/>
            <path id="Path_574-2" data-name="Path 574" d="M74.466,373.53a5.249,5.249,0,1,1-5.246-5.246A5.248,5.248,0,0,1,74.466,373.53Z" transform="translate(137.562 -368.284)" fill="#144a89"/>
            <path id="Path_575-2" data-name="Path 575" d="M80.351,373.53a5.246,5.246,0,1,1-5.246-5.246A5.248,5.248,0,0,1,80.351,373.53Z" transform="translate(165.264 -368.284)" fill="#144a89"/>
          </g>
        </g>
      </g>
    </g>
  </g>
</svg>
