<svg xmlns="http://www.w3.org/2000/svg" viewBox="0 0 47.1 44.2"><defs><style>.a{fill:#70b832;}</style></defs><path class="a" d="M23.5,22.2"/><path class="a" d="M40.6,8.9H29a2.456,2.456,0,0,1-2.4-2.5A6.445,6.445,0,0,0,20.2,0H6.4A6.445,6.445,0,0,0,0,6.4V37.8a6.445,6.445,0,0,0,6.4,6.4H40.7a6.445,6.445,0,0,0,6.4-6.4V15.3A6.6,6.6,0,0,0,40.6,8.9ZM25.5,28.7v4.9a2,2,0,0,1-4,0V28.7A5.573,5.573,0,0,1,18,23.6a5.4,5.4,0,0,1,10.8,0A5.254,5.254,0,0,1,25.5,28.7Z"/><circle class="a" cx="1.5" cy="1.5" r="1.5" transform="translate(22 22.1)"/></svg>