<svg xmlns="http://www.w3.org/2000/svg" viewBox="0 0 66.182 42.741"><script xmlns=""></script><defs><style>.a{fill:#70b832;}</style></defs><path class="a" d="M22.286,25.61l-1.368-1.368a1.806,1.806,0,0,0-2.556,0l-6.135,6.135a1.806,1.806,0,0,0,0,2.556L13.594,34.3a1.806,1.806,0,0,0,2.556,0l6.135-6.135A1.806,1.806,0,0,0,22.286,25.61Zm-5.76-4.316-1.368-1.368a1.806,1.806,0,0,0-2.556,0L6.466,26.061a1.806,1.806,0,0,0,0,2.556l1.368,1.368a1.806,1.806,0,0,0,2.556,0l6.135-6.135A1.806,1.806,0,0,0,16.527,21.294Zm15.263-5.76,7.354-5.308L55.46,24.948l10.722-7.985L58.137.722l-7.97,2.857L37.5,0,23.2,12.256C22.9,20.858,31.79,15.534,31.79,15.534ZM38.8,12.5l-6.045,4.6C21.474,23.625,21.218,12.03,21.218,12.03L32.3,2.226l-5.459-.767L14.888,3.91,6.917,1.053,0,17.8l6.948,5.624,3.97-3.97a4.683,4.683,0,0,1,6.617,0l.947.947a4.583,4.583,0,0,1,1.053,1.624A4.662,4.662,0,0,1,22.8,23.4l.947.947a5.013,5.013,0,0,1,.842,1.128c.18-.015.376-.03.571-.03a4.64,4.64,0,0,1,3.308,1.368l.947.947a4.561,4.561,0,0,1,1.008,1.5h.045a4.64,4.64,0,0,1,3.308,1.368l.947.947a4.692,4.692,0,0,1,0,6.617l-3.865,3.79a5.71,5.71,0,0,0,2.827.436l20.978-11.7a2.172,2.172,0,0,0,.737-3.444ZM34.271,33.519,32.9,32.151a1.806,1.806,0,0,0-2.556,0l-6.135,6.135a1.806,1.806,0,0,0,0,2.556l1.368,1.368a1.806,1.806,0,0,0,2.556,0l6.135-6.135A1.806,1.806,0,0,0,34.271,33.519Zm-5.8-4.181L27.1,27.97a1.806,1.806,0,0,0-2.556,0l-6.135,6.135a1.806,1.806,0,0,0,0,2.556l1.368,1.368a1.806,1.806,0,0,0,2.556,0L28.467,31.9A1.806,1.806,0,0,0,28.467,29.339Z"></path></svg>