<svg xmlns="http://www.w3.org/2000/svg" viewBox="0 0 60.4 50.1"><defs><style>.a{fill:#70b832;}</style></defs><path class="a" d="M55.9,10.5l-4.1,3,1.6,4.9a.878.878,0,0,1-.1.7.713.713,0,0,1-.6.3.9.9,0,0,1-.5-.1l-4.1-3-4.1,3a.749.749,0,0,1-.5.1.713.713,0,0,1-.6-.3.616.616,0,0,1-.1-.7l1.6-4.9-4.1-3a.762.762,0,0,1,.4-1.4h5.1l1.6-4.8a.74.74,0,0,1,1.4,0l1.6,4.8h5.1a.762.762,0,0,1,.4,1.4Z"/><path class="a" d="M24.9,18.6a.9.9,0,0,0,.1.5l.1.1A1.421,1.421,0,0,0,24.9,18.6Z"/><path class="a" d="M38.1,10.5l-4.1,3,1.6,4.9a.878.878,0,0,1-.1.7.713.713,0,0,1-.6.3.9.9,0,0,1-.5-.1l-4.1-3-4.1,3a.749.749,0,0,1-.5.1c-.2,0-.3-.1-.5-.2l-.3-.6v-.2l1.6-4.9-4.1-3a.762.762,0,0,1,.4-1.4h5.1l1.6-4.8a.74.74,0,0,1,1.4,0l1.6,4.8h5.1a.752.752,0,0,1,.7.5A.73.73,0,0,1,38.1,10.5Z"/><path class="a" d="M17.5,19.2h0a.551.551,0,0,0,.2-.5A.764.764,0,0,0,17.5,19.2Z"/><path class="a" d="M20.2,10.5l-4.1,3,1.6,4.9v.3c-.1.2-.2.3-.2.5a.764.764,0,0,1-.5.2.9.9,0,0,1-.5-.1l-4.1-3-4.1,3a.749.749,0,0,1-.5.1.6.6,0,0,1-.6-.3.878.878,0,0,1-.1-.7l1.6-4.9-4.1-3a.629.629,0,0,1-.4-.8.752.752,0,0,1,.7-.5H10l1.6-4.8a.74.74,0,0,1,1.4,0l1.6,4.8h5.1a.752.752,0,0,1,.7.5A.54.54,0,0,1,20.2,10.5Z"/><path class="a" d="M60,0H.4A.43.43,0,0,0,0,.4V22.7a.43.43,0,0,0,.4.4H17.2v-2H2V2H58.4V21.2h-33v2H60a.43.43,0,0,0,.4-.4V.4A.43.43,0,0,0,60,0Z"/><path class="a" d="M17.7,18.7a.758.758,0,0,1-.2.4.1.1,0,0,1-.1.1A2.186,2.186,0,0,1,17.7,18.7Z"/><path class="a" d="M25.1,19.2a.1.1,0,0,1-.1-.1.44.44,0,0,1-.1-.5A1.421,1.421,0,0,1,25.1,19.2Z"/><path class="a" d="M21.3,18.7h0a1.9,1.9,0,0,1,1.9,1.9v6.9a1.384,1.384,0,0,0,1.1,1.3l6.8,1.3a7.614,7.614,0,0,1,6.2,7.5v5.9a2.433,2.433,0,0,1-2.4,2.4H23.8A11.273,11.273,0,0,1,16.2,43c-2.7-2.4-6.6-5.5-9.4-5.9a.779.779,0,0,1-.6-.9c.2-1.4,2-3.7,12.3.5a.533.533,0,0,0,.7-.5V20.7A2.158,2.158,0,0,1,21.3,18.7Z"/><path class="a" d="M34.9,50.1H23a1.216,1.216,0,0,1-1.2-1.2v-.4A1.216,1.216,0,0,1,23,47.3H34.9a1.216,1.216,0,0,1,1.2,1.2v.4A1.155,1.155,0,0,1,34.9,50.1Z"/></svg>