<svg xmlns="http://www.w3.org/2000/svg" viewBox="0 0 74.967 51.289"><defs><style>.a{fill:#70b832;}</style></defs><path class="a" d="M59.8,44.808,40.144,50.639a16.805,16.805,0,0,1-9.079,0L11.407,44.808a1.624,1.624,0,0,1-1.166-1.583V22.319a1.681,1.681,0,0,1,2.082-1.583l18.741,5.581a16.805,16.805,0,0,0,9.079,0l18.741-5.581a1.613,1.613,0,0,1,2.082,1.583V43.226A1.7,1.7,0,0,1,59.8,44.808ZM70.547,21.236,67.3,14.906a1.738,1.738,0,0,0-1.916-.833l-25.238,7.5a16.805,16.805,0,0,1-9.079,0l-29.9-8.913a1.594,1.594,0,0,1,0-3.082L31.065.662a15.338,15.338,0,0,1,9.079,0l33.651,10a1.6,1.6,0,0,1,1.083,2l-2.166,8.329A1.182,1.182,0,0,1,70.547,21.236Z" transform="translate(0.025 0.025)"/></svg>