<svg xmlns="http://www.w3.org/2000/svg" viewBox="0 0 40.879 57.1"><defs><style>.a{fill:#70b832;}</style></defs><path class="a" d="M35.056,37H5.823A5.832,5.832,0,0,0,0,42.823v22.7a3.964,3.964,0,0,0,2.674,3.743,56.759,56.759,0,0,0,35.532,0,3.908,3.908,0,0,0,2.674-3.743v-22.7A5.832,5.832,0,0,0,35.056,37ZM23.292,54.29v5.823a2.852,2.852,0,1,1-5.7,0V54.29a5.407,5.407,0,1,1,5.7,0Z" transform="translate(0 -15.016)"/><path class="a" d="M15.479,14.914a8.734,8.734,0,1,1,17.469,0V20.8h6.179V14.914a14.914,14.914,0,1,0-29.827,0V20.8h6.179V14.914Z" transform="translate(-3.774 0)"/></svg>