<svg xmlns="http://www.w3.org/2000/svg" viewBox="0 0 61.571 57.575"><defs><style>.a{fill:#70b832;}</style></defs><path class="a" d="M27.326,47.64l13.6-1.265a2.9,2.9,0,0,0,2.531-3.163,2.963,2.963,0,0,0-3.1-2.594l-12.147-.127a11.171,11.171,0,0,1-2.91-.443c-7.782-2.278-12.211-.127-14.551.822a2.657,2.657,0,0,0-2.594-1.329l-5.251.38A3.091,3.091,0,0,0,0,43.148L.881,54.726a3.209,3.209,0,0,0,3.353,2.847l5.251-.38a2.787,2.787,0,0,0,2.4-1.708L34.855,56.5a12.864,12.864,0,0,0,7.212-1.2l.633-.316L60.035,44.856a2.961,2.961,0,0,0,1.518-2.341,2.392,2.392,0,0,0-2.278-2.594c-1.2-.063-3.606,1.2-4.239,1.582a74.438,74.438,0,0,0-7.845,4.555,2.22,2.22,0,0,1-.506.316,8.123,8.123,0,0,1-3.163,1.265A98.89,98.89,0,0,1,28.086,49.1H27.58a.819.819,0,0,1-.822-.633C26.567,48.083,26.884,47.7,27.326,47.64ZM6.132,54.852a1.716,1.716,0,0,1-1.771-1.708,1.756,1.756,0,0,1,1.771-1.708A1.716,1.716,0,0,1,7.9,53.144,1.8,1.8,0,0,1,6.132,54.852ZM46.307,43.907v-.949a8.136,8.136,0,0,0-.253-1.2v-.063c1.835-1.012,5.441-2.72,7.339-3.48a2.862,2.862,0,0,1,2.847.253,18.458,18.458,0,0,0-1.961.886,71.266,71.266,0,0,0-7.466,4.239A2.219,2.219,0,0,0,46.307,43.907Zm5.188-6.833c-1.392.633-4.112,1.582-5.441,2.278l-.886.506c-.063.063-.19.127-.253.19a4.98,4.98,0,0,0-1.392-1.139c1.2-.633,3.859-1.518,5.061-1.961A2.672,2.672,0,0,1,51.494,37.074Zm-8.857-32.9-1.9,1.9a14.194,14.194,0,0,0-5.251-2.151V1.2a1.244,1.244,0,0,0-1.2-1.2H31a1.244,1.244,0,0,0-1.2,1.2v2.72a15.349,15.349,0,0,0-5.251,2.151l-1.9-1.9a1.264,1.264,0,0,0-1.708,0L18.6,6.516a1.264,1.264,0,0,0,0,1.708l1.9,1.9a14.194,14.194,0,0,0-2.151,5.251h-2.72a1.244,1.244,0,0,0-1.2,1.2v3.29a1.244,1.244,0,0,0,1.2,1.2h2.72a15.349,15.349,0,0,0,2.151,5.251l-1.9,1.9a1.264,1.264,0,0,0,0,1.708l2.341,2.341a1.264,1.264,0,0,0,1.708,0l1.9-1.9a14.194,14.194,0,0,0,5.251,2.151v2.72a1.2,1.2,0,0,0,1.2,1.2h3.29a1.2,1.2,0,0,0,1.2-1.2v-2.72a15.349,15.349,0,0,0,5.251-2.151l1.9,1.9a1.264,1.264,0,0,0,1.708,0l2.341-2.341a1.264,1.264,0,0,0,0-1.708l-1.9-1.9a14.194,14.194,0,0,0,2.151-5.251h2.72a1.2,1.2,0,0,0,1.2-1.2v-3.29a1.244,1.244,0,0,0-1.2-1.2h-2.72a15.349,15.349,0,0,0-2.151-5.251l1.9-1.9a1.264,1.264,0,0,0,0-1.708L44.345,4.176A1.264,1.264,0,0,0,42.637,4.176ZM26.314,23.092a1,1,0,0,1-1.329-.316h0a.966.966,0,1,1,1.645-1.012A.9.9,0,0,1,26.314,23.092ZM29.6,25.56a1.018,1.018,0,0,1-1.329.38,1.074,1.074,0,0,1-.38-.38.971.971,0,0,1,0-1.012,1.018,1.018,0,0,1,1.329-.38A1,1,0,0,1,29.6,25.56Zm-3.733-7.339a1.139,1.139,0,0,1-2.278,0,9.045,9.045,0,0,1,9.047-9.047,9.205,9.205,0,0,1,6.074,2.341,4.36,4.36,0,0,0-.506.19l-1.771.822a6.552,6.552,0,0,0-3.8-1.139A6.832,6.832,0,0,0,25.871,18.221Zm6.9,8.921a1.01,1.01,0,0,1-.886-.506,1.192,1.192,0,0,1-.127-.506.987.987,0,0,1,.949-1.012h0a.987.987,0,0,1,1.012.949A1.094,1.094,0,0,1,32.767,27.142Zm2.278-8.668a2.394,2.394,0,1,1-3.606-2.341,2.358,2.358,0,0,1,2.151-.127l5.441-2.657a.942.942,0,0,1,1.265.38.967.967,0,0,1-.253,1.265Zm2.151,7.4a1,1,0,0,1-1.329-.316h0a1,1,0,0,1,.316-1.329.96.96,0,0,1,1.329.38A.935.935,0,0,1,37.2,25.876Zm3.227-3.29a1.018,1.018,0,0,1-1.329.38,1.074,1.074,0,0,1-.38-.38.971.971,0,0,1,0-1.012,1.018,1.018,0,0,1,1.329-.38A1.116,1.116,0,0,1,40.423,22.586Zm.127-3.48a1.01,1.01,0,0,1-.886-.506.938.938,0,0,1-.063-.443.981.981,0,1,1,1.961-.063A1,1,0,0,1,40.549,19.107Zm-6.9-.633a1.043,1.043,0,1,1-.759-1.265A1.035,1.035,0,0,1,33.653,18.474Z" transform="translate(0.013)"/></svg>