<svg xmlns="http://www.w3.org/2000/svg" width="400" height="400" viewBox="0 0 400 400">
  <g id="favicon" transform="translate(1051 1675)">
    <rect id="Rectangle_304" data-name="Rectangle 304" width="400" height="400" transform="translate(-1051 -1675)" fill="none" opacity="0"/>
    <g id="Group_533" data-name="Group 533" transform="translate(-1174.186 -1677.684)">
      <g id="Group_414" data-name="Group 414" transform="translate(172.289 207.354)">
        <path id="Path_441" data-name="Path 441" d="M592.233,500.356h0a20.069,20.069,0,0,1-17.052-14.311h0a20.073,20.073,0,0,1,3.881-18.538L604.408,437.3l32.25-38.432,37.61-13.6-6.86,39.4L635.158,463.1l-25.347,30.209A20.081,20.081,0,0,1,592.233,500.356Z" transform="translate(-574.37 -385.269)" fill="#65af2c"/>
      </g>
      <g id="Group_415" data-name="Group 415" transform="translate(140.701 158.189)">
        <path id="Path_442" data-name="Path 442" d="M575.548,427.64h0a20.077,20.077,0,0,1-3.866-21.928h0a20.067,20.067,0,0,1,14.9-11.7l38.829-6.845,49.411-8.714,37.552,13.755-30.577,25.773-49.41,8.706-38.836,6.852A20.1,20.1,0,0,1,575.548,427.64Z" transform="translate(-569.991 -378.453)" fill="#2176c4"/>
      </g>
      <g id="Group_416" data-name="Group 416" transform="translate(186.561 69.655)">
        <path id="Path_443" data-name="Path 443" d="M576.39,387.536h0a20.068,20.068,0,0,1,11.13-19.281h0a20.073,20.073,0,0,1,18.928.613L640.6,388.582l43.445,25.088,19.923,34.674-39.99.087-43.452-25.088L586.38,403.629A20.078,20.078,0,0,1,576.39,387.536Z" transform="translate(-576.348 -366.179)" fill="#ee4853"/>
      </g>
      <g id="Group_417" data-name="Group 417" transform="translate(288.404 19.621)">
        <path id="Path_444" data-name="Path 444" d="M594.362,367.431h0a20.071,20.071,0,0,1,20.925-7.617h0A20.1,20.1,0,0,1,629.4,372.452l13.481,37.054,17.16,47.146-7.025,39.37L622.32,470.378l-17.16-47.145-13.482-37.055A20.068,20.068,0,0,1,594.362,367.431Z" transform="translate(-590.467 -359.243)" fill="#65af2c"/>
      </g>
      <g id="Group_418" data-name="Group 418" transform="translate(369.14 46.764)">
        <path id="Path_445" data-name="Path 445" d="M646.418,363.578h0a20.062,20.062,0,0,1,20.919,7.61h0a20.05,20.05,0,0,1,2.683,18.747L656.539,426.99l-17.161,47.146-30.692,25.643-7.025-39.37,17.16-47.146,13.489-37.054A20.06,20.06,0,0,1,646.418,363.578Z" transform="translate(-601.66 -363.006)" fill="#2176c4"/>
      </g>
      <g id="Group_419" data-name="Group 419" transform="translate(378.041 138.369)">
        <path id="Path_446" data-name="Path 446" d="M719.345,377.788h0a20.067,20.067,0,0,1,11.137,19.281h0a20.066,20.066,0,0,1-10,16.086l-34.148,19.714-43.452,25.088-39.99-.087L622.817,423.2l43.452-25.088,34.148-19.714A20.054,20.054,0,0,1,719.345,377.788Z" transform="translate(-602.894 -375.705)" fill="#ee4853"/>
      </g>
      <g id="Group_420" data-name="Group 420" transform="translate(355.695 236.33)">
        <path id="Path_447" data-name="Path 447" d="M740.483,416.545h0a20.077,20.077,0,0,1-3.866,21.928h0a20.088,20.088,0,0,1-18,5.9l-38.829-6.853-49.411-8.706L599.8,403.042l37.552-13.756,49.411,8.706,38.836,6.852A20.054,20.054,0,0,1,740.483,416.545Z" transform="translate(-599.796 -389.286)" fill="#65af2c"/>
      </g>
      <g id="Group_421" data-name="Group 421" transform="translate(319.585 258.359)">
        <path id="Path_448" data-name="Path 448" d="M693.886,493.109v.007a20.081,20.081,0,0,1-17.059,14.3v.007a20.08,20.08,0,0,1-17.578-7.048L633.9,470.171l-32.25-38.432-6.86-39.4,37.61,13.6,32.25,38.432L690,474.578A20.064,20.064,0,0,1,693.886,493.109Z" transform="translate(-594.79 -392.34)" fill="#2176c4"/>
      </g>
      <g id="Group_422" data-name="Group 422" transform="translate(266.539 241.48)">
        <path id="Path_449" data-name="Path 449" d="M618.633,530.9h0a20.062,20.062,0,0,1-22.26,0h-.007a20.066,20.066,0,0,1-8.93-16.7v-89.6L607.5,390l20.067,34.595v89.6A20.072,20.072,0,0,1,618.633,530.9Z" transform="translate(-587.436 -390)" fill="#ee4853"/>
      </g>
    </g>
  </g>
</svg>
